<?xml version="1.0" encoding="UTF-8" standalone="no"?>
<!-- Generator: Adobe Illustrator 16.0.0, SVG Export Plug-In . SVG Version: 6.00 Build 0)  -->

<svg
   xmlns:dc="http://purl.org/dc/elements/1.1/"
   xmlns:cc="http://creativecommons.org/ns#"
   xmlns:rdf="http://www.w3.org/1999/02/22-rdf-syntax-ns#"
   xmlns:svg="http://www.w3.org/2000/svg"
   xmlns="http://www.w3.org/2000/svg"
   xmlns:sodipodi="http://sodipodi.sourceforge.net/DTD/sodipodi-0.dtd"
   xmlns:inkscape="http://www.inkscape.org/namespaces/inkscape"
   version="1.1"
   id="Capa_1"
   x="0px"
   y="0px"
   width="45.354px"
   height="45.354px"
   viewBox="0 0 45.354 45.354"
   enable-background="new 0 0 45.354 45.354"
   xml:space="preserve"
   inkscape:version="0.91 r13725"
   sodipodi:docname="adm.svg"><metadata
     id="metadata49"><rdf:RDF><cc:Work
         rdf:about=""><dc:format>image/svg+xml</dc:format><dc:type
           rdf:resource="http://purl.org/dc/dcmitype/StillImage" /><dc:title></dc:title></cc:Work></rdf:RDF></metadata><defs
     id="defs47" /><sodipodi:namedview
     pagecolor="#ffffff"
     bordercolor="#666666"
     borderopacity="1"
     objecttolerance="10"
     gridtolerance="10"
     guidetolerance="10"
     inkscape:pageopacity="0"
     inkscape:pageshadow="2"
     inkscape:window-width="1920"
     inkscape:window-height="1053"
     id="namedview45"
     showgrid="false"
     inkscape:zoom="2.6017551"
     inkscape:cx="18.025776"
     inkscape:cy="38.789578"
     inkscape:window-x="0"
     inkscape:window-y="27"
     inkscape:window-maximized="1"
     inkscape:current-layer="g3" /><g
     id="g3"><circle
       cx="22.677"
       cy="22.678"
       r="22.677"
       id="circle5"
       fill="#EC6927" /><path
       style="fill:#ffffff"
       d="M 12.031512,37.111576 C 11.3339,36.844742 11.247253,36.788277 11.114444,36.51393 c -0.137641,-0.28433 -0.134288,-0.474011 0.01484,-0.841068 0.217613,-0.535546 0.215986,-0.563335 -0.04389,-0.749964 -0.125579,-0.09018 -0.384327,-0.324993 -0.57499,-0.521794 L 10.163751,34.043289 9.7338383,34.22798 C 9.0808993,34.508475 8.6933829,34.464594 8.431245,34.080473 8.2718932,33.846969 7.898604,33.025648 7.8567724,32.816516 c -0.042829,-0.214111 0.066204,-0.560609 0.221991,-0.705517 0.074252,-0.06906 0.3237365,-0.217518 0.5544149,-0.329884 l 0.4194195,-0.20431 -0.037179,-0.180561 c -0.020438,-0.09931 -0.040717,-0.451618 -0.045101,-0.782907 L 8.9623427,30.010991 8.4788106,29.816356 C 8.0759063,29.654174 7.9729038,29.589427 7.8610659,29.428037 7.6451483,29.116474 7.644504,28.907411 7.8573693,28.309294 c 0.2529064,-0.709848 0.3623096,-0.889082 0.628366,-1.029438 0.2972307,-0.156802 0.5251366,-0.147517 0.9947424,0.04051 l 0.3935315,0.157577 0.2521878,-0.292768 c 0.138703,-0.161022 0.382463,-0.416516 0.541683,-0.567766 0.299998,-0.284984 0.335381,-0.370312 0.223279,-0.538451 -0.131737,-0.197592 -0.286214,-0.645503 -0.286214,-0.829893 0,-0.26595 0.12222,-0.526589 0.314088,-0.669801 0.227145,-0.16955 1.080323,-0.544624 1.309987,-0.575893 0.25767,-0.03507 0.611636,0.107164 0.754151,0.303082 0.06266,0.08613 0.193209,0.316586 0.290128,0.512124 0.173146,0.349344 0.179277,0.355207 0.352423,0.336775 0.09692,-0.0103 0.456335,-0.03296 0.798703,-0.05033 l 0.622493,-0.03158 0.11045,-0.302078 c 0.182424,-0.498927 0.27281,-0.648593 0.468126,-0.775149 0.215691,-0.139764 0.549181,-0.191324 0.75317,-0.116448 0.07809,0.02868 0.332439,0.122078 0.565241,0.207594 0.494125,0.181517 0.713762,0.334114 0.828302,0.575492 0.118857,0.250472 0.102776,0.473203 -0.06844,0.948163 l -0.151049,0.419008 0.239159,0.199234 c 0.131536,0.109584 0.389471,0.353131 0.57319,0.541223 0.183719,0.188092 0.348916,0.341988 0.36711,0.341988 0.01816,0 0.185054,-0.0719 0.370812,-0.159779 0.41069,-0.194287 0.825478,-0.242414 1.057086,-0.122644 0.217375,0.112409 0.365368,0.326251 0.634661,0.917063 0.265618,0.582754 0.287794,0.793913 0.118619,1.1294 -0.101577,0.201432 -0.161555,0.248043 -0.580589,0.451196 l -0.467313,0.226559 0.02646,0.402768 c 0.01458,0.221527 0.02662,0.587929 0.02678,0.814224 l 3.01e-4,0.411455 0.188799,0.06094 c 0.103838,0.03353 0.327962,0.123377 0.49805,0.199683 0.249051,0.111727 0.334811,0.182341 0.440534,0.362738 0.174413,0.297622 0.166454,0.481937 -0.04732,1.09615 -0.230061,0.660956 -0.374583,0.888054 -0.642562,1.00972 -0.285618,0.129672 -0.395617,0.123007 -0.918916,-0.05567 l -0.449975,-0.153643 -0.19924,0.241747 c -0.109577,0.132963 -0.356447,0.395217 -0.5486,0.58278 l -0.349366,0.341033 0.183592,0.391223 c 0.138307,0.294728 0.183592,0.456493 0.183592,0.655812 0,0.46131 -0.149735,0.638053 -0.80119,0.945687 -0.7269,0.343261 -0.919708,0.381469 -1.243134,0.246331 -0.239254,-0.09996 -0.342732,-0.228756 -0.570062,-0.709526 l -0.192179,-0.406417 -0.371425,0.04252 c -0.204284,0.0234 -0.541344,0.03966 -0.749023,0.03617 -0.207674,-0.0037 -0.404068,-0.0037 -0.436425,-10e-4 -0.03237,0.0027 -0.106362,0.14681 -0.164459,0.319876 -0.163043,0.485697 -0.303156,0.695447 -0.552413,0.826936 -0.306383,0.161633 -0.49636,0.144374 -1.146035,-0.104122 z m 3.432133,-3.27021 c 1.068788,-0.347543 1.857298,-1.13222 2.232986,-2.222132 0.178785,-0.518689 0.205867,-1.276532 0.06545,-1.831781 -0.658521,-2.604098 -3.89519,-3.507932 -5.751252,-1.60603 -0.398064,0.407897 -0.60532,0.747149 -0.814267,1.332844 -0.145093,0.406708 -0.157931,0.493994 -0.157688,1.072084 2.53e-4,0.562083 0.01547,0.672363 0.14279,1.032095 0.217249,0.613955 0.410574,0.916736 0.884014,1.384525 0.488126,0.482301 0.927377,0.736919 1.560321,0.904456 0.533656,0.141259 1.2829,0.114325 1.837643,-0.06606 z m 8.936462,3.2362 c -0.493371,-0.172455 -0.649506,-0.460053 -0.475652,-0.87614 0.04299,-0.102876 0.0713,-0.201934 0.06293,-0.220122 -0.0084,-0.01816 -0.152603,-0.162774 -0.32051,-0.321291 l -0.305299,-0.288216 -0.261641,0.09942 c -0.318767,0.121123 -0.427837,0.12409 -0.592608,0.01611 -0.156485,-0.102533 -0.423153,-0.67464 -0.423153,-0.907831 0,-0.198601 0.14016,-0.352968 0.445487,-0.490651 l 0.197249,-0.08895 -0.02593,-0.435538 c -0.01426,-0.239545 -0.03427,-0.444948 -0.04442,-0.456455 -0.01014,-0.01151 -0.136553,-0.06815 -0.28088,-0.125865 -0.216234,-0.08648 -0.274712,-0.137319 -0.332292,-0.288891 -0.06066,-0.159691 -0.05944,-0.219848 0.0093,-0.456277 0.101175,-0.34803 0.273988,-0.60391 0.449569,-0.665661 0.126476,-0.04446 0.370485,-0.0084 0.639193,0.0945 0.04975,0.01906 0.173858,-0.08117 0.363487,-0.293465 l 0.287962,-0.322385 -0.106235,-0.294696 c -0.09784,-0.271385 -0.100303,-0.30869 -0.03116,-0.471639 0.05789,-0.136453 0.142247,-0.209844 0.368605,-0.320679 0.571965,-0.280067 0.823049,-0.226675 1.035175,0.220122 l 0.117515,0.24752 0.404611,-0.02698 c 0.222535,-0.01484 0.431667,-0.03523 0.464727,-0.04526 0.03306,-0.01003 0.08803,-0.111441 0.122141,-0.225308 0.06964,-0.232436 0.296703,-0.452795 0.466563,-0.452795 0.168473,0 0.737654,0.236012 0.870763,0.361063 0.136047,0.127808 0.150702,0.361745 0.04182,0.667399 l -0.07046,0.197751 0.311812,0.292435 c 0.175555,0.164649 0.344808,0.283172 0.387327,0.271238 0.04156,-0.01167 0.18159,-0.06159 0.311235,-0.110962 0.220803,-0.08407 0.246765,-0.0845 0.410163,-0.0066 0.135031,0.0644 0.209727,0.157884 0.330675,0.413864 0.257364,0.544719 0.200639,0.774441 -0.246379,0.997699 l -0.226406,0.11308 0.01727,0.427943 c 0.0095,0.235368 0.0253,0.440935 0.03507,0.45681 0.0098,0.0159 0.111019,0.05963 0.224922,0.09722 0.239027,0.07888 0.452453,0.305675 0.452453,0.48078 0,0.197656 -0.246696,0.796025 -0.366852,0.889817 -0.138148,0.107835 -0.360213,0.112446 -0.641173,0.01331 l -0.215142,-0.0759 -0.181373,0.214101 c -0.09975,0.117758 -0.236488,0.265967 -0.303848,0.329351 l -0.12248,0.115249 0.109889,0.226189 c 0.211102,0.434514 0.128115,0.64018 -0.355026,0.879895 -0.524355,0.260157 -0.748696,0.211714 -0.979385,-0.211492 -0.07788,-0.142875 -0.158591,-0.256112 -0.179363,-0.251645 -0.02076,0.0043 -0.21429,0.0082 -0.43005,0.0082 l -0.392295,0 -0.139838,0.304651 c -0.194704,0.424177 -0.361966,0.479935 -0.888044,0.296048 z m 1.938332,-1.845581 c 0.472759,-0.14812 0.860249,-0.489167 1.118917,-0.984803 0.123366,-0.236382 0.137113,-0.315071 0.13836,-0.791975 0.001,-0.498224 -0.0084,-0.549392 -0.164095,-0.865825 -0.190252,-0.386666 -0.487076,-0.674174 -0.910868,-0.882298 -0.252077,-0.123793 -0.338381,-0.138982 -0.789714,-0.138982 -0.476561,0 -0.525997,0.01003 -0.830717,0.168478 -0.654629,0.340403 -1.000456,0.874264 -1.042874,1.609915 -0.02133,0.370206 -0.0082,0.459588 0.112313,0.7669 0.177165,0.451561 0.492098,0.802854 0.899334,1.003166 0.525734,0.258599 0.914818,0.289162 1.469344,0.115424 z m -1.576788,-6.664989 c -0.147284,-0.02477 -0.306852,-0.06593 -0.354594,-0.09147 -0.04774,-0.02556 -0.403011,-0.163091 -0.789487,-0.305644 -0.38647,-0.142558 -0.759316,-0.294463 -0.828541,-0.337573 -0.390954,-0.243469 -0.650003,-0.665614 -0.691887,-1.127504 -0.02641,-0.290972 0.06513,-0.634022 0.38533,-1.444438 0.05785,-0.146398 0.105168,-0.294532 0.105168,-0.329187 0,-0.03464 -0.239921,-0.253312 -0.533164,-0.485913 -0.293238,-0.232609 -0.733392,-0.638709 -0.978112,-0.902458 l -0.444954,-0.479534 -0.217607,0.107349 c -1.272249,0.627632 -1.587905,0.683923 -2.189195,0.39039 -0.402229,-0.196357 -0.556734,-0.412713 -1.023245,-1.432842 -0.422012,-0.922824 -0.425925,-0.935113 -0.425054,-1.334174 5.28e-4,-0.316765 0.02466,-0.448175 0.112234,-0.615406 0.222694,-0.425282 0.429617,-0.568046 1.563496,-1.078712 0.279913,-0.126065 0.316543,-0.158306 0.292097,-0.25711 -0.07548,-0.305152 -0.140942,-1.29322 -0.125722,-1.897905 l 0.01706,-0.677316 -0.201385,-0.07284 c -1.274054,-0.460792 -1.535056,-0.620154 -1.773646,-1.082905 -0.109107,-0.211619 -0.13349,-0.32736 -0.134055,-0.636267 -5.28e-4,-0.341951 0.02894,-0.455658 0.31319,-1.204434 0.478172,-1.259637 0.584043,-1.410117 1.158229,-1.646288 0.42186,-0.173515 0.638332,-0.154377 1.459707,0.129023 0.396488,0.136807 0.747555,0.237929 0.780145,0.224716 0.03259,-0.0132 0.138538,-0.142019 0.235457,-0.286235 0.09691,-0.144212 0.485555,-0.575699 0.863639,-0.958858 l 0.687433,-0.69664 -0.227404,-0.4867539 C 21.365134,8.6261127 21.307591,8.3414825 21.453275,7.8509104 21.611158,7.3192523 21.820897,7.1503736 23.015609,6.5929272 l 0.855886,-0.3993517 0.427943,0.00102 c 0.341841,0.00102 0.469807,0.023287 0.636014,0.1112942 0.33959,0.1798377 0.607812,0.5343574 0.924371,1.2217824 0.159394,0.3461283 0.310206,0.625361 0.335144,0.6205127 0.355265,-0.069065 1.262188,-0.1221884 1.874214,-0.1097834 l 0.77414,0.015682 0.23521,-0.6565199 c 0.323319,-0.9024705 0.53357,-1.1691824 1.084009,-1.3751289 0.474242,-0.1774349 0.660897,-0.1484148 1.809953,0.2814188 0.334204,0.1250146 0.709875,0.2795707 0.83483,0.3434615 0.441759,0.2258675 0.735478,0.6625668 0.786409,1.1692194 0.02614,0.2601676 0.0027,0.3649712 -0.227267,1.0154071 -0.141037,0.3989127 -0.256429,0.7519757 -0.256429,0.7845867 0,0.03259 0.130274,0.147426 0.289494,0.255145 0.15922,0.107724 0.599727,0.5054699 0.978904,0.8838819 l 0.68941,0.688027 0.644765,-0.306611 c 0.638596,-0.303673 0.64912,-0.30663 1.099841,-0.309118 0.430299,-0.0021 0.470044,0.0067 0.730022,0.166492 0.151219,0.09295 0.32924,0.236482 0.395602,0.318952 0.152714,0.189781 0.891739,1.78067 0.968146,2.084101 0.07212,0.286404 0.02989,0.658537 -0.104581,0.922169 -0.211043,0.413679 -0.39199,0.558297 -1.151237,0.920062 -0.585083,0.278785 -0.715905,0.360055 -0.694718,0.431556 0.07423,0.250482 0.141386,1.413507 0.112836,1.954206 l -0.03206,0.607459 0.440829,0.167738 c 1.117675,0.425282 1.320607,0.559167 1.55822,1.028082 0.208614,0.411682 0.208223,0.689642 -0.0016,1.295881 -0.310576,0.896397 -0.478847,1.342788 -0.58062,1.540274 -0.233725,0.45354 -0.726188,0.741561 -1.264964,0.739829 -0.319106,-10e-4 -0.609904,-0.0849 -1.445707,-0.416974 l -0.262565,-0.104318 -0.287994,0.388757 c -0.158396,0.213816 -0.566614,0.663037 -0.907155,0.998265 l -0.619161,0.609508 0.298545,0.643945 c 0.443897,0.957458 0.459572,1.437927 0.06395,1.960343 -0.21261,0.280771 -0.415462,0.411415 -1.169709,0.753387 -0.29075,0.131827 -0.611265,0.281557 -0.712251,0.332736 -0.39698,0.201178 -0.926077,0.221531 -1.369537,0.05271 -0.30193,-0.11496 -0.645471,-0.558609 -0.935731,-1.208411 -0.150505,-0.336934 -0.292636,-0.624342 -0.315835,-0.63868 -0.02319,-0.01437 -0.205921,0.0021 -0.406033,0.03702 -0.200111,0.0347 -0.791267,0.06497 -1.313678,0.06726 l -0.949837,0.0043 -0.244098,0.648704 c -0.134256,0.356791 -0.301883,0.736021 -0.372502,0.842736 -0.16326,0.246696 -0.552793,0.530888 -0.781238,0.569962 -0.368241,0.06298 -0.435299,0.06504 -0.695896,0.02123 z m 3.74753,-5.60637 c 0.511897,-0.03527 1.318859,-0.272024 1.882136,-0.552234 1.604297,-0.79808 2.67983,-2.194561 3.085186,-4.005845 0.152819,-0.682825 0.147517,-1.702868 -0.0123,-2.366274 -0.551379,-2.28895 -2.256064,-3.956056 -4.507771,-4.408398 -0.679112,-0.136426 -1.671008,-0.129302 -2.322278,0.01669 -1.06393,0.238479 -1.955047,0.708476 -2.718794,1.433956 -0.503885,0.478643 -0.847959,0.938425 -1.233833,1.648764 -0.118884,0.218844 -0.30454,0.746257 -0.426597,1.211844 -0.119723,0.456682 -0.137942,0.623501 -0.139843,1.280296 -0.0021,0.792735 0.03881,1.078252 0.255864,1.777902 0.565452,1.822523 2.116257,3.294966 4.017822,3.814786 0.458357,0.125299 1.2706,0.222476 1.585908,0.189739 0.06922,-0.0072 0.309742,-0.02572 0.534484,-0.04119 z"
       id="path4147"
       inkscape:connector-curvature="0" /></g></svg>