<?xml version="1.0" encoding="utf-8"?>
<!-- Generator: Adobe Illustrator 16.0.0, SVG Export Plug-In . SVG Version: 6.00 Build 0)  -->
<!DOCTYPE svg PUBLIC "-//W3C//DTD SVG 1.1//EN" "http://www.w3.org/Graphics/SVG/1.1/DTD/svg11.dtd">
<svg version="1.1" id="Capa_1" xmlns="http://www.w3.org/2000/svg" xmlns:xlink="http://www.w3.org/1999/xlink" x="0px" y="0px"
	 width="45.354px" height="45.354px" viewBox="0 0 45.354 45.354" enable-background="new 0 0 45.354 45.354" xml:space="preserve">
<g>
	<circle fill="#EC6927" cx="22.677" cy="22.677" r="22.678"/>
	<g>
		<g>
			<polygon fill="#FFFFFF" stroke="#ED6926" stroke-miterlimit="10" points="11.196,9.678 11.196,35.678 29.196,35.678 
				29.196,20.845 30.363,19.845 30.363,11.011 28.53,9.678 			"/>
			<polygon fill="#FFFFFF" stroke="#ED6926" stroke-miterlimit="10" points="29.196,34.475 36.03,34.475 36.03,13.309 
				30.363,13.309 30.363,19.845 29.196,20.845 			"/>
		</g>
		<line fill="none" stroke="#ED6926" stroke-width="0.5" stroke-miterlimit="10" x1="29.196" y1="21.809" x2="34.363" y2="21.809"/>
		<line fill="none" stroke="#ED6926" stroke-width="0.5" stroke-miterlimit="10" x1="29.196" y1="22.677" x2="34.363" y2="22.677"/>
		<line fill="none" stroke="#ED6926" stroke-width="0.5" stroke-miterlimit="10" x1="29.196" y1="23.892" x2="34.363" y2="23.892"/>
		<line fill="none" stroke="#ED6926" stroke-width="0.5" stroke-miterlimit="10" x1="29.196" y1="24.809" x2="34.363" y2="24.809"/>
		<line fill="none" stroke="#ED6926" stroke-width="0.5" stroke-miterlimit="10" x1="29.196" y1="25.589" x2="34.363" y2="25.589"/>
		<line fill="none" stroke="#ED6926" stroke-width="0.5" stroke-miterlimit="10" x1="29.196" y1="26.458" x2="34.363" y2="26.458"/>
		<line fill="none" stroke="#ED6926" stroke-width="0.5" stroke-miterlimit="10" x1="29.196" y1="27.672" x2="34.363" y2="27.672"/>
		<line fill="none" stroke="#ED6926" stroke-width="0.5" stroke-miterlimit="10" x1="29.196" y1="28.589" x2="34.363" y2="28.589"/>
	</g>
</g>
</svg>
