<?xml version="1.0" encoding="utf-8"?>
<!-- Generator: Adobe Illustrator 16.0.0, SVG Export Plug-In . SVG Version: 6.00 Build 0)  -->
<!DOCTYPE svg PUBLIC "-//W3C//DTD SVG 1.1//EN" "http://www.w3.org/Graphics/SVG/1.1/DTD/svg11.dtd">
<svg version="1.1" id="Capa_1" xmlns="http://www.w3.org/2000/svg" xmlns:xlink="http://www.w3.org/1999/xlink" x="0px" y="0px"
	 width="45.354px" height="45.354px" viewBox="0 0 45.354 45.354" enable-background="new 0 0 45.354 45.354" xml:space="preserve">
<g>
	<circle fill="#ED6926" cx="22.677" cy="22.679" r="22.677"/>
	<path fill="#FFFFFF" stroke="#000000" stroke-width="0.5" stroke-miterlimit="10" d="M37.368,29.238"/>
	<path fill="#FFFFFF" stroke="#000000" stroke-width="0.5" stroke-miterlimit="10" d="M23.534,24.322"/>
	<path fill="#FFFFFF" stroke="#000000" stroke-width="0.5" stroke-miterlimit="10" d="M9.7,29.238"/>
	<path fill="none" stroke="#000000" stroke-width="0.5" stroke-miterlimit="10" d="M29.87,18.308"/>
	<g>
		<path fill="#FFFFFF" stroke="#ED6926" stroke-width="0.5" stroke-miterlimit="10" d="M38.848,26.973
			c-0.971,0-1.804,0.571-2.195,1.395v-5.099h-5.516c0.727-0.422,1.221-1.198,1.221-2.099c0-1.348-1.092-2.44-2.439-2.44
			c-1.347,0-2.439,1.093-2.439,2.44c0,0.9,0.494,1.677,1.221,2.099h-5.516v4.207c0.442-0.621,1.164-1.029,1.984-1.029
			c1.347,0,2.439,1.094,2.439,2.439c0,1.348-1.093,2.44-2.439,2.44c-0.82,0-1.542-0.408-1.984-1.028v4.706h5.75
			c-0.855-0.379-1.455-1.232-1.455-2.228c0-1.346,1.093-2.439,2.439-2.439c1.348,0,2.439,1.094,2.439,2.439
			c0,0.995-0.6,1.849-1.454,2.228h5.749v-4.548c0.392,0.821,1.225,1.395,2.195,1.395c1.348,0,2.439-1.092,2.439-2.439
			S40.196,26.973,38.848,26.973z"/>
		<path fill="#FFFFFF" stroke="#ED6926" stroke-width="0.5" stroke-miterlimit="10" d="M25.308,26.441
			c-0.93,0-1.728,0.526-2.14,1.292v-4.465h-5.472c0.703,0.43,1.177,1.195,1.177,2.079c0,1.348-1.092,2.438-2.439,2.438
			c-1.347,0-2.439-1.091-2.439-2.438c0-0.884,0.475-1.649,1.178-2.079H9.7v11.735h5.147c-0.518,0.447-0.853,1.101-0.853,1.838
			c0,1.348,1.093,2.439,2.439,2.439c1.348,0,2.439-1.092,2.439-2.439c0-0.737-0.334-1.391-0.852-1.838h5.146V30.03
			c0.412,0.765,1.21,1.29,2.14,1.29c1.347,0,2.438-1.092,2.438-2.438S26.655,26.441,25.308,26.441z"/>
		<path fill="#FFFFFF" stroke="#ED6926" stroke-width="0.5" stroke-miterlimit="10" d="M21.325,14.6
			c0.746,0,1.408,0.343,1.854,0.874v-3.913h-5.515c0.727-0.423,1.221-1.199,1.221-2.1c0-1.348-1.092-2.44-2.439-2.44
			s-2.439,1.093-2.439,2.44c0,0.9,0.494,1.677,1.221,2.1H9.711v11.734h5.44c-0.687,0.432-1.146,1.191-1.146,2.061
			c0,1.348,1.092,2.438,2.439,2.438c1.346,0,2.439-1.091,2.439-2.438c0-0.869-0.461-1.629-1.146-2.061h5.44v-4.69
			c-0.446,0.53-1.108,0.874-1.854,0.874c-1.348,0-2.439-1.092-2.439-2.439C18.885,15.692,19.977,14.6,21.325,14.6z"/>
	</g>
</g>
</svg>
