<?xml version="1.0" encoding="utf-8"?>
<!-- Generator: Adobe Illustrator 21.1.0, SVG Export Plug-In . SVG Version: 6.00 Build 0)  -->
<svg version="1.1" id="Capa_1" xmlns="http://www.w3.org/2000/svg" xmlns:xlink="http://www.w3.org/1999/xlink" x="0px" y="0px"
	 viewBox="0 0 45.4 45.4" style="enable-background:new 0 0 45.4 45.4;" xml:space="preserve">
<style type="text/css">
	.st0{fill:#EC6927;}
	.st1{fill:#FFFFFF;}
</style>
<path class="st0" d="M45.4,22.7c0,12.5-10.2,22.7-22.7,22.7S0,35.2,0,22.7S10.2,0,22.7,0S45.4,10.2,45.4,22.7z"/>
<path class="st1" d="M7.8,25.3c0,0,3.1-8.5,14.2-8.8c12.1-0.3,15.3,8.8,15.3,8.8s-3,8.8-14.3,8.8S7.8,25.3,7.8,25.3z"/>
<circle class="st0" cx="22.6" cy="25.8" r="7.6"/>
<path class="st1" d="M29.4,20.6c0,2.1-1.7,3.7-3.8,3.7s-3.8-1.7-3.8-3.8s1.7-3.7,3.8-3.7C27.7,16.9,29.4,18.6,29.4,20.6z"/>
<polygon class="st1" points="10.7,5.3 5.1,16.4 16.3,16.4 "/>
<g>
	<path class="st0" d="M10.7,13.8c0,0-2.1-4.6,0-4.6C12.8,9.2,10.7,13.8,10.7,13.8z"/>
	<ellipse class="st0" cx="10.7" cy="14.8" rx="0.5" ry="0.5"/>
</g>
</svg>
