<?xml version="1.0" encoding="utf-8"?>
<!-- Generator: Adobe Illustrator 16.0.0, SVG Export Plug-In . SVG Version: 6.00 Build 0)  -->
<!DOCTYPE svg PUBLIC "-//W3C//DTD SVG 1.1//EN" "http://www.w3.org/Graphics/SVG/1.1/DTD/svg11.dtd">
<svg version="1.1" id="Capa_1" xmlns="http://www.w3.org/2000/svg" xmlns:xlink="http://www.w3.org/1999/xlink" x="0px" y="0px"
	 width="45.354px" height="45.354px" viewBox="0 0 45.354 45.354" enable-background="new 0 0 45.354 45.354" xml:space="preserve">
<g>
	<circle fill="#EC6927" cx="22.677" cy="22.677" r="22.677"/>
	<g>
		<path fill="#FFFFFF" stroke="#ED6926" stroke-width="0.5" stroke-miterlimit="10" d="M33.965,32.618c0,5.141,0,5.141-5.498,5.141
			H17.699c-5.498,0-5.498,0-5.498-5.141V16.554c0-5.141,0-5.141,5.498-5.141h10.768c5.498,0,5.498,0,5.498,5.141V32.618z"/>
		<path fill="#FFFFFF" stroke="#ED6926" stroke-width="0.5" stroke-miterlimit="10" d="M28.443,10.208
			c0-0.58-0.451-1.049-1.01-1.049c-0.309,0-0.885,0.297-1.178,0.294c-1.227-0.011-1.461-1.858-2.869-1.858
			c-1.357,0-1.758,1.852-3.021,1.881c-0.281,0.007-0.688-0.316-0.984-0.316c-0.557,0-1.008,0.469-1.008,1.049
			c0,0.463,0.188,1.064,0.586,1.205c-0.064,0.131,0,0,0,0h8.855c0,0,0.061,0.124,0,0C28.232,11.284,28.443,10.685,28.443,10.208z
			 M23.387,9.503c-0.348,0-0.631-0.281-0.631-0.629c0-0.349,0.283-0.631,0.631-0.631s0.629,0.282,0.629,0.631
			C24.016,9.222,23.734,9.503,23.387,9.503z"/>
		
			<rect x="15.637" y="13.073" fill="#FFFFFF" stroke="#ED6926" stroke-width="0.5" stroke-miterlimit="10" width="14.932" height="20.333"/>
		
			<rect x="18.959" y="11.413" fill="#FFFFFF" stroke="#ED6926" stroke-width="0.5" stroke-miterlimit="10" width="8.855" height="3.321"/>
		
			<line fill="#FFFFFF" stroke="#ED6926" stroke-width="0.5" stroke-miterlimit="10" x1="17.854" y1="19.011" x2="28.354" y2="19.011"/>
		
			<line fill="#FFFFFF" stroke="#ED6926" stroke-width="0.5" stroke-miterlimit="10" x1="17.854" y1="20.118" x2="28.354" y2="20.118"/>
		
			<line fill="#FFFFFF" stroke="#ED6926" stroke-width="0.5" stroke-miterlimit="10" x1="17.832" y1="21.455" x2="28.334" y2="21.455"/>
		
			<line fill="#FFFFFF" stroke="#ED6926" stroke-width="0.5" stroke-miterlimit="10" x1="17.854" y1="22.677" x2="28.354" y2="22.677"/>
		
			<line fill="#FFFFFF" stroke="#ED6926" stroke-width="0.5" stroke-miterlimit="10" x1="17.863" y1="23.937" x2="28.363" y2="23.937"/>
		
			<line fill="#FFFFFF" stroke="#ED6926" stroke-width="0.5" stroke-miterlimit="10" x1="17.863" y1="25.044" x2="28.363" y2="25.044"/>
		
			<line fill="#FFFFFF" stroke="#ED6926" stroke-width="0.5" stroke-miterlimit="10" x1="17.844" y1="26.381" x2="28.344" y2="26.381"/>
		
			<line fill="#FFFFFF" stroke="#ED6926" stroke-width="0.5" stroke-miterlimit="10" x1="17.863" y1="27.603" x2="28.363" y2="27.603"/>
	</g>
</g>
</svg>
