<?xml version="1.0" encoding="utf-8"?>
<!-- Generator: Adobe Illustrator 21.1.0, SVG Export Plug-In . SVG Version: 6.00 Build 0)  -->
<svg version="1.1"
	 id="Capa_1" inkscape:version="0.91 r13725" sodipodi:docname="aus.svg" xmlns:cc="http://creativecommons.org/ns#" xmlns:dc="http://purl.org/dc/elements/1.1/" xmlns:inkscape="http://www.inkscape.org/namespaces/inkscape" xmlns:rdf="http://www.w3.org/1999/02/22-rdf-syntax-ns#" xmlns:sodipodi="http://sodipodi.sourceforge.net/DTD/sodipodi-0.dtd" xmlns:svg="http://www.w3.org/2000/svg"
	 xmlns="http://www.w3.org/2000/svg" xmlns:xlink="http://www.w3.org/1999/xlink" x="0px" y="0px" viewBox="0 0 45.4 45.4"
	 style="enable-background:new 0 0 45.4 45.4;" xml:space="preserve">
<style type="text/css">
	.st0{fill:#EC6927;}
	.st1{fill:#FFFFFF;}
</style>
<sodipodi:namedview  bordercolor="#666666" borderopacity="1" gridtolerance="10" guidetolerance="10" id="namedview45" inkscape:current-layer="g3" inkscape:cx="25.91142" inkscape:cy="22.286877" inkscape:pageopacity="0" inkscape:pageshadow="2" inkscape:window-height="1053" inkscape:window-maximized="1" inkscape:window-width="1920" inkscape:window-x="0" inkscape:window-y="27" inkscape:zoom="7.3588746" objecttolerance="10" pagecolor="#ffffff" showgrid="false">
	</sodipodi:namedview>
<circle id="circle5" class="st0" cx="22.7" cy="22.7" r="22.7"/>
<path class="st1" d="M7.5,35.9c0.7-2.6,2.8-4,4.9-5.4c2-1.3,4.2-2.3,6.6-2.9c0.2-0.1,0.5-0.2,0.5-0.4c0.2-0.5,0.3-1.1,0.3-1.6
	c0-0.1-0.1-0.3-0.2-0.4c-1.2-1.4-2-2.9-2.4-4.6c0-0.1-0.2-0.2-0.3-0.3c-0.1-0.1-0.3-0.2-0.5-0.3c-0.9-0.9-1-2.7-0.3-3.7
	c0.1-0.2,0.1-0.4,0.1-0.7c-0.1-1.3-0.2-2.6,0.1-3.8c0.6-2.8,2.3-4.4,5.1-4.7c1-0.1,2.1-0.1,3.2,0.1c2.7,0.4,4.3,2.1,4.8,4.8
	c0.2,1.2,0.2,2.4,0,3.6c0,0.3,0,0.6,0.2,0.8c0.7,0.9,0.5,3.1-0.4,3.7c-0.6,0.4-0.7,0.9-0.9,1.4c-0.4,1.4-1.2,2.6-2.1,3.7
	c-0.2,0.3-0.4,0.6-0.3,0.9c0,0.2,0,0.3,0.1,0.5c0.1,0.7,0.4,1.1,1.2,1.3c3.5,1,6.6,2.6,9.3,5.2c0.8,0.8,1.4,1.8,1.7,2.9
	c0,0.2,0,0.4,0,0.5c-10.2,0-20.4,0-30.7,0C7.5,36.3,7.5,36.1,7.5,35.9z"/>
<g>
	<path class="st0" d="M23.2,10.3c0.3,0,0.5,0.1,0.8,0.1c0.7,0.1,1.3,0.3,1.9,0.7c0.4,0.2,0.7,0.5,1,0.9c0.4,0.6,0.6,1.2,0.7,2
		c0,0.6-0.1,1.2-0.4,1.8c-0.2,0.3-0.5,0.7-0.8,0.9c-0.5,0.5-1.1,0.9-1.6,1.3c-0.4,0.3-0.7,0.7-0.9,1.3c-0.1,0.2-0.2,0.4-0.3,0.6
		c-0.2,0.2-0.4,0.3-0.7,0.3c-0.3,0-0.6,0-0.9-0.2c-0.4-0.3-0.6-0.7-0.6-1.2c0-0.6,0.3-1.1,0.6-1.5c0.4-0.5,1-0.9,1.5-1.3
		c0.4-0.3,0.7-0.6,1-1c0.4-0.6,0.3-1.6-0.4-2.1c-0.2-0.2-0.5-0.3-0.8-0.3c-0.4-0.1-0.9-0.1-1.3,0.1c-0.5,0.1-0.8,0.5-1,0.9
		c-0.1,0.2-0.2,0.5-0.4,0.7c-0.1,0.2-0.3,0.4-0.5,0.6c-0.3,0.2-0.7,0.2-1.1,0.2c-0.2,0-0.4-0.1-0.6-0.3c-0.3-0.2-0.3-0.5-0.3-0.9
		c0-0.6,0.2-1.1,0.5-1.5c0.5-0.8,1.3-1.3,2.1-1.6c0.5-0.2,1-0.3,1.5-0.3c0,0,0,0,0.1,0C22.6,10.3,22.9,10.3,23.2,10.3z"/>
	<path class="st0" d="M22.6,21.4c0.9,0,1.6,0.7,1.6,1.6c0,0.9-0.7,1.6-1.6,1.6c-0.9,0-1.6-0.7-1.6-1.6C21,22.1,21.8,21.4,22.6,21.4z
		"/>
</g>
</svg>
