<?xml version="1.0" encoding="UTF-8" standalone="no"?>
<!-- Generator: Adobe Illustrator 21.1.0, SVG Export Plug-In . SVG Version: 6.00 Build 0)  -->

<svg
   xmlns:dc="http://purl.org/dc/elements/1.1/"
   xmlns:cc="http://creativecommons.org/ns#"
   xmlns:rdf="http://www.w3.org/1999/02/22-rdf-syntax-ns#"
   xmlns:svg="http://www.w3.org/2000/svg"
   xmlns="http://www.w3.org/2000/svg"
   xmlns:sodipodi="http://sodipodi.sourceforge.net/DTD/sodipodi-0.dtd"
   xmlns:inkscape="http://www.inkscape.org/namespaces/inkscape"
   version="1.1"
   id="Capa_1"
   x="0px"
   y="0px"
   viewBox="0 0 45.4 45.4"
   style="enable-background:new 0 0 45.4 45.4;"
   xml:space="preserve"
   sodipodi:docname="ctr.svg"
   inkscape:version="0.92.2 (5c3e80d, 2017-08-06)"><metadata
     id="metadata92"><rdf:RDF><cc:Work
         rdf:about=""><dc:format>image/svg+xml</dc:format><dc:type
           rdf:resource="http://purl.org/dc/dcmitype/StillImage" /></cc:Work></rdf:RDF></metadata><defs
     id="defs90" /><sodipodi:namedview
     pagecolor="#ffffff"
     bordercolor="#666666"
     borderopacity="1"
     objecttolerance="10"
     gridtolerance="10"
     guidetolerance="10"
     inkscape:pageopacity="0"
     inkscape:pageshadow="2"
     inkscape:window-width="1920"
     inkscape:window-height="1053"
     id="namedview88"
     showgrid="false"
     inkscape:zoom="18.942731"
     inkscape:cx="22.700001"
     inkscape:cy="22.700001"
     inkscape:window-x="0"
     inkscape:window-y="27"
     inkscape:window-maximized="1"
     inkscape:current-layer="Capa_1" /><style
     type="text/css"
     id="style79">
	.st0{fill:#EC6927;}
	.st1{fill:#0A090A;}
</style><path
     class="st0"
     d="M45.4,22.7c0,12.5-10.2,22.7-22.7,22.7S0,35.2,0,22.7C0,10.2,10.2,0,22.7,0S45.4,10.2,45.4,22.7z"
     id="path81" /><path
     class="st1"
     d="M26.2,5.4c1,0.5,1.8,1.2,2.5,2c1,1.3,1.5,2.7,1.6,4.3c0,0.2,0,0.3,0.3,0.4c0.7,0.1,1.1,0.5,1.1,1.2  c0,0.6-0.5,1-1.2,1c-5,0-9.9,0-14.9,0c-0.2,0-0.5,0-0.7,0c-0.6,0-1.1-0.5-1.1-1.1c0-0.6,0.4-1.1,1-1.1c0.4,0,0.4-0.1,0.4-0.5  C15.4,9,16.7,7,18.9,5.6c0.3-0.2,0.4-0.2,0.5,0.2c0.1,1,0.3,1.9,0.5,2.9c0.1,0.5,0.3,0.7,0.7,0.7C21,9.4,21.2,9,21.1,8.5  c-0.2-1.2-0.4-2.4-0.7-3.7c0-0.2,0-0.3,0.1-0.4C20.9,4.2,21.2,4,21.6,4c0.7,0,1.5,0,2.2,0c0.3,0,0.5,0.1,0.8,0.2  c0.3,0.2,0.5,0.4,0.4,0.9c-0.2,1.1-0.4,2.3-0.6,3.4c-0.1,0.4,0.1,0.8,0.4,0.9c0.3,0.1,0.6-0.2,0.7-0.7C25.8,7.7,26,6.6,26.2,5.4z"
     id="path83"
     style="fill:#ffffff" /><path
     class="st1"
     d="M37.4,32.6c-0.2-1.8-0.8-3.4-2.2-4.5c-0.7-0.6-1.5-1.1-2.3-1.6c-1.2-0.7-2.5-1.2-3.7-1.8  c-1-0.4-1.8-1.1-2.1-2.2c-0.1-0.4-0.1-0.7,0-1.1c0.2-0.7,3.8-5.9,1.6-5.9c-4,0-8,0-11.9,0c-0.6,0-0.7,0.1-0.7,0.7  c0,0.1,0,0.3,0.1,0.4c0.2,0.9,0.5,1.8,0.9,2.6c0.4,0.8,1,1.5,1.2,2.4c0.1,0.5,0.1,0.9-0.1,1.4c-0.2,0.5-0.5,0.9-1,1.2  c-0.4,0.3-0.8,0.5-1.3,0.6c-1.7,0.7-3.3,1.5-4.8,2.5c-1.1,0.7-2,1.6-2.6,2.9c-0.6,1.5-0.7,3.1-0.6,4.7c0,0.8,0.4,1.1,1.1,1.4  c4,1.2,8,1.8,12.2,2c3.8,0.1,7.6-0.2,11.3-1c1.3-0.3,2.7-0.6,4-1.1c0.7-0.2,0.8-0.4,0.8-1.1C37.5,34.3,37.5,33.4,37.4,32.6z   M21.8,25.3H24c0,0,0.5-0.1,0.3,0.5c-0.2,0.6-0.5,1.5-0.5,1.5c-0.1,0.2-0.3,0.3-0.5,0.3c-0.2,0-0.4,0-0.6,0c-0.2,0-0.3,0-0.5-0.1  c-0.1-0.1-0.2-0.3-0.3-0.5c-0.2-0.7-0.4-1.3-0.4-1.3S21.3,25.3,21.8,25.3z M24.9,35.2c-0.3,0.3-1.8,1.5-1.8,1.5s-0.1,0.1-0.3,0.1v0  c0,0,0,0,0,0c0,0,0,0,0,0v0c-0.1,0-0.3-0.1-0.3-0.1s-1.4-1.2-1.8-1.5c-0.3-0.3-0.2-1-0.2-1s1.2-4.4,1.3-4.9c0.1-0.5,0.5-0.5,0.5-0.5  h0.3h0h0.3c0,0,0.4,0,0.5,0.5c0.1,0.5,1.3,4.9,1.3,4.9S25.2,34.9,24.9,35.2z"
     id="path85"
     style="fill:#ffffff" /></svg>