<?xml version="1.0" encoding="UTF-8" standalone="no"?>
<!-- Generator: Adobe Illustrator 16.0.0, SVG Export Plug-In . SVG Version: 6.00 Build 0)  -->

<svg
   xmlns:dc="http://purl.org/dc/elements/1.1/"
   xmlns:cc="http://creativecommons.org/ns#"
   xmlns:rdf="http://www.w3.org/1999/02/22-rdf-syntax-ns#"
   xmlns:svg="http://www.w3.org/2000/svg"
   xmlns="http://www.w3.org/2000/svg"
   xmlns:sodipodi="http://sodipodi.sourceforge.net/DTD/sodipodi-0.dtd"
   xmlns:inkscape="http://www.inkscape.org/namespaces/inkscape"
   version="1.1"
   id="Capa_1"
   x="0px"
   y="0px"
   width="45.354px"
   height="45.354px"
   viewBox="0 0 45.354 45.354"
   enable-background="new 0 0 45.354 45.354"
   xml:space="preserve"
   inkscape:version="0.91 r13725"
   sodipodi:docname="emp.svg"><metadata
     id="metadata49"><rdf:RDF><cc:Work
         rdf:about=""><dc:format>image/svg+xml</dc:format><dc:type
           rdf:resource="http://purl.org/dc/dcmitype/StillImage" /><dc:title /></cc:Work></rdf:RDF></metadata><defs
     id="defs47" /><sodipodi:namedview
     pagecolor="#ffffff"
     bordercolor="#666666"
     borderopacity="1"
     objecttolerance="10"
     gridtolerance="10"
     guidetolerance="10"
     inkscape:pageopacity="0"
     inkscape:pageshadow="2"
     inkscape:window-width="1366"
     inkscape:window-height="741"
     id="namedview45"
     showgrid="false"
     inkscape:zoom="10.40702"
     inkscape:cx="19.741581"
     inkscape:cy="21.287259"
     inkscape:window-x="0"
     inkscape:window-y="27"
     inkscape:window-maximized="1"
     inkscape:current-layer="g3" /><g
     id="g3"><circle
       cx="22.677"
       cy="22.678"
       r="22.677"
       id="circle5"
       fill="#EC6927" /><path
       style="fill:#ffffff"
       d="m 5.6928192,31.289009 0,-4.87412 4.8741198,0 4.874125,0 0,4.87412 0,4.874125 -4.874125,0 -4.8741198,0 z m 7.7303588,3.626437 0.809105,-7.5e-5 0,-3.645843 0,-3.645843 -3.665344,0 -3.6653386,0 0,3.671743 0,3.671744 2.8562384,-0.02583 c 1.5709262,-0.01418 3.2203312,-0.02586 3.6653392,-0.0259 z m 4.513436,-3.626437 0,-4.87412 4.854624,0 4.854629,0 0,4.87412 0,4.874125 -4.854629,0 -4.854624,0 z m 8.500469,2.346006 c 0,-0.725635 0.01165,-2.375038 0.0259,-3.66534 l 0.0259,-2.346005 -3.69123,0 -3.691229,0 0,3.639347 c 0,2.001636 0.01168,3.65104 0.02601,3.665338 0.01429,0.01429 1.663698,0.02601 3.66534,0.02601 l 3.639342,0 0,-1.319334 z m 3.704334,-2.346006 0,-4.87412 4.874124,0 4.874121,0 0,4.87412 0,4.874125 -4.874121,0 -4.874124,0 z m 4.211242,3.619347 c 0.825675,-0.0043 1.343309,-0.01865 1.150294,-0.032 -0.193017,-0.01332 -0.310645,-0.02758 -0.261401,-0.03161 0.126722,-0.01043 3.319463,-3.201385 3.329811,-3.327952 0.0041,-0.05021 0.01828,0.0754 0.03155,0.27913 0.01321,0.203738 0.02747,-0.348987 0.03165,-1.228277 0.0042,-0.87929 0.01908,-1.901396 0.03311,-2.27134 l 0.02551,-0.67263 -3.671476,0 -3.671476,0 0,3.671425 0,3.67143 0.750613,-0.02522 c 0.412839,-0.01386 1.42617,-0.02869 2.251844,-0.03297 z m -16.416045,-21.946047 0,-4.8741203 4.854624,0 4.854629,0 0,4.8741203 0,4.874125 -4.854629,0 -4.854624,0 z m 8.539463,0 0,-3.6653389 -3.684839,0 -3.684835,0 0,3.6653389 0,3.665344 3.684835,0 3.684839,0 z"
       id="path4169"
       inkscape:connector-curvature="0"
       sodipodi:nodetypes="cccccccccccccccccccccccccccccscccscsccccccccccccccccccscccccccccccccccccccccccccc" /><rect
       style="opacity:1;fill:#ffffff;fill-opacity:1;stroke:#ffffff;stroke-width:0.19510794;stroke-miterlimit:4;stroke-dasharray:none;stroke-opacity:1"
       id="rect4135"
       width="24.214863"
       height="0.0004412618"
       x="10.473478"
       y="22.004154" /><rect
       style="opacity:1;fill:#ffffff;fill-opacity:1;stroke:#ffffff;stroke-width:0.38607433;stroke-miterlimit:4;stroke-dasharray:none;stroke-opacity:1"
       id="rect4137"
       width="0.0016546797"
       height="7.784862"
       x="22.772263"
       y="18.352167" /><rect
       style="opacity:1;fill:#ffffff;fill-opacity:1;stroke:#ffffff;stroke-width:0.3843258;stroke-miterlimit:4;stroke-dasharray:none;stroke-opacity:1"
       id="rect4137-9"
       width="0.0034032171"
       height="3.7508733"
       x="10.568088"
       y="22.242897" /><rect
       style="opacity:1;fill:#ffffff;fill-opacity:1;stroke:#ffffff;stroke-width:0.3843258;stroke-miterlimit:4;stroke-dasharray:none;stroke-opacity:1"
       id="rect4137-8"
       width="0.0034032171"
       height="3.7508733"
       x="34.590336"
       y="22.242897" /></g></svg>