<?xml version="1.0" encoding="utf-8"?>
<!-- Generator: Adobe Illustrator 16.0.0, SVG Export Plug-In . SVG Version: 6.00 Build 0)  -->
<!DOCTYPE svg PUBLIC "-//W3C//DTD SVG 1.1//EN" "http://www.w3.org/Graphics/SVG/1.1/DTD/svg11.dtd">
<svg version="1.1" id="Capa_1" xmlns="http://www.w3.org/2000/svg" xmlns:xlink="http://www.w3.org/1999/xlink" x="0px" y="0px"
	 width="45.354px" height="45.354px" viewBox="0 0 45.354 45.354" enable-background="new 0 0 45.354 45.354" xml:space="preserve">
<g>
	<path fill="#ED6926" d="M45.354,22.68c0,12.522-10.152,22.675-22.679,22.675C10.152,45.354,0,35.202,0,22.68
		C0,10.15,10.152,0,22.676,0C35.202,0,45.354,10.15,45.354,22.68z"/>
	<path fill="#BFBEBE" stroke="#000000" stroke-width="0.5" stroke-miterlimit="10" d="M51.493,31.453"/>
	<g>
		<path fill="#FFFFFF" stroke="#ED6926" stroke-width="0.5" stroke-miterlimit="10" d="M37.723,19.212
			c-0.524-7.699-7.051-13.789-15.046-13.789c-8.061,0-14.626,6.191-15.055,13.979c-0.016,0.268-0.041,0.532-0.041,0.804
			c0,0.937,0.098,1.849,0.269,2.737c3.548,0.693,9.087,1.143,15.329,1.143c5.668,0,10.75-0.371,14.297-0.957
			c0.193-0.945,0.298-1.922,0.298-2.923C37.773,19.87,37.745,19.541,37.723,19.212z"/>
		<g>
			<path fill="#FFFFFF" stroke="#ED6926" stroke-width="0.5" stroke-miterlimit="10" d="M26.556,18.737h-7.758
				c0,0,1.573-4.85,1.573-6.72c0-1.508-1.573-6.791-1.573-6.791h7.758c0,0-1.152,5.266-1.152,6.791
				C25.403,13.87,26.556,18.737,26.556,18.737z"/>
			<path fill="#FFFFFF" stroke="#ED6926" stroke-width="0.5" stroke-miterlimit="10" d="M37.864,21.53l-0.235,1.598
				c0,0-4.962,0.515-10.919,0.807v-5.197h-7.758v5.324c-5.967-0.207-10.949-1.119-10.949-1.119l-0.27-1.951l-1.856,2.411
				c0,0,2.513,3.668,16.801,4.035c14.287,0.368,16.8-4.644,16.8-4.644L37.864,21.53z"/>
			<path fill="#FFFFFF" stroke="#ED6926" stroke-width="0.5" stroke-miterlimit="10" d="M9.497,28.422v5.543
				c0,0,2.375,2.673,5.424,2.831c3.049,0.157,4.715-1.966,7.16-1.887c2.446,0.078,4.111,2.083,7.23,2.004
				c3.119-0.078,6.133-2.318,6.133-2.318v-6.173c0,0-10.705,0.943-13.186,0.904C19.776,29.286,9.497,28.422,9.497,28.422z"/>
			
				<rect x="8.082" y="29.326" fill="#FFFFFF" stroke="#ED6926" stroke-width="0.5" stroke-miterlimit="10" width="1.415" height="3.343"/>
			
				<rect x="35.444" y="29.326" fill="#FFFFFF" stroke="#ED6926" stroke-width="0.5" stroke-miterlimit="10" width="1.416" height="3.343"/>
		</g>
	</g>
</g>
</svg>
