<?xml version="1.0" encoding="utf-8"?>
<!-- Generator: Adobe Illustrator 21.1.0, SVG Export Plug-In . SVG Version: 6.00 Build 0)  -->
<svg version="1.1" id="Capa_1" xmlns="http://www.w3.org/2000/svg" xmlns:xlink="http://www.w3.org/1999/xlink" x="0px" y="0px"
	 viewBox="0 0 45.4 45.4" style="enable-background:new 0 0 45.4 45.4;" xml:space="preserve">
<style type="text/css">
	.st0{fill:#ED6926;}
	.st1{fill:#FAFAFA;}
</style>
<path class="st0" d="M45.4,22.8c0,12.5-10.2,22.7-22.7,22.7c-12.5,0-22.7-10.2-22.7-22.7c0-12.5,10.2-22.7,22.7-22.7
	C35.3,0.1,45.4,10.2,45.4,22.8z"/>
<path class="st1" d="M11.4,7.5c0,8.8,0,17.7,0,26.6c8.9,0,17.7,0,26.6,0c0,0.6,0,1.2,0,1.8c-9.4,0-18.9,0-28.3,0
	c0-9.4,0-18.9,0-28.3C10.2,7.5,10.8,7.5,11.4,7.5z"/>
<path class="st1" d="M34.4,9.2c0,2.4-0.1,4.7-0.1,7.1c-0.8-0.5-1.5-0.9-2.3-1.4c-0.1,0.1-0.1,0.2-0.2,0.3c-0.7,1.2-1.5,2.4-2.2,3.7
	c-0.1,0.2-0.2,0.2-0.4,0.2c-2.2-0.6-4.5-1.1-6.7-1.7c-0.2-0.1-0.3,0-0.5,0.2c-2.1,2.1-4.2,4.2-6.3,6.3c-0.1,0.1-0.1,0.2-0.2,0.3
	c-0.5-0.5-0.9-0.9-1.3-1.3c0,0,0.1-0.1,0.2-0.2c2.3-2.3,4.7-4.7,7-7c0.1-0.2,0.3-0.2,0.5-0.1c2.1,0.5,4.3,1.1,6.4,1.6
	c0.2,0,0.3,0,0.4-0.2c0.5-0.9,1.1-1.9,1.7-2.8c-0.8-0.5-1.5-0.9-2.3-1.4C30.3,11.5,32.4,10.4,34.4,9.2z"/>
<path class="st1" d="M34.4,32.3c-1.2,0-2.4,0-3.5,0c0-0.1,0-0.2,0-0.3c0-3.8,0-7.6,0-11.3c0-0.2,0.1-0.4,0.2-0.5
	c0.5-0.9,1.1-1.8,1.6-2.7c0.6,0.3,1.1,0.7,1.7,1c0.1,0,0.1,0.2,0.1,0.3c0,3,0,6,0,9c0,1.4,0,2.8,0,4.2C34.4,32,34.4,32.1,34.4,32.3z
	"/>
<path class="st1" d="M23.8,32.3c-1.2,0-2.3,0-3.5,0c0-0.1,0-0.2,0-0.3c0-3.3,0-6.5,0-9.8c0-0.2,0.1-0.3,0.2-0.5
	c0.7-0.7,1.5-1.5,2.2-2.2c0.1-0.1,0.3-0.2,0.5-0.1c0.2,0.1,0.5,0.1,0.7,0.2C23.8,23.8,23.8,28,23.8,32.3z"/>
<path class="st1" d="M29.1,20.8c0,3.8,0,7.6,0,11.4c-1.2,0-2.3,0-3.5,0c0-4.1,0-8.2,0-12.3C26.8,20.2,28,20.5,29.1,20.8z"/>
<path class="st1" d="M15,32.3c0-2.1,0-4.2,0-6.3c0.2,0.3,0.4,0.5,0.6,0.7c1-1,2-2,2.9-3c0,2.9,0,5.7,0,8.6
	C17.3,32.3,16.2,32.3,15,32.3z"/>
</svg>
