<?xml version="1.0" encoding="utf-8"?>
<!-- Generator: Adobe Illustrator 16.0.0, SVG Export Plug-In . SVG Version: 6.00 Build 0)  -->
<!DOCTYPE svg PUBLIC "-//W3C//DTD SVG 1.1//EN" "http://www.w3.org/Graphics/SVG/1.1/DTD/svg11.dtd">
<svg version="1.1" id="Capa_1" xmlns="http://www.w3.org/2000/svg" xmlns:xlink="http://www.w3.org/1999/xlink" x="0px" y="0px"
	 width="45.354px" height="45.354px" viewBox="0 0 45.354 45.354" enable-background="new 0 0 45.354 45.354" xml:space="preserve">
<g>
	<circle fill="#EC6927" cx="22.677" cy="22.678" r="22.677"/>
	<g>
		<g>
			
				<rect x="11.416" y="12.709" fill="#FFFFFF" stroke="#EC6927" stroke-width="0.75" stroke-miterlimit="10" width="18.937" height="22.188"/>
			
				<rect x="14.478" y="17.865" fill="#FFFFFF" stroke="#EC6927" stroke-width="0.75" stroke-miterlimit="10" width="3.875" height="3.563"/>
			
				<rect x="14.478" y="23.24" fill="#FFFFFF" stroke="#EC6927" stroke-width="0.75" stroke-miterlimit="10" width="3.875" height="3.563"/>
			
				<rect x="14.478" y="28.49" fill="#FFFFFF" stroke="#EC6927" stroke-width="0.75" stroke-miterlimit="10" width="3.875" height="3.563"/>
			<polyline fill="#FFFFFF" stroke="#62B22F" stroke-width="0.75" stroke-miterlimit="10" points="15.103,19.646 16.416,20.678 
				20.478,16.928 			"/>
		</g>
		<g>
			
				<rect x="31.615" y="17.022" transform="matrix(0.9998 0.0177 -0.0177 0.9998 0.4512 -0.5856)" fill="#FFFFFF" stroke="#EC6927" stroke-width="0.25" stroke-miterlimit="10" width="3.249" height="16.25"/>
			<path fill="#FFFFFF" stroke="#EC6927" stroke-width="0.25" stroke-miterlimit="10" d="M31.477,33.007c0,0-0.099,2.03,1.59,1.996
				c1.688-0.032,1.659-1.94,1.659-1.94"/>
			
				<rect x="31.477" y="32.801" transform="matrix(0.9998 0.0177 -0.0177 0.9998 0.5911 -0.5819)" fill="#FFFFFF" stroke="#EC6927" stroke-width="0.25" stroke-miterlimit="10" width="3.249" height="0.469"/>
			
				<rect x="31.494" y="31.864" transform="matrix(0.9998 0.0177 -0.0177 0.9998 0.5745 -0.5823)" fill="#FFFFFF" stroke="#EC6927" stroke-width="0.25" stroke-miterlimit="10" width="3.249" height="0.468"/>
			
				<rect x="31.485" y="32.331" transform="matrix(0.9998 0.0174 -0.0174 0.9998 0.5725 -0.572)" fill="#FFFFFF" stroke="#EC6927" stroke-width="0.25" stroke-miterlimit="10" width="3.25" height="0.47"/>
			<polygon fill="#FFFFFF" stroke="#EC6927" stroke-width="0.25" stroke-miterlimit="10" points="31.757,16.994 33.458,12.602 
				35.006,17.051 34.494,17.775 33.88,17.076 33.369,17.757 32.82,16.935 32.056,17.733 			"/>
			<polygon fill="#FFFFFF" stroke="#EC6927" stroke-width="0.25" stroke-miterlimit="10" points="32.932,13.959 33.458,12.602 
				33.938,13.975 33.78,14.199 33.587,13.985 33.431,14.195 33.261,13.939 33.025,14.188 			"/>
		</g>
	</g>
</g>
</svg>
