<?xml version="1.0" encoding="utf-8"?>
<!-- Generator: Adobe Illustrator 16.0.0, SVG Export Plug-In . SVG Version: 6.00 Build 0)  -->
<!DOCTYPE svg PUBLIC "-//W3C//DTD SVG 1.1//EN" "http://www.w3.org/Graphics/SVG/1.1/DTD/svg11.dtd">
<svg version="1.1" id="Capa_1" xmlns="http://www.w3.org/2000/svg" xmlns:xlink="http://www.w3.org/1999/xlink" x="0px" y="0px"
	 width="45.354px" height="45.354px" viewBox="0 0 45.354 45.354" enable-background="new 0 0 45.354 45.354" xml:space="preserve">
<g>
	<circle fill="#EC6927" cx="22.677" cy="22.678" r="22.677"/>
	<circle fill="#FFFFFF" stroke="#EC6925" stroke-width="0.25" stroke-miterlimit="10" cx="17.32" cy="9.501" r="3.164"/>
	<path fill="#FFFFFF" stroke="#EC6925" stroke-width="0.25" stroke-miterlimit="10" d="M26.125,25.965
		c0-0.299-0.105-0.57-0.277-0.788c-0.206-0.302-0.506-0.496-0.846-0.496c-0.025,0-0.047,0.008-0.071,0.009
		c-0.03-0.002-0.059-0.009-0.09-0.009h-4.415c0.037-0.193,0.059-0.393,0.059-0.596v-7.521c0-1.748-1.416-3.164-3.164-3.164
		s-2.064,1.539-2.064,3.286l-0.091,7.72c0,1.748,0.407,2.844,2.155,2.844c0.01,0,0.02-0.002,0.03-0.002
		c0.005,0,0.011,0.002,0.016,0.002h6.512v5.503c0,0.785,0.503,1.422,1.124,1.422c0.62,0,1.123-0.637,1.123-1.422v-6.649
		c0-0.027-0.005-0.051-0.006-0.077C26.119,26.005,26.125,25.986,26.125,25.965z"/>
	<path fill="#FFFFFF" stroke="#EC6925" stroke-width="0.25" stroke-miterlimit="10" d="M22.823,20.875h-4.265v-4.677
		c0-0.684-0.555-1.238-1.238-1.238s-1.238,0.555-1.238,1.238V21.7c0,0.071,0,0.342,0,0.413c0,0.684,0.555,0.872,1.238,0.872
		l5.273-0.092c0.684,0,1.468-0.096,1.468-0.78C24.062,21.429,23.508,20.875,22.823,20.875z"/>
	<path fill="#FFFFFF" stroke="#EC6925" stroke-width="0.25" stroke-miterlimit="10" d="M14.556,22.28
		c0,0.389-0.315,0.704-0.704,0.704l0,0c-0.39,0-0.705-0.315-0.705-0.704v-5.7c0-0.389,0.315-0.704,0.705-0.704l0,0
		c0.389,0,0.704,0.315,0.704,0.704V22.28z"/>
	<path fill="#FFFFFF" stroke="#EC6925" stroke-width="0.25" stroke-miterlimit="10" d="M14.156,28.716
		c0,0.508,0.41,0.918,0.917,0.918h6.695c0.507,0,0.917-0.41,0.917-0.918l0,0c0-0.506-0.41-0.917-0.917-0.917h-6.695
		C14.566,27.799,14.156,28.21,14.156,28.716L14.156,28.716z"/>
	<path fill="#FFFFFF" stroke="#EC6925" stroke-width="0.25" stroke-miterlimit="10" d="M14.176,28.476c0,0-0.754-0.951-0.875-1.502
		s-0.007-4.266-0.007-4.266l0.558,0.276c0,0-0.121,3.439,0,3.99s0.704,0.986,0.704,0.986l-0.38,0.563"/>
	
		<rect x="17.794" y="29.634" fill="#FFFFFF" stroke="#EC6925" stroke-width="0.25" stroke-miterlimit="10" width="0.917" height="0.832"/>
	
		<rect x="17.594" y="30.466" fill="#FFFFFF" stroke="#EC6925" stroke-width="0.25" stroke-miterlimit="10" width="1.318" height="1.155"/>
	<polygon fill="#FFFFFF" stroke="#EC6925" stroke-width="0.25" stroke-miterlimit="10" points="17.594,31.622 14.556,33 
		14.556,33.65 15.654,33.65 15.715,33 18.039,31.622 	"/>
	<polygon fill="#FFFFFF" stroke="#EC6925" stroke-width="0.25" stroke-miterlimit="10" points="19.188,31.622 22.227,33 
		22.227,33.65 21.127,33.65 21.066,33 18.743,31.622 	"/>
	<polygon fill="#FFFFFF" stroke="#EC6925" stroke-width="0.25" stroke-miterlimit="10" points="18.421,31.622 19.101,33.054 
		19.101,33.782 17.74,33.782 17.74,33.054 18.26,31.622 	"/>
	<path fill="#FFFFFF" stroke="#EC6925" stroke-width="0.25" stroke-miterlimit="10" d="M15.654,34.011
		c0,0.199-0.186,0.361-0.413,0.361h-0.367c-0.228,0-0.412-0.162-0.412-0.361l0,0c0-0.199,0.185-0.361,0.412-0.361h0.367
		C15.469,33.65,15.654,33.812,15.654,34.011L15.654,34.011z"/>
	<path fill="#FFFFFF" stroke="#EC6925" stroke-width="0.25" stroke-miterlimit="10" d="M19.17,34.107
		c0,0.197-0.171,0.357-0.382,0.357h-0.665c-0.211,0-0.383-0.16-0.383-0.357l0,0c0-0.198,0.172-0.359,0.383-0.359h0.665
		C18.999,33.748,19.17,33.909,19.17,34.107L19.17,34.107z"/>
	<path fill="#FFFFFF" stroke="#EC6925" stroke-width="0.25" stroke-miterlimit="10" d="M22.334,33.953
		c0,0.168-0.15,0.305-0.336,0.305h-0.534c-0.187,0-0.337-0.137-0.337-0.305l0,0c0-0.167,0.15-0.303,0.337-0.303h0.534
		C22.184,33.65,22.334,33.786,22.334,33.953L22.334,33.953z"/>
	<path fill="#FFFFFF" stroke="#EC6925" stroke-width="0.25" stroke-miterlimit="10" d="M36.168,23.386c0,0.221-0.18,0.401-0.4,0.401
		H24.463c-0.222,0-0.401-0.18-0.401-0.401l0,0c0-0.222,0.18-0.401,0.401-0.401h11.305C35.988,22.984,36.168,23.164,36.168,23.386
		L36.168,23.386z"/>
	<path fill="#FFFFFF" stroke="#EC6925" stroke-width="0.25" stroke-miterlimit="10" d="M34.426,33.449
		c0,0.278-0.227,0.504-0.504,0.504l0,0c-0.279,0-0.506-0.226-0.506-0.504v-9.157c0-0.278,0.227-0.505,0.506-0.505l0,0
		c0.277,0,0.504,0.227,0.504,0.505V33.449z"/>
	<g>
		<path fill="#FFFFFF" stroke="#EC6925" stroke-width="0.25" stroke-miterlimit="10" d="M29.979,22.573
			c0,0.136-0.146,0.246-0.326,0.246h-5.105c-0.18,0-0.324-0.11-0.324-0.246l0,0c0-0.135,0.145-0.245,0.324-0.245h5.105
			C29.832,22.328,29.979,22.438,29.979,22.573L29.979,22.573z"/>
		<path fill="#FFFFFF" stroke="#EC6925" stroke-width="0.25" stroke-miterlimit="10" d="M32.568,17.802
			c0.116,0.07,0.137,0.25,0.045,0.404l-2.598,4.376c-0.09,0.154-0.26,0.223-0.376,0.153l0,0c-0.116-0.069-0.138-0.25-0.046-0.404
			l2.598-4.376C32.283,17.802,32.451,17.733,32.568,17.802L32.568,17.802z"/>
	</g>
</g>
</svg>
