<?xml version="1.0" encoding="utf-8"?>
<!-- Generator: Adobe Illustrator 21.1.0, SVG Export Plug-In . SVG Version: 6.00 Build 0)  -->
<svg version="1.1" id="Capa_1" xmlns="http://www.w3.org/2000/svg" xmlns:xlink="http://www.w3.org/1999/xlink" x="0px" y="0px"
	 viewBox="0 0 28.4 28.4" style="enable-background:new 0 0 28.4 28.4;" xml:space="preserve">
<style type="text/css">
	.st0{fill:#FFFFFF;}
	.st1{fill:#3BA2DC;}
	.st2{fill:#D07400;}
</style>
<g>
	<circle class="st0" cx="14.2" cy="14.2" r="14.2"/>
	<g>
		<g>
			<g>
				<g>
					<g>
						<path class="st1" d="M6.6,20.8c0.2,0.1,0.4,0.1,0.5,0.2c0.2,0.1,0.3,0.1,0.4,0.2c0.1,0.1,0.2,0.2,0.3,0.3
							c0.1,0.1,0.1,0.3,0.1,0.4v0c0,0.2,0,0.4-0.1,0.5c-0.1,0.2-0.2,0.3-0.3,0.4C7.3,23,7.1,23.1,7,23.1c-0.2,0.1-0.4,0.1-0.6,0.1
							c-0.2,0-0.4,0-0.6-0.1S5.4,23,5.3,22.9c-0.2-0.1-0.3-0.2-0.4-0.3c-0.1-0.1-0.2-0.2-0.3-0.3l0.7-0.4c0.1,0.1,0.2,0.2,0.2,0.2
							c0.1,0.1,0.2,0.1,0.2,0.2c0.1,0,0.2,0.1,0.3,0.1c0.1,0,0.2,0,0.3,0c0.1,0,0.2,0,0.2,0c0.1,0,0.1,0,0.2-0.1
							c0.1,0,0.1-0.1,0.2-0.1C7,22.2,7,22.1,7,22c0-0.1,0-0.1,0-0.2c0-0.1-0.1-0.1-0.1-0.2c-0.1,0-0.2-0.1-0.3-0.1
							c-0.1,0-0.3-0.1-0.4-0.1c-0.2-0.1-0.4-0.1-0.6-0.2c-0.2-0.1-0.3-0.1-0.4-0.2c-0.1-0.1-0.2-0.2-0.3-0.3
							c-0.1-0.1-0.1-0.3-0.1-0.5c0-0.2,0-0.4,0.1-0.5c0.1-0.2,0.2-0.3,0.3-0.4c0.1-0.1,0.3-0.2,0.5-0.2C5.8,19,6,19,6.2,19
							c0.2,0,0.4,0,0.6,0.1c0.2,0,0.3,0.1,0.5,0.2c0.1,0.1,0.3,0.2,0.4,0.2c0.1,0.1,0.2,0.2,0.3,0.3l-0.7,0.4
							C7,20,6.8,19.9,6.7,19.8c-0.2-0.1-0.3-0.1-0.5-0.1c-0.1,0-0.2,0-0.3,0c-0.1,0-0.1,0.1-0.2,0.1c0,0-0.1,0.1-0.1,0.1
							c0,0,0,0.1,0,0.1c0,0.1,0,0.1,0.1,0.2c0,0.1,0.1,0.1,0.2,0.2c0.1,0,0.2,0.1,0.3,0.1C6.3,20.7,6.4,20.7,6.6,20.8z"/>
					</g>
				</g>
				<g>
					<g>
						<path class="st1" d="M9.1,19.9v3.3H8.2V19L9.1,19.9z"/>
					</g>
				</g>
				<g>
					<g>
						<path class="st1" d="M13.7,20.9c0,0.1,0,0.1,0,0.2c0,0.3-0.1,0.6-0.2,0.8c-0.1,0.3-0.3,0.5-0.4,0.7c-0.2,0.2-0.4,0.3-0.7,0.4
							c-0.3,0.1-0.5,0.2-0.8,0.2c-0.3,0-0.6-0.1-0.8-0.2c-0.3-0.1-0.5-0.3-0.7-0.4c-0.2-0.2-0.3-0.4-0.5-0.7
							c-0.1-0.3-0.2-0.5-0.2-0.8c0-0.3,0.1-0.6,0.2-0.8c0.1-0.3,0.3-0.5,0.5-0.7c0.2-0.2,0.4-0.3,0.7-0.4C11,19,11.3,19,11.6,19
							c0.4,0,0.7,0.1,1.1,0.3c0.3,0.2,0.6,0.4,0.8,0.7l-0.7,0.4c-0.1-0.2-0.3-0.4-0.5-0.5c-0.2-0.1-0.4-0.2-0.7-0.2
							c-0.2,0-0.3,0-0.5,0.1c-0.2,0.1-0.3,0.2-0.4,0.3c-0.1,0.1-0.2,0.3-0.3,0.4c-0.1,0.2-0.1,0.3-0.1,0.5c0,0.2,0,0.4,0.1,0.5
							c0.1,0.2,0.2,0.3,0.3,0.4c0.1,0.1,0.3,0.2,0.4,0.3c0.2,0.1,0.3,0.1,0.5,0.1c0.1,0,0.3,0,0.4-0.1c0.1,0,0.2-0.1,0.3-0.2
							c0.1-0.1,0.2-0.2,0.3-0.3s0.1-0.2,0.2-0.4H12l-0.8-0.8h2.4C13.6,20.8,13.7,20.9,13.7,20.9z"/>
					</g>
				</g>
				<g>
					<g>
						<path class="st1" d="M16.8,19l0,0.7h-2l0,2.8h2v0.7H14V19H16.8z M16.3,21.6h-0.6L15,20.8h1.3V21.6z"/>
					</g>
				</g>
				<g>
					<path class="st1" d="M22.8,11.8l-1.4-1.4c0.8-1,1-2.4,0.3-3.6c-0.9-1.5-2.8-1.9-4.2-1c-1,0.6-1.5,1.7-1.5,2.8
						c0.2,0.5,0.4,1,0.5,1.5c0.2,0.9,0.1,1.8-0.1,2.6c-0.4,1.5-1.3,2.9-2.8,3.8c-2.9,1.8-6.7,0.8-8.5-2.1C3.6,11.9,4.1,8.8,6,6.8
						l1.4,1.4c-1.3,1.3-1.6,3.4-0.6,5.1c1.2,2,3.7,2.6,5.7,1.4c1.4-0.9,2.2-2.5,2-4.1c-0.2-0.5-0.4-0.9-0.5-1.4
						c-0.2-0.9,0-1.9,0.3-2.7c0.4-1,1.1-1.8,2-2.4c2.4-1.4,5.5-0.7,6.9,1.7C24.5,7.7,24.2,10.2,22.8,11.8z"/>
				</g>
			</g>
		</g>
		<g>
			<g>
				<g>
					<g>
						<path class="st2" d="M19.2,20.8c0.2,0.1,0.4,0.1,0.5,0.2s0.3,0.1,0.4,0.2c0.1,0.1,0.2,0.2,0.3,0.3c0.1,0.1,0.1,0.3,0.1,0.4v0
							c0,0.2,0,0.4-0.1,0.5c-0.1,0.2-0.2,0.3-0.3,0.4c-0.1,0.1-0.3,0.2-0.5,0.3c-0.2,0.1-0.4,0.1-0.6,0.1c-0.2,0-0.4,0-0.6-0.1
							c-0.2,0-0.4-0.1-0.5-0.2c-0.2-0.1-0.3-0.2-0.4-0.3c-0.1-0.1-0.2-0.2-0.3-0.3l0.7-0.4c0.1,0.1,0.2,0.2,0.2,0.2
							c0.1,0.1,0.2,0.1,0.2,0.2c0.1,0,0.2,0.1,0.3,0.1c0.1,0,0.2,0,0.3,0c0.1,0,0.2,0,0.2,0c0.1,0,0.1,0,0.2-0.1
							c0.1,0,0.1-0.1,0.2-0.1c0-0.1,0.1-0.1,0.1-0.2c0-0.1,0-0.1,0-0.2c0-0.1-0.1-0.1-0.1-0.2c-0.1,0-0.2-0.1-0.3-0.1
							c-0.1,0-0.3-0.1-0.4-0.1c-0.2-0.1-0.4-0.1-0.6-0.2c-0.2-0.1-0.3-0.1-0.4-0.2c-0.1-0.1-0.2-0.2-0.3-0.3
							c-0.1-0.1-0.1-0.3-0.1-0.5c0-0.2,0-0.4,0.1-0.5c0.1-0.2,0.2-0.3,0.3-0.4c0.1-0.1,0.3-0.2,0.5-0.2c0.2-0.1,0.4-0.1,0.6-0.1
							c0.2,0,0.4,0,0.6,0.1c0.2,0,0.3,0.1,0.5,0.2c0.1,0.1,0.3,0.2,0.4,0.2c0.1,0.1,0.2,0.2,0.3,0.3l-0.7,0.4
							c-0.2-0.2-0.3-0.3-0.5-0.3c-0.2-0.1-0.3-0.1-0.5-0.1c-0.1,0-0.2,0-0.3,0c-0.1,0-0.1,0.1-0.2,0.1c0,0-0.1,0.1-0.1,0.1
							c0,0,0,0.1,0,0.1c0,0.1,0,0.1,0.1,0.2c0,0.1,0.1,0.1,0.2,0.2c0.1,0,0.2,0.1,0.3,0.1C18.9,20.7,19,20.7,19.2,20.8z"/>
					</g>
				</g>
				<g>
					<g>
						<g>
							<path class="st2" d="M23,22.3c-0.1,0-0.1,0.1-0.2,0.1c-0.1,0-0.2,0-0.2,0c-0.1,0-0.2,0-0.3,0c-0.1,0-0.2-0.1-0.3-0.1
								c-0.1,0-0.2-0.1-0.2-0.2c-0.1-0.1-0.2-0.1-0.2-0.2l-0.7,0.4c0.1,0.1,0.1,0.2,0.3,0.3c0.1,0.1,0.2,0.2,0.4,0.3
								c0.2,0.1,0.3,0.1,0.5,0.2s0.4,0.1,0.6,0.1c0.2,0,0.4,0,0.6-0.1c0.2-0.1,0.3-0.1,0.5-0.3c0,0,0,0,0,0l-0.5-0.6
								C23.1,22.3,23,22.3,23,22.3z"/>
						</g>
						<g>
							<path class="st2" d="M24.1,21.9L24.1,21.9c0-0.2,0-0.3-0.1-0.5c-0.1-0.1-0.2-0.2-0.3-0.3c-0.1-0.1-0.3-0.2-0.4-0.2
								s-0.3-0.1-0.5-0.2c-0.2,0-0.3-0.1-0.4-0.1c-0.1,0-0.2-0.1-0.3-0.1c-0.1,0-0.1-0.1-0.2-0.2c0-0.1-0.1-0.1-0.1-0.2
								c0,0,0-0.1,0-0.1c0,0,0.1-0.1,0.1-0.1c0,0,0.1-0.1,0.2-0.1c0.1,0,0.2,0,0.3,0c0.2,0,0.3,0,0.5,0.1c0.2,0.1,0.3,0.2,0.5,0.3
								l0.7-0.4c-0.1-0.1-0.2-0.2-0.3-0.3c-0.1-0.1-0.2-0.2-0.4-0.2c-0.1-0.1-0.3-0.1-0.5-0.2c-0.2,0-0.4-0.1-0.6-0.1
								c-0.2,0-0.4,0-0.6,0.1c-0.2,0.1-0.3,0.1-0.5,0.2c-0.1,0.1-0.2,0.2-0.3,0.4c-0.1,0.2-0.1,0.3-0.1,0.5c0,0.2,0,0.3,0.1,0.5
								c0.1,0.1,0.2,0.2,0.3,0.3c0.1,0.1,0.3,0.2,0.4,0.2c0.2,0.1,0.4,0.1,0.6,0.2c0.2,0,0.3,0.1,0.4,0.1c0.1,0,0.2,0.1,0.3,0.1
								c0.1,0,0.1,0.1,0.1,0.2c0,0.1,0,0.1,0,0.2c0,0.1,0,0.1-0.1,0.2l0.9,0C24,22.1,24.1,22,24.1,21.9z"/>
						</g>
					</g>
				</g>
				<g>
					<polygon class="st2" points="21.6,10.9 20.7,12.4 22.6,12 					"/>
				</g>
				<g>
					<polygon class="st2" points="19.9,11.8 20,13 18.7,12.5 					"/>
				</g>
				<g>
					<polygon class="st2" points="18.1,11.9 17.9,12.6 17.2,11.9 					"/>
				</g>
				<g>
					<polygon class="st2" points="9.3,7.1 7.4,7.4 8.7,5.5 					"/>
				</g>
				<g>
					<polygon class="st2" points="11.5,6.8 11.7,5.4 10.1,6.1 					"/>
				</g>
				<g>
					<polygon class="st2" points="13.2,7.2 13.6,6.4 12.5,6.4 					"/>
				</g>
			</g>
		</g>
	</g>
</g>
</svg>
