<?xml version="1.0" encoding="UTF-8" standalone="no"?>
<!-- Generator: Adobe Illustrator 21.1.0, SVG Export Plug-In . SVG Version: 6.00 Build 0)  -->

<svg
   xmlns:dc="http://purl.org/dc/elements/1.1/"
   xmlns:cc="http://creativecommons.org/ns#"
   xmlns:rdf="http://www.w3.org/1999/02/22-rdf-syntax-ns#"
   xmlns:svg="http://www.w3.org/2000/svg"
   xmlns="http://www.w3.org/2000/svg"
   xmlns:sodipodi="http://sodipodi.sourceforge.net/DTD/sodipodi-0.dtd"
   xmlns:inkscape="http://www.inkscape.org/namespaces/inkscape"
   version="1.1"
   id="Capa_1"
   x="0px"
   y="0px"
   viewBox="0 0 28.4 28.4"
   style="enable-background:new 0 0 28.4 28.4;"
   xml:space="preserve"
   sodipodi:docname="logo-icon-circle.svg"
   inkscape:version="0.92.3 (2405546, 2018-03-11)"><metadata
   id="metadata93"><rdf:RDF><cc:Work
       rdf:about=""><dc:format>image/svg+xml</dc:format><dc:type
         rdf:resource="http://purl.org/dc/dcmitype/StillImage" /><dc:title /></cc:Work></rdf:RDF></metadata><defs
   id="defs91">
	
	
</defs><sodipodi:namedview
   pagecolor="#ffffff"
   bordercolor="#666666"
   borderopacity="1"
   objecttolerance="10"
   gridtolerance="10"
   guidetolerance="10"
   inkscape:pageopacity="0"
   inkscape:pageshadow="2"
   inkscape:window-width="1920"
   inkscape:window-height="1053"
   id="namedview89"
   showgrid="false"
   inkscape:zoom="23.503832"
   inkscape:cx="11.008142"
   inkscape:cy="11.86431"
   inkscape:window-x="0"
   inkscape:window-y="27"
   inkscape:window-maximized="1"
   inkscape:current-layer="Capa_1" />
<style
   type="text/css"
   id="style2">
	.st0{fill:#FFFFFF;}
	.st1{fill:#3BA2DC;}
	.st2{fill:#D07400;}
</style>
<circle
   style="fill:#fffffe;stroke:none;stroke-opacity:1;fill-opacity:1"
   id="circle4"
   r="14.2"
   cy="14.2"
   cx="14.2"
   class="st0" /><g
   id="g84"
   transform="matrix(1.2249091,0,0,1.2249091,-3.2686581,1.7968873)">
		<g
   id="g36">
			<g
   id="g34">
				<g
   id="g10">
					<g
   id="g8">
						
					</g>
				</g>
				<g
   id="g16">
					<g
   id="g14">
						
					</g>
				</g>
				<g
   id="g22">
					<g
   id="g20">
						
					</g>
				</g>
				<g
   id="g28">
					<g
   id="g26">
						
					</g>
				</g>
				<g
   id="g32">
					<path
   style="fill:#3ba2dc"
   inkscape:connector-curvature="0"
   id="path30"
   d="m 22.8,11.8 -1.4,-1.4 c 0.8,-1 1,-2.4 0.3,-3.6 -0.9,-1.5 -2.8,-1.9 -4.2,-1 -1,0.6 -1.5,1.7 -1.5,2.8 0.2,0.5 0.4,1 0.5,1.5 0.2,0.9 0.1,1.8 -0.1,2.6 -0.4,1.5 -1.3,2.9 -2.8,3.8 C 10.7,18.3 6.9,17.3 5.1,14.4 3.6,11.9 4.1,8.8 6,6.8 l 1.4,1.4 c -1.3,1.3 -1.6,3.4 -0.6,5.1 1.2,2 3.7,2.6 5.7,1.4 1.4,-0.9 2.2,-2.5 2,-4.1 C 14.3,10.1 14.1,9.7 14,9.2 13.8,8.3 14,7.3 14.3,6.5 c 0.4,-1 1.1,-1.8 2,-2.4 2.4,-1.4 5.5,-0.7 6.9,1.7 1.3,1.9 1,4.4 -0.4,6 z"
   class="st1" />
				</g>
			</g>
		</g>
		<g
   id="g82">
			<g
   id="g80">
				<g
   id="g42">
					<g
   id="g40">
						
					</g>
				</g>
				<g
   id="g54">
					<g
   id="g52">
						<g
   id="g46">
							
						</g>
						<g
   id="g50">
							
						</g>
					</g>
				</g>
				<g
   id="g58">
					<polygon
   style="fill:#d07400"
   id="polygon56"
   points="21.6,10.9 20.7,12.4 22.6,12 "
   class="st2" />
				</g>
				<g
   id="g62">
					<polygon
   style="fill:#d07400"
   id="polygon60"
   points="19.9,11.8 20,13 18.7,12.5 "
   class="st2" />
				</g>
				<g
   id="g66">
					<polygon
   style="fill:#d07400"
   id="polygon64"
   points="18.1,11.9 17.9,12.6 17.2,11.9 "
   class="st2" />
				</g>
				<g
   id="g70">
					<polygon
   style="fill:#d07400"
   id="polygon68"
   points="9.3,7.1 7.4,7.4 8.7,5.5 "
   class="st2" />
				</g>
				<g
   id="g74">
					<polygon
   style="fill:#d07400"
   id="polygon72"
   points="11.5,6.8 11.7,5.4 10.1,6.1 "
   class="st2" />
				</g>
				<g
   id="g78">
					<polygon
   style="fill:#d07400"
   id="polygon76"
   points="13.2,7.2 13.6,6.4 12.5,6.4 "
   class="st2" />
				</g>
			</g>
		</g>
	</g>
</svg>