<?xml version="1.0" standalone="no"?>
<!DOCTYPE svg PUBLIC "-//W3C//DTD SVG 20010904//EN"
 "http://www.w3.org/TR/2001/REC-SVG-20010904/DTD/svg10.dtd">
<svg version="1.0" xmlns="http://www.w3.org/2000/svg"
 width="892.000000pt" height="650.000000pt" viewBox="0 0 892.000000 650.000000"
 preserveAspectRatio="xMidYMid meet">

<g transform="translate(0.000000,650.000000) scale(0.100000,-0.100000)"
fill="#000000" stroke="none">
<path d="M2861 6199 c-18 -7 -22 -14 -17 -33 5 -20 0 -28 -29 -46 -33 -21 -37
-21 -54 -6 -26 23 -37 20 -67 -19 -26 -34 -26 -36 -9 -55 17 -19 18 -22 2 -55
-13 -28 -22 -35 -46 -35 -27 0 -29 -3 -36 -46 -7 -49 -2 -60 30 -66 13 -2 22
-15 28 -41 8 -32 6 -39 -13 -55 l-22 -18 21 -42 c24 -47 21 -45 54 -33 21 8
29 5 51 -18 21 -22 26 -34 20 -55 -6 -23 -2 -28 37 -46 40 -18 45 -18 56 -3 7
9 14 20 16 26 2 6 18 7 40 3 27 -5 41 -14 47 -32 10 -26 39 -31 85 -14 22 8
26 15 21 34 -5 20 0 28 30 45 35 21 37 21 56 4 22 -20 40 -12 71 29 18 24 18
27 2 51 -15 23 -15 28 0 56 12 24 22 31 44 31 26 0 29 4 36 46 7 49 2 60 -30
66 -13 2 -22 15 -28 41 -8 32 -6 39 13 55 25 20 23 40 -8 80 -15 19 -22 22
-44 13 -22 -8 -29 -6 -52 18 -21 22 -26 34 -21 54 6 23 2 28 -36 47 -34 18
-44 19 -50 8 -24 -39 -27 -41 -63 -34 -26 5 -40 14 -46 32 -10 26 -44 31 -89
13z m204 -187 c138 -95 98 -301 -67 -342 -81 -21 -173 25 -209 104 -79 175
119 346 276 238z"/>
<path d="M2910 5983 c-28 -10 -69 -56 -80 -89 -15 -45 2 -102 40 -139 27 -26
39 -30 90 -30 51 0 63 4 89 29 74 71 58 177 -36 225 -22 11 -77 14 -103 4z
m91 -94 c33 -33 4 -89 -47 -89 -28 0 -46 23 -46 57 0 49 56 69 93 32z"/>
<path d="M1975 6110 c-11 -4 -31 -20 -45 -35 -22 -24 -25 -35 -25 -106 0 -75
1 -80 33 -111 l32 -33 235 -5 c173 -4 237 -8 247 -18 7 -7 13 -35 13 -63 0
-41 -4 -54 -24 -70 -21 -17 -41 -19 -221 -19 -109 0 -210 4 -223 9 -14 6 -28
19 -32 30 -5 15 -15 21 -37 21 -28 0 -30 -2 -23 -27 3 -16 20 -41 36 -58 l29
-30 233 -3 c219 -2 234 -1 265 18 73 45 84 176 20 241 l-30 29 -219 0 c-269 0
-279 3 -279 90 0 86 13 90 257 90 164 0 202 -3 221 -16 12 -8 22 -22 22 -30 0
-9 11 -14 35 -14 19 0 35 2 35 5 0 25 -35 78 -62 95 -31 18 -49 20 -253 19
-121 0 -229 -4 -240 -9z"/>
<path d="M3510 5855 l0 -265 30 0 30 0 0 100 0 100 231 0 c254 0 280 5 312 59
24 40 24 172 0 212 -33 55 -55 59 -342 59 l-261 0 0 -265z m546 181 c8 -12 14
-44 14 -81 0 -103 10 -100 -264 -103 l-236 -3 0 106 0 106 236 -3 c220 -3 237
-4 250 -22z"/>
<path d="M4330 6098 c-31 -16 -51 -36 -67 -67 -21 -40 -23 -58 -23 -176 0
-118 2 -136 23 -176 16 -31 36 -51 67 -66 41 -21 57 -23 226 -23 170 0 184 1
224 23 30 16 51 37 67 67 21 39 23 57 23 175 0 118 -2 136 -23 175 -16 30 -37
51 -67 67 -40 22 -54 23 -224 23 -169 0 -185 -2 -226 -22z m416 -53 c50 -21
64 -61 64 -190 0 -192 -16 -205 -255 -205 -239 0 -255 13 -255 205 0 126 14
169 62 190 47 20 335 21 384 0z"/>
<path d="M5000 5855 l0 -265 30 0 30 0 0 100 0 100 234 0 c200 0 237 -2 250
-16 12 -12 16 -36 16 -100 l0 -84 30 0 30 0 0 93 c0 68 -4 99 -16 115 -14 20
-14 24 0 44 22 32 22 194 0 226 -34 49 -54 52 -339 52 l-265 0 0 -265z m538
189 c19 -13 22 -24 22 -89 0 -108 6 -106 -271 -103 l-224 3 -3 89 c-2 49 -1
95 2 103 8 21 443 19 474 -3z"/>
<path d="M5690 6090 l0 -29 128 -3 127 -3 3 -232 2 -233 30 0 30 0 2 233 3
232 128 3 127 3 0 29 0 30 -290 0 -290 0 0 -30z"/>
<path d="M6350 5855 l0 -265 300 0 300 0 0 30 0 30 -267 2 -268 3 -3 83 -3 82
236 0 235 0 0 30 0 30 -232 2 -233 3 0 85 0 85 268 3 267 2 0 30 0 30 -300 0
-300 0 0 -265z"/>
<path d="M2875 5308 c-34 -19 -44 -41 -45 -89 0 -32 6 -54 21 -73 l20 -26 155
0 c88 0 164 -4 175 -10 14 -8 19 -21 19 -55 0 -63 -12 -67 -186 -63 -126 3
-147 5 -155 21 -11 19 -49 23 -49 5 1 -18 21 -43 47 -56 14 -8 78 -12 178 -12
152 0 156 1 180 25 21 20 25 34 25 80 0 46 -4 60 -25 80 -24 24 -28 25 -183
25 -172 0 -182 3 -182 55 0 58 5 60 169 63 140 3 151 2 170 -17 12 -12 28 -21
36 -21 23 0 18 28 -10 55 -24 24 -27 25 -182 25 -100 0 -165 -5 -178 -12z"/>
<path d="M3390 5135 c0 -178 1 -185 20 -185 19 0 20 7 20 185 0 178 -1 185
-20 185 -19 0 -20 -7 -20 -185z"/>
<path d="M3608 5305 c-45 -25 -58 -63 -58 -170 0 -170 23 -188 232 -183 l140
3 29 33 c24 27 29 41 29 86 0 65 -1 66 -121 66 -82 0 -89 -2 -89 -20 0 -17 8
-19 83 -22 80 -3 82 -4 85 -29 2 -14 -6 -36 -17 -50 -19 -23 -23 -24 -156 -24
-173 0 -175 1 -175 140 0 133 6 139 145 143 140 5 172 -1 193 -39 20 -33 52
-39 52 -9 0 11 -13 34 -29 52 l-29 33 -144 2 c-113 2 -149 0 -170 -12z"/>
<path d="M4110 5135 l0 -185 205 0 c198 0 205 1 205 20 0 19 -8 20 -182 22
l-183 3 0 60 0 60 158 3 c149 2 157 4 157 22 0 19 -7 20 -160 20 l-161 0 3 58
3 57 183 3 c174 2 182 3 182 22 0 19 -7 20 -205 20 l-205 0 0 -185z"/>
<path d="M4675 5308 c-34 -19 -44 -41 -45 -89 0 -32 6 -54 21 -73 l20 -26 155
0 c88 0 164 -4 175 -10 14 -8 19 -21 19 -55 0 -63 -12 -67 -186 -63 -126 3
-147 5 -155 21 -11 19 -49 23 -49 5 1 -18 21 -43 47 -56 14 -8 78 -12 178 -12
152 0 156 1 180 25 21 20 25 34 25 80 0 46 -4 60 -25 80 -24 24 -28 25 -183
25 -172 0 -182 3 -182 55 0 58 5 60 169 63 140 3 151 2 170 -17 12 -12 28 -21
36 -21 23 0 18 28 -10 55 -24 24 -27 25 -182 25 -100 0 -165 -5 -178 -12z"/>
<path d="M5203 5296 c-25 -21 -28 -31 -28 -81 0 -90 11 -95 201 -95 141 0 156
-2 174 -20 11 -11 20 -31 20 -45 0 -14 -9 -34 -20 -45 -18 -18 -33 -20 -160
-20 -127 0 -142 2 -160 20 -11 11 -29 20 -39 20 -26 0 -17 -34 17 -60 22 -18
40 -20 183 -20 152 0 159 1 186 24 25 21 28 31 28 81 0 50 -3 60 -28 81 -27
23 -33 24 -187 24 -147 0 -160 1 -170 19 -16 30 -12 59 10 81 18 18 33 20 160
20 127 0 142 -2 160 -20 11 -11 29 -20 39 -20 26 0 17 34 -17 60 -22 18 -40
20 -183 20 -152 0 -159 -1 -186 -24z"/>
<path d="M5738 5305 c-45 -25 -58 -63 -58 -170 0 -170 23 -188 232 -183 l140
3 29 33 c28 32 29 34 29 147 0 113 -1 115 -29 147 l-29 33 -144 2 c-113 2
-149 0 -170 -12z m311 -49 c19 -17 21 -30 21 -121 0 -141 1 -140 -177 -140
-171 0 -173 2 -173 137 0 96 9 124 43 138 12 5 77 9 143 7 104 -2 125 -5 143
-21z"/>
<path d="M5800 5135 c0 -87 2 -95 19 -95 14 0 21 8 23 28 3 25 6 27 53 27 47
0 50 -2 53 -27 2 -20 9 -28 22 -28 17 0 19 8 19 77 0 105 -8 113 -111 113
l-78 0 0 -95z m148 28 c3 -22 0 -23 -52 -23 -48 0 -56 3 -56 18 0 28 10 33 60
30 38 -3 45 -6 48 -25z"/>
<path d="M1169 4478 c0 -18 -2 -55 -3 -81 -1 -26 2 -53 6 -60 4 -7 8 30 8 81
0 50 -2 92 -5 92 -3 0 -5 -15 -6 -32z"/>
<path d="M5492 4420 c-1 -59 2 -90 7 -81 5 8 7 29 4 46 -7 41 19 70 48 55 42
-23 14 -108 -30 -92 -8 3 -11 0 -7 -7 10 -16 42 -14 60 5 21 20 20 78 -1 99
-11 11 -26 15 -44 11 -25 -5 -28 -2 -32 27 -2 18 -4 -11 -5 -63z"/>
<path d="M6170 4480 c0 -28 -2 -30 -25 -24 -35 9 -65 -20 -65 -61 0 -50 48
-83 78 -53 9 9 12 9 12 0 0 -7 5 -12 10 -12 6 0 10 37 10 90 0 53 -4 90 -10
90 -5 0 -10 -14 -10 -30z m0 -85 c0 -23 -6 -38 -18 -44 -28 -15 -52 5 -52 44
0 39 24 59 52 44 12 -6 18 -21 18 -44z"/>
<path d="M360 4415 l0 -85 45 0 c25 0 45 5 45 10 0 6 -16 10 -35 10 -33 0 -35
2 -35 34 0 33 2 35 38 39 l37 4 -37 1 c-33 2 -38 5 -38 27 0 22 4 25 35 25 19
0 35 5 35 10 0 6 -20 10 -45 10 l-45 0 0 -85z"/>
<path d="M680 4489 c0 -5 5 -7 10 -4 6 3 10 8 10 11 0 2 -4 4 -10 4 -5 0 -10
-5 -10 -11z"/>
<path d="M5755 4490 c3 -5 8 -10 11 -10 2 0 4 5 4 10 0 6 -5 10 -11 10 -5 0
-7 -4 -4 -10z"/>
<path d="M7650 4490 c0 -5 5 -10 10 -10 6 0 10 5 10 10 0 6 -4 10 -10 10 -5 0
-10 -4 -10 -10z"/>
<path d="M606 4481 c-12 -19 -8 -122 6 -138 6 -7 18 -13 27 -13 14 1 14 2 -1
11 -13 7 -18 23 -18 59 0 38 4 50 18 53 15 4 15 5 0 6 -9 0 -18 9 -20 19 -3
14 -5 15 -12 3z"/>
<path d="M4191 4478 c0 -10 -7 -18 -13 -18 -10 0 -10 -2 -1 -8 6 -4 13 -32 15
-62 3 -50 5 -55 28 -58 l25 -3 -22 16 c-18 12 -23 26 -23 60 0 37 3 44 23 48
22 4 22 4 0 6 -12 0 -24 9 -26 19 -4 16 -5 16 -6 0z"/>
<path d="M5186 4481 c-12 -19 -8 -122 6 -138 6 -7 18 -13 27 -13 14 1 14 2 -1
11 -13 7 -18 23 -18 59 0 38 4 50 18 53 15 4 15 5 0 6 -9 0 -18 9 -20 19 -3
14 -5 15 -12 3z"/>
<path d="M8396 4481 c-12 -19 -8 -122 6 -138 6 -7 18 -13 27 -13 14 1 14 2 -1
11 -13 7 -18 23 -18 59 0 38 4 50 18 53 15 4 15 5 0 6 -9 0 -18 9 -20 19 -3
14 -5 15 -12 3z"/>
<path d="M492 4448 c-20 -20 -14 -35 23 -57 19 -11 35 -24 35 -30 0 -13 -30
-22 -51 -16 -11 4 -19 2 -19 -4 0 -12 39 -15 64 -5 30 11 19 49 -20 67 -30 15
-34 20 -24 32 8 10 21 13 38 8 17 -4 23 -2 18 6 -9 15 -49 14 -64 -1z"/>
<path d="M680 4395 c0 -37 4 -65 10 -65 6 0 10 28 10 65 0 37 -4 65 -10 65 -6
0 -10 -28 -10 -65z"/>
<path d="M741 4398 c-1 -39 3 -68 9 -68 6 0 10 22 10 49 0 95 59 93 61 -3 l1
-51 8 54 c9 58 24 75 51 60 13 -6 19 -25 22 -62 4 -51 4 -51 3 7 -1 66 -20 91
-54 69 -13 -7 -24 -8 -36 -1 -12 7 -26 7 -41 0 -18 -8 -25 -8 -29 1 -2 7 -5
-18 -5 -55z"/>
<path d="M964 4448 c-5 -8 0 -9 16 -5 24 6 50 -7 50 -24 0 -5 -10 -9 -23 -9
-35 0 -59 -22 -55 -51 3 -27 42 -39 62 -19 8 9 6 11 -10 6 -14 -4 -26 -1 -35
10 -11 14 -10 18 6 30 29 21 50 13 50 -18 1 -15 4 -30 8 -34 4 -4 7 17 7 47 0
30 -5 60 -12 67 -15 15 -55 16 -64 0z"/>
<path d="M1096 4444 c-21 -20 -21 -78 0 -98 18 -19 50 -21 60 -5 4 7 0 9 -13
5 -25 -8 -45 15 -45 49 0 34 20 57 45 49 13 -4 17 -2 13 5 -10 16 -42 14 -60
-5z"/>
<path d="M1236 4438 c-45 -64 27 -146 77 -90 10 10 17 32 17 49 0 57 -64 84
-94 41z m74 -43 c0 -23 -6 -38 -18 -44 -28 -15 -52 5 -52 44 0 39 24 59 52 44
12 -6 18 -21 18 -44z"/>
<path d="M1372 4448 c-20 -20 -14 -35 23 -57 19 -11 35 -24 35 -30 0 -13 -30
-22 -51 -16 -11 4 -19 2 -19 -4 0 -12 39 -15 64 -5 30 11 19 49 -20 67 -30 15
-34 20 -24 32 8 10 21 13 38 8 17 -4 23 -2 18 6 -9 15 -49 14 -64 -1z"/>
<path d="M1702 4403 c-2 -59 -1 -63 23 -69 15 -4 32 -1 40 6 10 9 15 9 15 1 0
-6 5 -11 10 -11 6 0 10 28 10 65 0 37 -4 65 -10 65 -5 0 -10 -22 -10 -50 0
-40 -4 -51 -21 -60 -31 -17 -47 3 -52 63 l-3 52 -2 -62z"/>
<path d="M1842 4448 c-21 -21 -13 -38 23 -55 19 -9 35 -22 35 -29 0 -16 -28
-26 -53 -18 -13 4 -17 2 -13 -5 10 -15 48 -14 71 3 25 18 13 44 -25 57 -48 17
-39 45 14 39 11 -1 15 3 12 9 -9 15 -49 14 -64 -1z"/>
<path d="M1950 4406 c0 -66 17 -85 60 -69 21 8 30 8 34 -1 2 -6 4 21 4 59 l0
70 -9 -50 c-15 -91 -69 -98 -69 -9 0 30 -4 54 -10 54 -5 0 -10 -24 -10 -54z"/>
<path d="M2104 4448 c-5 -8 0 -9 16 -5 24 6 50 -7 50 -24 0 -5 -10 -9 -23 -9
-35 0 -59 -22 -55 -51 3 -27 42 -39 62 -19 8 9 6 11 -10 6 -14 -4 -26 -1 -35
10 -11 14 -10 18 6 30 29 21 50 13 50 -18 1 -15 4 -30 8 -34 4 -4 7 17 7 47 0
30 -5 60 -12 67 -15 15 -55 16 -64 0z"/>
<path d="M2220 4396 c0 -78 18 -89 22 -13 3 45 6 52 26 55 12 2 22 8 22 13 0
12 -27 11 -35 -1 -5 -8 -11 -7 -21 1 -12 10 -14 1 -14 -55z"/>
<path d="M2323 4395 c0 -38 2 -53 4 -32 2 20 2 52 0 70 -2 17 -4 1 -4 -38z"/>
<path d="M2386 4438 c-45 -64 27 -146 77 -90 10 10 17 32 17 49 0 57 -64 84
-94 41z m74 -43 c0 -23 -6 -38 -18 -44 -28 -15 -52 5 -52 44 0 39 24 59 52 44
12 -6 18 -21 18 -44z"/>
<path d="M2522 4448 c-20 -20 -14 -35 23 -57 19 -11 35 -24 35 -30 0 -13 -30
-22 -51 -16 -11 4 -19 2 -19 -4 0 -12 39 -15 64 -5 30 11 19 49 -20 67 -30 15
-34 20 -24 32 8 10 21 13 38 8 17 -4 23 -2 18 6 -9 15 -49 14 -64 -1z"/>
<path d="M2912 4395 l1 -70 7 55 c4 30 3 62 -1 70 -5 9 -8 -14 -7 -55z"/>
<path d="M2934 4448 c-5 -8 -2 -9 11 -5 29 12 45 -11 45 -64 0 -30 4 -49 11
-49 17 0 6 110 -12 121 -20 12 -47 11 -55 -3z"/>
<path d="M3056 4438 c-45 -64 27 -146 77 -90 10 10 17 32 17 49 0 57 -64 84
-94 41z m74 -43 c0 -23 -6 -38 -18 -44 -28 -15 -52 5 -52 44 0 39 24 59 52 44
12 -6 18 -21 18 -44z"/>
<path d="M3192 4448 c-20 -20 -14 -35 23 -57 19 -11 35 -24 35 -30 0 -13 -30
-22 -51 -16 -11 4 -19 2 -19 -4 0 -12 39 -15 64 -5 30 11 19 49 -20 67 -30 15
-34 20 -24 32 8 10 21 13 38 8 17 -4 23 -2 18 6 -9 15 -49 14 -64 -1z"/>
<path d="M3535 4446 c-13 -9 -19 -26 -19 -51 0 -25 6 -42 19 -51 22 -16 61
-19 70 -5 3 5 -9 9 -26 9 -30 -1 -49 14 -49 40 0 7 15 12 40 12 32 0 40 4 40
18 0 39 -40 54 -75 28z m65 -26 c0 -6 -16 -10 -35 -10 -38 0 -46 13 -18 29 19
10 53 -2 53 -19z"/>
<path d="M3650 4393 c0 -36 4 -63 10 -63 6 0 10 22 10 50 0 37 4 52 18 58 31
17 42 3 42 -54 0 -30 5 -54 10 -54 15 0 12 106 -3 118 -7 6 -29 10 -50 9 l-37
-2 0 -62z"/>
<path d="M3806 4447 c-13 -10 -17 -24 -14 -57 3 -38 7 -46 31 -54 20 -7 30 -6
40 3 10 11 8 13 -11 8 -26 -6 -52 15 -52 43 0 36 12 50 42 50 17 0 27 4 23 10
-9 14 -38 12 -59 -3z"/>
<path d="M3918 4449 c-26 -15 -25 -95 1 -109 45 -23 81 1 81 55 0 54 -39 80
-82 54z m56 -15 c9 -8 16 -26 16 -39 0 -23 -23 -55 -40 -55 -17 0 -40 32 -40
55 0 23 23 55 40 55 5 0 16 -7 24 -16z"/>
<path d="M4040 4393 c0 -36 4 -63 10 -63 6 0 10 22 10 50 0 37 4 52 18 59 29
16 46 -4 53 -61 l6 -53 2 56 c1 66 -9 79 -62 76 l-37 -2 0 -62z"/>
<path d="M4272 4395 c1 -67 1 -68 7 -20 5 39 11 52 29 60 12 5 22 13 22 17 0
11 -12 10 -30 -2 -9 -6 -17 -5 -22 3 -4 7 -7 -19 -6 -58z"/>
<path d="M4374 4449 c-3 -6 1 -10 12 -9 55 6 63 -24 10 -34 -69 -13 -55 -77
15 -73 l39 2 0 51 c0 27 -5 55 -12 62 -15 15 -55 16 -64 1z m56 -69 c0 -21
-27 -40 -47 -33 -28 10 -5 53 29 53 11 0 18 -7 18 -20z"/>
<path d="M4490 4393 c0 -36 4 -63 10 -63 6 0 10 22 10 50 0 37 4 52 18 58 31
17 42 3 42 -54 0 -30 5 -54 10 -54 6 0 10 22 10 49 0 94 56 92 63 -2 l3 -52 2
62 c2 53 -1 62 -18 68 -10 3 -28 1 -39 -4 -13 -7 -22 -8 -26 -1 -3 5 -24 8
-45 7 l-40 -2 0 -62z"/>
<path d="M4716 4438 c-45 -64 27 -146 77 -90 10 10 17 32 17 49 0 57 -64 84
-94 41z m74 -43 c0 -23 -6 -38 -18 -44 -28 -15 -52 5 -52 44 0 39 24 59 52 44
12 -6 18 -21 18 -44z"/>
<path d="M4852 4448 c-20 -20 -14 -35 23 -57 19 -11 35 -24 35 -30 0 -13 -30
-22 -51 -16 -11 4 -19 2 -19 -4 0 -12 39 -15 64 -5 30 11 19 49 -20 67 -30 15
-34 20 -24 32 8 10 21 13 38 8 17 -4 23 -2 18 6 -9 15 -49 14 -64 -1z"/>
<path d="M5260 4398 c0 -39 4 -68 10 -68 6 0 10 23 10 50 0 46 3 52 28 61 16
7 22 13 14 16 -7 3 -20 -1 -28 -8 -13 -10 -17 -10 -25 2 -6 9 -9 -9 -9 -53z"/>
<path d="M5364 4448 c-5 -8 0 -9 16 -5 24 6 50 -7 50 -24 0 -5 -10 -9 -23 -9
-35 0 -59 -22 -55 -51 3 -27 42 -39 62 -19 8 9 6 11 -10 6 -14 -4 -26 -1 -35
10 -11 14 -10 18 6 30 29 21 50 13 50 -18 1 -15 4 -30 8 -34 4 -4 7 17 7 47 0
30 -5 60 -12 67 -15 15 -55 16 -64 0z"/>
<path d="M5640 4449 c-12 -8 -10 -10 9 -5 25 5 51 -8 51 -25 0 -5 -9 -9 -21
-9 -57 0 -85 -63 -33 -76 15 -4 30 -2 37 6 9 10 7 11 -9 6 -31 -9 -50 17 -29
38 9 9 26 16 37 16 16 0 19 -5 15 -23 -4 -12 -2 -29 3 -37 7 -10 10 4 10 46 0
47 -4 63 -16 68 -22 9 -37 7 -54 -5z"/>
<path d="M5762 4384 c-1 -54 -7 -85 -15 -93 -8 -6 -17 -8 -20 -4 -4 3 -7 1 -7
-5 0 -16 39 -15 46 1 3 8 3 52 1 98 l-3 84 -2 -81z"/>
<path d="M5824 4448 c-5 -8 0 -9 16 -5 24 6 50 -7 50 -24 0 -5 -10 -9 -23 -9
-35 0 -59 -22 -55 -51 3 -27 42 -39 62 -19 8 9 6 11 -10 6 -14 -4 -26 -1 -35
10 -11 14 -10 18 6 30 29 21 50 13 50 -18 1 -15 4 -30 8 -34 4 -4 7 17 7 47 0
30 -5 60 -12 67 -15 15 -55 16 -64 0z"/>
<path d="M5952 4395 l1 -70 7 55 c4 30 3 62 -1 70 -5 9 -8 -14 -7 -55z"/>
<path d="M5974 4448 c-5 -8 -2 -9 11 -5 29 12 45 -11 45 -64 0 -30 4 -49 11
-49 17 0 6 110 -12 121 -20 12 -47 11 -55 -3z"/>
<path d="M6245 4446 c-42 -31 -16 -116 36 -116 28 0 49 28 49 65 0 56 -43 82
-85 51z m69 -30 c13 -52 -27 -92 -59 -59 -20 20 -19 70 1 81 24 14 52 3 58
-22z"/>
<path d="M6591 4368 c-1 -59 3 -98 9 -98 6 0 10 16 10 35 0 32 2 34 28 29 36
-7 56 15 56 62 0 49 -25 72 -64 57 -21 -8 -30 -8 -34 1 -2 6 -5 -33 -5 -86z
m73 66 c35 -34 5 -105 -35 -84 -34 19 -21 93 18 100 1 0 9 -7 17 -16z"/>
<path d="M6744 4449 c-3 -6 1 -10 12 -9 55 6 63 -24 10 -34 -69 -13 -55 -77
15 -73 l39 2 0 51 c0 27 -5 55 -12 62 -15 15 -55 16 -64 1z m56 -69 c0 -21
-27 -40 -47 -33 -28 10 -5 53 29 53 11 0 18 -7 18 -20z"/>
<path d="M6860 4398 c0 -39 4 -68 10 -68 6 0 10 23 10 50 0 46 3 52 28 61 16
7 22 13 14 16 -7 3 -20 -1 -28 -8 -13 -10 -17 -10 -25 2 -6 9 -9 -9 -9 -53z"/>
<path d="M6964 4448 c-5 -8 0 -9 16 -5 24 6 50 -7 50 -24 0 -5 -10 -9 -23 -9
-35 0 -59 -22 -55 -51 3 -27 42 -39 62 -19 8 9 6 11 -10 6 -14 -4 -26 -1 -35
10 -11 14 -10 18 6 30 29 21 50 13 50 -18 1 -15 4 -30 8 -34 4 -4 7 17 7 47 0
30 -5 60 -12 67 -15 15 -55 16 -64 0z"/>
<path d="M7313 4395 c0 -56 1 -60 4 -20 4 52 23 78 49 68 10 -3 14 -22 14 -59
0 -30 5 -54 10 -54 6 0 10 22 10 50 0 37 4 52 18 58 31 17 42 3 42 -54 0 -30
5 -54 10 -54 15 0 12 94 -4 116 -12 16 -19 17 -43 8 -21 -8 -34 -8 -46 0 -12
8 -22 8 -36 -1 -15 -10 -21 -10 -24 0 -3 7 -5 -19 -4 -58z"/>
<path d="M7538 4449 c-26 -15 -25 -95 1 -109 26 -13 58 -13 67 2 5 8 0 9 -14
6 -26 -7 -69 23 -58 40 4 7 25 12 47 12 43 0 46 5 23 38 -16 24 -39 27 -66 11z
m62 -29 c0 -6 -16 -10 -35 -10 -40 0 -41 2 -19 24 12 12 20 13 35 6 10 -6 19
-15 19 -20z"/>
<path d="M7648 4373 c-2 -64 -6 -87 -15 -85 -7 1 -13 -2 -13 -8 0 -14 23 -13
38 2 14 14 17 178 2 178 -5 0 -11 -39 -12 -87z"/>
<path d="M7725 4446 c-42 -31 -16 -116 36 -116 28 0 49 28 49 65 0 56 -43 82
-85 51z m69 -30 c13 -52 -27 -92 -59 -59 -20 20 -19 70 1 81 24 14 52 3 58
-22z"/>
<path d="M7850 4398 c0 -39 4 -68 10 -68 6 0 10 23 10 50 0 46 3 52 28 61 16
7 22 13 14 16 -7 3 -20 -1 -28 -8 -13 -10 -17 -10 -25 2 -6 9 -9 -9 -9 -53z"/>
<path d="M7954 4448 c-5 -8 0 -9 16 -5 24 6 50 -7 50 -24 0 -5 -10 -9 -23 -9
-35 0 -59 -22 -55 -51 3 -27 42 -39 62 -19 8 9 6 11 -10 6 -14 -4 -26 -1 -35
10 -11 14 -10 18 6 30 29 21 50 13 50 -18 1 -15 4 -30 8 -34 4 -4 7 17 7 47 0
30 -5 60 -12 67 -15 15 -55 16 -64 0z"/>
<path d="M8082 4395 c1 -67 1 -68 7 -20 5 39 11 52 29 60 12 5 22 13 22 17 0
12 -28 9 -36 -3 -4 -8 -9 -7 -15 2 -5 9 -8 -14 -7 -56z"/>
<path d="M8470 4406 c0 -66 17 -85 60 -69 21 8 30 8 34 -1 2 -6 4 21 4 59 l0
70 -9 -50 c-15 -91 -69 -98 -69 -9 0 30 -4 54 -10 54 -5 0 -10 -24 -10 -54z"/>
<path d="M2628 4354 c-5 -4 -8 -19 -8 -33 1 -23 2 -24 11 -8 11 19 9 53 -3 41z"/>
<path d="M2080 4050 c0 -53 4 -90 10 -90 6 0 10 37 10 90 0 53 -4 90 -10 90
-6 0 -10 -37 -10 -90z"/>
<path d="M2510 4050 c0 -53 4 -90 10 -90 6 0 10 37 10 90 0 53 -4 90 -10 90
-6 0 -10 -37 -10 -90z"/>
<path d="M2933 4133 c-7 -2 -13 -13 -13 -24 0 -10 -5 -19 -11 -19 -8 0 -8 -4
-1 -13 6 -7 12 -37 15 -67 l3 -55 2 57 c2 42 6 60 20 67 16 10 16 10 0 11 -10
0 -18 4 -18 9 0 13 26 32 33 24 4 -3 7 -1 7 5 0 12 -15 14 -37 5z"/>
<path d="M8470 4053 l0 -88 40 -2 c31 -2 43 2 55 19 19 29 19 58 -1 87 -13 18
-23 22 -45 17 -27 -5 -29 -3 -29 24 0 17 -4 30 -10 30 -6 0 -10 -36 -10 -87z
m90 -28 c0 -23 -6 -38 -18 -44 -28 -15 -52 5 -52 44 0 39 24 59 52 44 12 -6
18 -21 18 -44z"/>
<path d="M1420 4119 c0 -5 5 -7 10 -4 6 3 10 8 10 11 0 2 -4 4 -10 4 -5 0 -10
-5 -10 -11z"/>
<path d="M3682 4118 c-25 -25 -14 -57 28 -78 60 -31 51 -64 -17 -62 -20 1 -31
-3 -28 -8 3 -6 19 -10 34 -10 70 0 83 62 18 93 -50 23 -47 51 6 55 20 2 35 7
32 13 -9 13 -59 11 -73 -3z"/>
<path d="M3800 4045 c0 -50 4 -85 10 -85 6 0 10 35 10 85 0 50 -4 85 -10 85
-6 0 -10 -35 -10 -85z"/>
<path d="M3886 4109 c-21 -16 -26 -29 -26 -64 0 -35 5 -48 26 -64 27 -21 58
-26 88 -15 11 4 16 19 16 45 0 35 -3 39 -25 39 -14 0 -25 -4 -25 -10 0 -5 7
-10 15 -10 23 0 19 -47 -4 -53 -51 -13 -94 49 -69 100 11 23 20 29 56 31 23 2
40 7 37 13 -11 16 -61 10 -89 -12z"/>
<path d="M4040 4045 l0 -85 40 0 c22 0 40 5 40 10 0 6 -16 10 -36 10 -34 0
-35 1 -32 33 3 28 7 33 38 38 l35 6 -37 2 c-33 1 -38 4 -38 26 0 22 4 25 35
25 19 0 35 5 35 10 0 6 -18 10 -40 10 l-40 0 0 -85z"/>
<path d="M4172 4118 c-25 -25 -14 -57 28 -78 60 -31 51 -64 -17 -62 -20 1 -31
-3 -28 -8 3 -6 19 -10 34 -10 70 0 83 62 18 93 -50 23 -47 51 6 55 20 2 35 7
32 13 -9 13 -59 11 -73 -3z"/>
<path d="M4296 4108 c-19 -27 -5 -56 34 -69 55 -20 45 -63 -15 -61 -21 1 -33
-3 -30 -8 3 -6 19 -10 34 -10 70 0 83 62 18 93 -51 24 -47 50 8 57 30 4 35 7
22 13 -32 12 -55 8 -71 -15z"/>
<path d="M4455 4118 c-41 -22 -56 -67 -39 -113 8 -19 55 -45 84 -45 26 0 70
43 69 67 0 12 -4 9 -11 -9 -18 -50 -43 -28 -43 37 0 36 -3 40 -27 43 -28 3
-28 2 -28 -52 0 -31 5 -56 10 -56 6 0 10 12 10 28 1 26 1 26 15 7 8 -11 19
-25 24 -31 25 -30 -36 -32 -73 -3 -36 28 -36 80 0 108 44 35 92 22 113 -30 7
-18 10 -20 10 -6 1 25 -44 67 -71 67 -13 0 -32 -6 -43 -12z m50 -48 c0 -7 -6
-15 -12 -17 -8 -3 -13 4 -13 17 0 13 5 20 13 18 6 -3 12 -11 12 -18z"/>
<path d="M7720 4119 c0 -5 5 -7 10 -4 6 3 10 8 10 11 0 2 -4 4 -10 4 -5 0 -10
-5 -10 -11z"/>
<path d="M7860 4120 c0 -5 5 -10 10 -10 6 0 10 5 10 10 0 6 -4 10 -10 10 -5 0
-10 -4 -10 -10z"/>
<path d="M2706 4111 c-12 -19 -8 -122 6 -138 6 -7 18 -13 27 -13 14 1 14 2 -1
11 -13 7 -18 23 -18 59 0 38 4 50 18 53 15 4 15 5 0 6 -9 0 -18 9 -20 19 -3
14 -5 15 -12 3z"/>
<path d="M5831 4108 c0 -10 -7 -18 -13 -18 -10 0 -10 -2 -1 -8 6 -4 13 -32 15
-62 3 -50 5 -55 28 -58 l25 -3 -22 16 c-17 12 -23 26 -23 56 0 32 4 41 23 49
l22 9 -22 0 c-12 1 -24 9 -26 19 -4 16 -5 16 -6 0z"/>
<path d="M7196 4105 c-11 -26 -7 -117 6 -132 6 -7 18 -13 27 -13 14 1 14 2 -1
14 -13 9 -18 27 -18 59 0 35 4 47 18 50 15 4 15 5 0 6 -9 0 -18 9 -20 19 -3
15 -5 15 -12 -3z"/>
<path d="M7786 4111 c-12 -19 -8 -122 6 -138 6 -7 18 -13 27 -13 14 1 14 2 -1
11 -13 7 -18 23 -18 59 0 38 4 50 18 53 15 4 15 5 0 6 -9 0 -18 9 -20 19 -3
14 -5 15 -12 3z"/>
<path d="M375 4076 c-26 -19 -26 -83 0 -102 22 -16 61 -19 70 -5 3 5 -9 9 -26
9 -30 -1 -49 14 -49 40 0 7 15 12 40 12 32 0 40 4 40 18 0 39 -40 54 -75 28z
m65 -26 c0 -6 -16 -10 -35 -10 -38 0 -46 13 -18 29 19 10 53 -2 53 -19z"/>
<path d="M499 4057 l20 -33 -21 -32 c-11 -17 -16 -32 -11 -32 5 0 16 11 23 25
7 14 16 25 20 25 4 0 13 -11 20 -25 7 -14 17 -25 23 -25 5 0 -1 16 -13 35
l-22 35 22 30 c12 16 17 30 12 30 -5 0 -18 -12 -27 -27 l-17 -26 -17 26 c-8
15 -19 27 -24 27 -5 0 0 -15 12 -33z"/>
<path d="M611 3998 c-1 -59 3 -98 9 -98 6 0 10 16 10 35 0 32 2 34 28 29 36
-7 56 15 56 62 0 49 -25 72 -64 57 -21 -8 -30 -8 -34 1 -2 6 -5 -33 -5 -86z
m73 66 c35 -34 5 -105 -35 -84 -34 19 -21 93 18 100 1 0 9 -7 17 -16z"/>
<path d="M768 4079 c-26 -15 -25 -95 1 -109 26 -13 58 -13 67 2 5 8 0 9 -14 6
-26 -7 -69 23 -58 40 4 7 25 12 47 12 43 0 46 5 23 38 -16 24 -39 27 -66 11z
m62 -29 c0 -6 -16 -10 -35 -10 -40 0 -41 2 -19 24 12 12 20 13 35 6 10 -6 19
-15 19 -20z"/>
<path d="M880 4026 c0 -78 18 -89 22 -13 3 45 6 52 26 55 12 2 22 8 22 13 0
12 -27 11 -35 -1 -5 -8 -11 -7 -21 1 -12 10 -14 1 -14 -55z"/>
<path d="M983 4025 c0 -38 2 -53 4 -32 2 20 2 52 0 70 -2 17 -4 1 -4 -38z"/>
<path d="M1046 4068 c-33 -46 -7 -108 44 -108 16 0 32 5 36 12 5 8 0 9 -16 5
-30 -8 -60 9 -60 33 0 17 7 20 40 20 44 0 52 16 24 44 -22 22 -50 20 -68 -6z
m64 -14 c0 -9 -11 -14 -30 -14 -33 0 -39 14 -13 28 21 12 43 5 43 -14z"/>
<path d="M1172 4025 l1 -70 7 55 c4 30 3 62 -1 70 -5 9 -8 -14 -7 -55z"/>
<path d="M1194 4078 c-5 -8 -2 -9 9 -5 35 13 47 -3 47 -59 0 -30 5 -54 10 -54
13 0 13 86 0 111 -12 21 -55 26 -66 7z"/>
<path d="M1329 4080 c-22 -13 -31 -53 -19 -84 11 -30 55 -45 73 -26 10 10 7
12 -11 7 -26 -6 -52 15 -52 43 0 36 12 50 42 50 17 0 27 4 23 10 -8 13 -35 12
-56 0z"/>
<path d="M1420 4025 c0 -37 4 -65 10 -65 6 0 10 28 10 65 0 37 -4 65 -10 65
-6 0 -10 -28 -10 -65z"/>
<path d="M1494 4078 c-5 -8 -2 -9 9 -5 22 8 47 -2 47 -19 0 -8 -10 -14 -23
-14 -52 0 -75 -49 -35 -74 13 -8 23 -8 37 1 14 9 21 9 30 0 15 -15 15 76 1
104 -12 21 -55 26 -66 7z m56 -68 c0 -21 -27 -40 -47 -33 -7 3 -13 13 -13 23
0 19 13 28 43 29 10 1 17 -6 17 -19z"/>
<path d="M1716 4068 c-33 -46 -7 -108 44 -108 16 0 32 5 36 12 5 8 0 9 -16 5
-30 -8 -60 9 -60 33 0 17 7 20 40 20 44 0 52 16 24 44 -22 22 -50 20 -68 -6z
m64 -14 c0 -9 -11 -14 -30 -14 -33 0 -39 14 -13 28 21 12 43 5 43 -14z"/>
<path d="M1840 4023 c0 -36 4 -63 10 -63 6 0 10 22 10 50 0 37 4 52 18 58 31
17 42 3 42 -54 0 -30 5 -54 10 -54 15 0 12 106 -3 118 -7 6 -29 10 -50 9 l-37
-2 0 -62z"/>
<path d="M2154 4078 c-5 -8 -2 -9 9 -5 22 8 47 -2 47 -19 0 -8 -10 -14 -23
-14 -52 0 -75 -49 -35 -74 13 -8 23 -8 37 1 14 9 21 9 30 0 15 -15 15 76 1
104 -12 21 -55 26 -66 7z m56 -68 c0 -21 -27 -40 -47 -33 -7 3 -13 13 -13 23
0 19 13 28 43 29 10 1 17 -6 17 -19z"/>
<path d="M2371 3998 c-1 -59 3 -98 9 -98 6 0 10 16 10 35 0 32 2 34 28 29 36
-7 56 15 56 62 0 49 -25 72 -64 57 -21 -8 -30 -8 -34 1 -2 6 -5 -33 -5 -86z
m73 66 c35 -34 5 -105 -35 -84 -34 19 -21 93 18 100 1 0 9 -7 17 -16z"/>
<path d="M2584 4079 c-3 -6 1 -10 12 -9 55 6 63 -24 10 -34 -69 -13 -55 -77
15 -73 l39 2 0 51 c0 27 -5 55 -12 62 -15 15 -55 16 -64 1z m56 -69 c0 -21
-27 -40 -47 -33 -28 10 -5 53 29 53 11 0 18 -7 18 -20z"/>
<path d="M2794 4079 c-3 -6 1 -10 12 -9 55 6 63 -24 10 -34 -69 -13 -55 -77
15 -73 l39 2 0 51 c0 27 -5 55 -12 62 -15 15 -55 16 -64 1z m56 -69 c0 -21
-27 -40 -47 -33 -28 10 -5 53 29 53 11 0 18 -7 18 -20z"/>
<path d="M3005 4076 c-42 -31 -16 -116 36 -116 28 0 49 28 49 65 0 56 -43 82
-85 51z m69 -30 c13 -52 -27 -92 -59 -59 -20 20 -19 70 1 81 24 14 52 3 58
-22z"/>
<path d="M3130 4028 c0 -39 4 -68 10 -68 6 0 10 23 10 50 0 46 3 52 28 61 16
7 22 13 14 16 -7 3 -20 -1 -28 -8 -13 -10 -17 -10 -25 2 -6 9 -9 -9 -9 -53z"/>
<path d="M3233 4025 c0 -56 1 -60 4 -20 4 52 23 78 49 68 10 -3 14 -22 14 -59
0 -30 5 -54 10 -54 6 0 10 22 10 50 0 37 4 52 18 58 31 17 42 3 42 -54 0 -30
5 -54 10 -54 15 0 12 94 -4 116 -12 16 -19 17 -43 8 -21 -8 -34 -8 -46 0 -12
8 -22 8 -36 -1 -15 -10 -21 -10 -24 0 -3 7 -5 -19 -4 -58z"/>
<path d="M3454 4079 c-3 -6 1 -10 12 -9 55 6 63 -24 10 -34 -69 -13 -55 -77
15 -73 l39 2 0 51 c0 27 -5 55 -12 62 -15 15 -55 16 -64 1z m56 -69 c0 -21
-27 -40 -47 -33 -28 10 -5 53 29 53 11 0 18 -7 18 -20z"/>
<path d="M4776 4068 c-33 -46 -7 -108 44 -108 16 0 32 5 36 12 5 8 0 9 -16 5
-30 -8 -60 9 -60 33 0 17 7 20 40 20 44 0 52 16 24 44 -22 22 -50 20 -68 -6z
m64 -14 c0 -9 -11 -14 -30 -14 -33 0 -39 14 -13 28 21 12 43 5 43 -14z"/>
<path d="M4902 4078 c-20 -20 -14 -35 23 -57 19 -11 35 -24 35 -30 0 -13 -30
-22 -51 -16 -11 4 -19 2 -19 -4 0 -12 39 -15 64 -5 30 11 19 49 -20 67 -30 15
-34 20 -24 32 8 10 21 13 38 8 17 -4 23 -2 18 6 -9 15 -49 14 -64 -1z"/>
<path d="M5111 3998 c-1 -59 3 -98 9 -98 6 0 10 16 10 35 0 32 2 34 28 29 36
-7 56 15 56 62 0 49 -25 72 -64 57 -21 -8 -30 -8 -34 1 -2 6 -5 -33 -5 -86z
m73 66 c35 -34 5 -105 -35 -84 -34 19 -21 93 18 100 1 0 9 -7 17 -16z"/>
<path d="M5265 4076 c-42 -31 -16 -116 36 -116 28 0 49 28 49 65 0 56 -43 82
-85 51z m69 -30 c13 -52 -27 -92 -59 -59 -20 20 -19 70 1 81 24 14 52 3 58
-22z"/>
<path d="M5390 4026 c0 -78 18 -89 22 -13 3 45 6 52 26 55 12 2 22 8 22 13 0
12 -27 11 -35 -1 -5 -8 -11 -7 -21 1 -12 10 -14 1 -14 -55z"/>
<path d="M5596 4068 c-33 -46 -7 -108 44 -108 16 0 32 5 36 12 5 8 0 9 -16 5
-30 -8 -60 9 -60 33 0 17 7 20 40 20 44 0 52 16 24 44 -22 22 -50 20 -68 -6z
m64 -14 c0 -9 -11 -14 -30 -14 -33 0 -39 14 -13 28 21 12 43 5 43 -14z"/>
<path d="M5722 4078 c-20 -20 -14 -35 23 -57 19 -11 35 -24 35 -30 0 -13 -30
-22 -51 -16 -11 4 -19 2 -19 -4 0 -12 39 -15 64 -5 30 11 19 49 -20 67 -30 15
-34 20 -24 32 8 10 21 13 38 8 17 -4 23 -2 18 6 -9 15 -49 14 -64 -1z"/>
<path d="M5925 4076 c-42 -31 -16 -116 36 -116 28 0 49 28 49 65 0 56 -43 82
-85 51z m69 -30 c13 -52 -27 -92 -59 -59 -20 20 -19 70 1 81 24 14 52 3 58
-22z"/>
<path d="M6159 4074 c-17 -21 -17 -78 1 -99 10 -11 23 -15 42 -11 26 5 28 3
28 -29 0 -19 5 -35 10 -35 6 0 10 37 10 93 l0 92 -39 2 c-25 2 -44 -3 -52 -13z
m71 -49 c0 -23 -6 -38 -18 -44 -28 -15 -52 5 -52 44 0 39 24 59 52 44 12 -6
18 -21 18 -44z"/>
<path d="M6290 4036 c0 -66 17 -85 60 -69 21 8 30 8 34 -1 2 -6 4 21 4 59 l0
70 -9 -50 c-15 -91 -69 -98 -69 -9 0 30 -4 54 -10 54 -5 0 -10 -24 -10 -54z"/>
<path d="M6447 4072 c-22 -25 -21 -75 1 -95 21 -20 58 -22 68 -5 5 7 1 9 -13
6 -27 -7 -53 9 -53 32 0 17 7 20 40 20 44 0 52 16 24 44 -21 21 -47 20 -67 -2z
m47 2 c28 -11 18 -34 -14 -34 -32 0 -37 9 -18 28 14 14 12 14 32 6z"/>
<path d="M6672 4025 l1 -70 7 55 c4 30 3 62 -1 70 -5 9 -8 -14 -7 -55z"/>
<path d="M6694 4078 c-5 -8 -2 -9 9 -5 35 13 47 -3 47 -59 0 -30 5 -54 10 -54
13 0 13 86 0 111 -12 21 -55 26 -66 7z"/>
<path d="M6811 4039 c-1 -66 9 -79 62 -76 l37 2 0 63 c0 35 -4 62 -10 62 -5 0
-10 -22 -10 -50 0 -37 -4 -52 -18 -59 -29 -16 -46 4 -53 61 l-6 53 -2 -56z"/>
<path d="M6968 4079 c-26 -15 -25 -95 1 -109 26 -13 58 -13 67 2 5 8 0 9 -14
6 -26 -7 -69 23 -58 40 4 7 25 12 47 12 43 0 46 5 23 38 -16 24 -39 27 -66 11z
m62 -29 c0 -6 -16 -10 -35 -10 -40 0 -41 2 -19 24 12 12 20 13 35 6 10 -6 19
-15 19 -20z"/>
<path d="M7086 4075 c-20 -21 -11 -41 25 -54 16 -5 29 -17 29 -25 0 -18 -30
-29 -56 -20 -15 5 -16 4 -8 -5 16 -17 65 -10 78 12 11 19 2 30 -50 64 -17 10
-17 13 -4 22 8 6 23 8 34 5 12 -4 16 -2 12 5 -10 16 -42 14 -60 -4z"/>
<path d="M7282 4025 c1 -67 1 -68 7 -20 5 39 11 52 29 60 12 5 22 13 22 17 0
12 -28 9 -36 -3 -4 -8 -9 -7 -15 2 -5 9 -8 -14 -7 -56z"/>
<path d="M7385 4076 c-42 -31 -16 -116 36 -116 28 0 49 28 49 65 0 56 -43 82
-85 51z m69 -30 c13 -52 -27 -92 -59 -59 -20 20 -19 70 1 81 24 14 52 3 58
-22z"/>
<path d="M7612 4078 c-21 -21 -13 -38 23 -55 19 -9 35 -22 35 -29 0 -16 -28
-26 -53 -18 -13 4 -17 2 -13 -5 10 -15 48 -14 71 3 25 18 13 44 -25 57 -48 17
-39 45 14 39 11 -1 15 3 12 9 -9 15 -49 14 -64 -1z"/>
<path d="M7720 4025 c0 -37 4 -65 10 -65 6 0 10 28 10 65 0 37 -4 65 -10 65
-6 0 -10 -28 -10 -65z"/>
<path d="M7860 4025 c0 -37 4 -65 10 -65 6 0 10 28 10 65 0 37 -4 65 -10 65
-6 0 -10 -28 -10 -65z"/>
<path d="M7935 4076 c-42 -31 -16 -116 36 -116 28 0 49 28 49 65 0 56 -43 82
-85 51z m69 -30 c13 -52 -27 -92 -59 -59 -20 20 -19 70 1 81 24 14 52 3 58
-22z"/>
<path d="M8150 4080 c0 -31 26 -114 37 -117 6 -2 17 19 24 46 7 28 16 48 20
46 3 -3 12 -25 18 -51 7 -26 16 -44 23 -42 11 4 38 86 38 118 0 27 -18 -11
-26 -53 -7 -45 -16 -39 -33 21 -6 23 -16 42 -21 42 -5 0 -15 -19 -21 -42 -17
-60 -26 -66 -33 -21 -8 42 -26 80 -26 53z"/>
<path d="M8358 4079 c-26 -15 -25 -95 1 -109 26 -13 58 -13 67 2 5 8 0 9 -14
6 -26 -7 -69 23 -58 40 4 7 25 12 47 12 43 0 46 5 23 38 -16 24 -39 27 -66 11z
m62 -29 c0 -6 -16 -10 -35 -10 -40 0 -41 2 -19 24 12 12 20 13 35 6 10 -6 19
-15 19 -20z"/>
<path d="M4606 3974 c-3 -9 -6 -23 -6 -32 1 -12 5 -10 15 8 8 14 14 28 15 33
0 13 -18 7 -24 -9z"/>
<path d="M3486 3754 c-9 -24 -7 -28 9 -14 17 14 20 30 6 30 -5 0 -12 -7 -15
-16z"/>
<path d="M360 3670 c0 -53 4 -90 10 -90 6 0 10 22 10 50 0 37 4 52 18 58 31
17 42 3 42 -54 0 -30 5 -54 10 -54 6 0 10 24 10 54 0 61 -16 82 -55 72 -23 -6
-25 -3 -25 24 0 16 -4 30 -10 30 -6 0 -10 -37 -10 -90z"/>
<path d="M1230 3730 c0 -27 -2 -29 -28 -24 -45 9 -74 -48 -49 -96 10 -21 20
-25 55 -25 l42 0 0 88 c0 51 -4 87 -10 87 -5 0 -10 -13 -10 -30z m0 -85 c0
-23 -6 -38 -18 -44 -28 -15 -52 5 -52 44 0 39 24 59 52 44 12 -6 18 -21 18
-44z"/>
<path d="M993 3665 c-17 -47 -27 -85 -22 -85 5 0 9 1 9 3 0 2 13 40 30 85 16
45 26 82 22 82 -4 0 -22 -38 -39 -85z"/>
<path d="M1102 3729 c-5 -13 -19 -50 -31 -83 -12 -32 -19 -61 -16 -64 3 -3 6
-3 8 -1 10 12 58 162 53 166 -3 3 -9 -5 -14 -18z"/>
<path d="M1950 3740 c0 -5 5 -10 10 -10 6 0 10 5 10 10 0 6 -4 10 -10 10 -5 0
-10 -4 -10 -10z"/>
<path d="M5005 3740 c3 -5 8 -10 11 -10 2 0 4 5 4 10 0 6 -5 10 -11 10 -5 0
-7 -4 -4 -10z"/>
<path d="M5280 3739 c0 -5 5 -7 10 -4 6 3 10 8 10 11 0 2 -4 4 -10 4 -5 0 -10
-5 -10 -11z"/>
<path d="M6830 3739 c0 -5 5 -7 10 -4 6 3 10 8 10 11 0 2 -4 4 -10 4 -5 0 -10
-5 -10 -11z"/>
<path d="M506 3725 c-11 -26 -7 -117 6 -132 6 -7 18 -13 27 -13 14 1 14 2 -1
14 -13 9 -18 27 -18 59 0 35 4 47 18 50 15 4 15 5 0 6 -9 0 -18 9 -20 19 -3
15 -5 15 -12 -3z"/>
<path d="M586 3725 c-11 -26 -7 -117 6 -132 6 -7 18 -13 27 -13 14 1 14 2 -1
14 -13 9 -18 27 -18 59 0 35 4 47 18 50 15 4 15 5 0 6 -9 0 -18 9 -20 19 -3
15 -5 15 -12 -3z"/>
<path d="M3371 3728 c0 -10 -7 -18 -13 -18 -10 0 -10 -2 -1 -8 6 -4 13 -32 15
-62 3 -50 5 -55 28 -58 l25 -3 -22 16 c-18 12 -23 26 -23 60 0 37 3 44 23 48
22 4 22 4 0 6 -12 0 -24 9 -26 19 -4 16 -5 16 -6 0z"/>
<path d="M4656 3725 c-11 -26 -7 -117 6 -132 6 -7 18 -13 27 -13 14 1 14 2 -1
14 -13 9 -18 27 -18 59 0 35 4 47 18 50 15 4 15 5 0 6 -9 0 -18 9 -20 19 -3
15 -5 15 -12 -3z"/>
<path d="M5616 3725 c-11 -26 -7 -117 6 -132 6 -7 18 -13 27 -13 14 1 14 2 -1
14 -13 9 -18 27 -18 59 0 35 4 47 18 50 15 4 15 5 0 6 -9 0 -18 9 -20 19 -3
15 -5 15 -12 -3z"/>
<path d="M6756 3731 c-12 -19 -8 -122 6 -138 6 -7 18 -13 27 -13 14 1 14 2 -1
11 -13 7 -18 23 -18 59 0 38 4 50 18 53 15 4 15 5 0 6 -9 0 -18 9 -20 19 -3
14 -5 15 -12 3z"/>
<path d="M7366 3731 c-12 -19 -8 -122 6 -138 6 -7 18 -13 27 -13 14 1 14 2 -1
11 -13 7 -18 23 -18 59 0 38 4 50 18 53 15 4 15 5 0 6 -9 0 -18 9 -20 19 -3
14 -5 15 -12 3z"/>
<path d="M8396 3725 c-11 -26 -7 -117 6 -132 6 -7 18 -13 27 -13 14 1 14 2 -1
14 -13 9 -18 27 -18 59 0 35 4 47 18 50 15 4 15 5 0 6 -9 0 -18 9 -20 19 -3
15 -5 15 -12 -3z"/>
<path d="M670 3616 c0 -55 3 -97 6 -94 3 3 5 40 6 82 0 61 3 78 17 85 27 15
51 -6 51 -44 0 -36 -22 -57 -49 -47 -8 3 -11 0 -7 -7 10 -16 42 -14 60 5 21
20 21 78 0 98 -18 19 -50 21 -60 5 -4 -8 -9 -7 -15 2 -5 9 -9 -26 -9 -85z"/>
<path d="M812 3698 c-20 -20 -14 -35 23 -57 19 -11 35 -24 35 -30 0 -13 -30
-22 -51 -16 -11 4 -19 2 -19 -4 0 -12 39 -15 64 -5 30 11 19 49 -20 67 -30 15
-34 20 -24 32 8 10 21 13 38 8 17 -4 23 -2 18 6 -9 15 -49 14 -64 -1z"/>
<path d="M916 3701 c-4 -5 -2 -12 3 -15 5 -4 12 -2 15 3 4 5 2 12 -3 15 -5 4
-12 2 -15 -3z"/>
<path d="M1308 3699 c-26 -15 -25 -95 1 -109 26 -13 58 -13 67 2 5 8 0 9 -14
6 -26 -7 -69 23 -58 40 4 7 25 12 47 12 43 0 46 5 23 38 -16 24 -39 27 -66 11z
m62 -29 c0 -6 -16 -10 -35 -10 -40 0 -41 2 -19 24 12 12 20 13 35 6 10 -6 19
-15 19 -20z"/>
<path d="M1420 3643 c0 -36 4 -63 10 -63 6 0 10 22 10 50 0 37 4 52 18 58 31
17 42 3 42 -54 0 -30 5 -54 10 -54 6 0 10 22 10 49 0 94 56 92 63 -2 l3 -52 2
62 c2 53 -1 62 -18 68 -10 3 -28 1 -39 -4 -13 -7 -22 -8 -26 -1 -3 5 -24 8
-45 7 l-40 -2 0 -62z"/>
<path d="M1655 3696 c-42 -31 -16 -116 36 -116 28 0 49 28 49 65 0 56 -43 82
-85 51z m69 -30 c13 -52 -27 -92 -59 -59 -20 20 -19 70 1 81 24 14 52 3 58
-22z"/>
<path d="M1842 3698 c-21 -21 -13 -38 23 -55 19 -9 35 -22 35 -29 0 -16 -28
-26 -53 -18 -13 4 -17 2 -13 -5 10 -15 48 -14 71 3 25 18 13 44 -25 57 -48 17
-39 45 14 39 11 -1 15 3 12 9 -9 15 -49 14 -64 -1z"/>
<path d="M1950 3645 c0 -37 4 -65 10 -65 6 0 10 28 10 65 0 37 -4 65 -10 65
-6 0 -10 -28 -10 -65z"/>
<path d="M2022 3701 c-13 -8 -15 -23 -9 -79 2 -18 0 -35 -5 -38 -4 -3 -8 -16
-8 -29 0 -30 39 -43 76 -26 50 22 38 71 -17 71 -19 0 -29 5 -29 15 0 8 8 15
18 15 24 0 42 19 42 46 0 12 6 25 13 27 6 3 -6 6 -28 6 -22 0 -46 -3 -53 -8z
m48 -17 c11 -12 10 -18 -3 -31 -8 -9 -23 -13 -31 -10 -19 8 -21 43 -3 50 20 9
24 8 37 -9z m11 -104 c17 0 9 -29 -11 -40 -25 -13 -60 -4 -60 15 0 17 30 36
48 30 8 -3 18 -5 23 -5z"/>
<path d="M2146 3688 c-33 -46 -7 -108 44 -108 16 0 32 5 36 12 5 8 0 9 -16 5
-30 -8 -60 9 -60 33 0 17 7 20 40 20 44 0 52 16 24 44 -22 22 -50 20 -68 -6z
m64 -14 c0 -9 -11 -14 -30 -14 -33 0 -39 14 -13 28 21 12 43 5 43 -14z"/>
<path d="M2272 3698 c-20 -20 -14 -35 23 -57 19 -11 35 -24 35 -30 0 -13 -30
-22 -51 -16 -11 4 -19 2 -19 -4 0 -12 39 -15 64 -5 30 11 19 49 -20 67 -30 15
-34 20 -24 32 8 10 21 13 38 8 17 -4 23 -2 18 6 -9 15 -49 14 -64 -1z"/>
<path d="M2382 3698 c-21 -21 -13 -38 23 -55 19 -9 35 -22 35 -29 0 -16 -28
-26 -53 -18 -13 4 -17 2 -13 -5 10 -15 48 -14 71 3 25 18 13 44 -25 57 -48 17
-39 45 14 39 11 -1 15 3 12 9 -9 15 -49 14 -64 -1z"/>
<path d="M2564 3699 c-3 -6 1 -10 12 -9 55 6 63 -24 10 -34 -69 -13 -55 -77
15 -73 l39 2 0 51 c0 27 -5 55 -12 62 -15 15 -55 16 -64 1z m56 -69 c0 -21
-27 -40 -47 -33 -28 10 -5 53 29 53 11 0 18 -7 18 -20z"/>
<path d="M2681 3618 c-1 -59 3 -98 9 -98 6 0 10 16 10 35 0 32 2 34 28 29 36
-7 56 15 56 62 0 49 -25 72 -64 57 -21 -8 -30 -8 -34 1 -2 6 -5 -33 -5 -86z
m73 66 c35 -34 5 -105 -35 -84 -34 19 -21 93 18 100 1 0 9 -7 17 -16z"/>
<path d="M2820 3613 c0 -56 4 -93 10 -93 6 0 10 16 10 35 0 33 1 34 29 29 50
-10 79 56 46 104 -12 17 -24 21 -55 19 l-40 -2 0 -92z m90 32 c0 -23 -6 -38
-18 -44 -28 -15 -52 5 -52 44 0 39 24 59 52 44 12 -6 18 -21 18 -44z"/>
<path d="M3138 3699 c-26 -15 -25 -95 1 -109 26 -13 58 -13 67 2 5 8 0 9 -14
6 -26 -7 -69 23 -58 40 4 7 25 12 47 12 43 0 46 5 23 38 -16 24 -39 27 -66 11z
m62 -29 c0 -6 -16 -10 -35 -10 -40 0 -41 2 -19 24 12 12 20 13 35 6 10 -6 19
-15 19 -20z"/>
<path d="M3256 3695 c-20 -21 -11 -41 25 -54 16 -5 29 -17 29 -25 0 -18 -30
-29 -56 -20 -15 5 -16 4 -8 -5 16 -17 65 -10 78 12 11 19 2 30 -50 64 -17 10
-17 13 -4 22 8 6 23 8 34 5 12 -4 16 -2 12 5 -10 16 -42 14 -60 -4z"/>
<path d="M3454 3698 c-5 -8 0 -9 16 -5 24 6 50 -7 50 -24 0 -5 -10 -9 -23 -9
-35 0 -59 -22 -55 -51 3 -27 42 -39 62 -19 8 9 6 11 -10 6 -14 -4 -26 -1 -35
10 -11 14 -10 18 6 30 29 21 50 13 50 -18 1 -15 4 -30 8 -34 4 -4 7 17 7 47 0
30 -5 60 -12 67 -15 15 -55 16 -64 0z"/>
<path d="M3748 3699 c-26 -15 -25 -95 1 -109 26 -13 58 -13 67 2 5 8 0 9 -14
6 -26 -7 -69 23 -58 40 4 7 25 12 47 12 43 0 46 5 23 38 -16 24 -39 27 -66 11z
m62 -29 c0 -6 -16 -10 -35 -10 -40 0 -41 2 -19 24 12 12 20 13 35 6 10 -6 19
-15 19 -20z"/>
<path d="M3860 3643 c0 -36 4 -63 10 -63 6 0 10 22 10 50 0 37 4 52 18 59 29
16 46 -4 53 -61 l6 -53 2 56 c1 66 -9 79 -62 76 l-37 -2 0 -62z"/>
<path d="M4173 3645 c0 -56 1 -60 4 -20 4 52 23 78 49 68 10 -3 14 -22 14 -59
0 -30 5 -54 10 -54 6 0 10 22 10 50 0 37 4 52 18 58 31 17 42 3 42 -54 0 -30
5 -54 10 -54 15 0 12 94 -4 116 -12 16 -19 17 -43 8 -21 -8 -34 -8 -46 0 -12
8 -22 8 -36 -1 -15 -10 -21 -10 -24 0 -3 7 -5 -19 -4 -58z"/>
<path d="M4394 3698 c-5 -8 -2 -9 9 -5 22 8 47 -2 47 -19 0 -8 -10 -14 -23
-14 -52 0 -75 -49 -35 -74 13 -8 23 -8 37 1 14 9 21 9 30 0 15 -15 15 76 1
104 -12 21 -55 26 -66 7z m56 -68 c0 -21 -27 -40 -47 -33 -7 3 -13 13 -13 23
0 19 13 28 43 29 10 1 17 -6 17 -19z"/>
<path d="M4510 3643 c0 -36 4 -63 10 -63 6 0 10 22 10 50 0 37 4 52 18 58 31
17 42 3 42 -54 0 -30 5 -54 10 -54 15 0 12 106 -3 118 -7 6 -29 10 -50 9 l-37
-2 0 -62z"/>
<path d="M4748 3699 c-26 -15 -25 -95 1 -109 26 -13 58 -13 67 2 5 8 0 9 -14
6 -26 -7 -69 23 -58 40 4 7 25 12 47 12 43 0 46 5 23 38 -16 24 -39 27 -66 11z
m62 -29 c0 -6 -16 -10 -35 -10 -40 0 -41 2 -19 24 12 12 20 13 35 6 10 -6 19
-15 19 -20z"/>
<path d="M4860 3643 c0 -36 4 -63 10 -63 6 0 10 22 10 50 0 37 4 52 18 59 29
16 46 -4 53 -61 l6 -53 2 56 c1 66 -9 79 -62 76 l-37 -2 0 -62z"/>
<path d="M5013 3645 c0 -38 2 -53 4 -32 2 20 2 52 0 70 -2 17 -4 1 -4 -38z"/>
<path d="M5073 3645 c0 -56 1 -60 4 -20 4 52 23 78 49 68 10 -3 14 -22 14 -59
0 -30 5 -54 10 -54 6 0 10 22 10 50 0 37 4 52 18 58 31 17 42 3 42 -54 0 -30
5 -54 10 -54 15 0 12 94 -4 116 -12 16 -19 17 -43 8 -21 -8 -34 -8 -46 0 -12
8 -22 8 -36 -1 -15 -10 -21 -10 -24 0 -3 7 -5 -19 -4 -58z"/>
<path d="M5280 3645 c0 -37 4 -65 10 -65 6 0 10 28 10 65 0 37 -4 65 -10 65
-6 0 -10 -28 -10 -65z"/>
<path d="M5355 3696 c-13 -9 -19 -26 -19 -51 0 -25 6 -42 19 -51 22 -16 61
-19 70 -5 3 5 -9 9 -26 9 -30 -1 -49 14 -49 40 0 7 15 12 40 12 32 0 40 4 40
18 0 39 -40 54 -75 28z m65 -26 c0 -6 -16 -10 -35 -10 -38 0 -46 13 -18 29 19
10 53 -2 53 -19z"/>
<path d="M5470 3643 c0 -36 4 -63 10 -63 6 0 10 22 10 50 0 37 4 52 18 58 31
17 42 3 42 -54 0 -30 5 -54 10 -54 15 0 12 106 -3 118 -7 6 -29 10 -50 9 l-37
-2 0 -62z"/>
<path d="M5707 3692 c-23 -26 -22 -75 3 -97 28 -25 71 -10 84 28 21 60 -47
114 -87 69z m73 -47 c0 -41 -27 -62 -55 -41 -40 29 -7 108 36 85 13 -6 19 -21
19 -44z"/>
<path d="M5990 3613 c0 -56 4 -93 10 -93 6 0 10 16 10 35 0 33 1 34 29 29 50
-10 79 56 46 104 -12 17 -24 21 -55 19 l-40 -2 0 -92z m90 32 c0 -23 -6 -38
-18 -44 -28 -15 -52 5 -52 44 0 39 24 59 52 44 12 -6 18 -21 18 -44z"/>
<path d="M6142 3645 c1 -67 1 -68 7 -20 5 39 11 52 29 60 12 5 22 13 22 17 0
12 -28 9 -36 -3 -4 -8 -9 -7 -15 2 -5 9 -8 -14 -7 -56z"/>
<path d="M6245 3696 c-13 -9 -19 -26 -19 -51 0 -25 6 -42 19 -51 22 -16 61
-19 70 -5 3 5 -9 9 -26 9 -30 -1 -49 14 -49 40 0 7 15 12 40 12 32 0 40 4 40
18 0 39 -40 54 -75 28z m65 -26 c0 -6 -16 -10 -35 -10 -38 0 -46 13 -18 29 19
10 53 -2 53 -19z"/>
<path d="M6363 3648 c12 -34 27 -63 32 -65 6 -2 19 20 30 49 10 29 20 59 23
66 2 6 0 12 -5 12 -5 0 -18 -26 -28 -57 l-18 -58 -19 58 c-11 31 -24 57 -29
57 -4 0 2 -28 14 -62z"/>
<path d="M6487 3692 c-22 -25 -21 -75 1 -95 21 -20 58 -22 68 -5 5 7 1 9 -13
6 -27 -7 -53 9 -53 32 0 17 7 20 40 20 44 0 52 16 24 44 -21 21 -47 20 -67 -2z
m47 2 c28 -11 18 -34 -14 -34 -32 0 -37 9 -18 28 14 14 12 14 32 6z"/>
<path d="M6612 3645 l1 -70 7 55 c4 30 3 62 -1 70 -5 9 -8 -14 -7 -55z"/>
<path d="M6634 3698 c-5 -8 -2 -9 9 -5 35 13 47 -3 47 -59 0 -30 5 -54 10 -54
13 0 13 86 0 111 -12 21 -55 26 -66 7z"/>
<path d="M6830 3645 c0 -37 4 -65 10 -65 6 0 10 28 10 65 0 37 -4 65 -10 65
-6 0 -10 -28 -10 -65z"/>
<path d="M6893 3648 c12 -34 27 -63 32 -65 6 -2 19 20 30 49 10 29 20 59 23
66 2 6 0 12 -5 12 -5 0 -18 -26 -28 -57 l-18 -58 -19 58 c-11 31 -24 57 -29
57 -4 0 2 -28 14 -62z"/>
<path d="M7017 3692 c-23 -26 -22 -75 3 -97 28 -25 71 -10 84 28 21 60 -47
114 -87 69z m73 -47 c0 -41 -27 -62 -55 -41 -40 29 -7 108 36 85 13 -6 19 -21
19 -44z"/>
<path d="M7454 3699 c-3 -6 1 -10 12 -9 55 6 63 -24 10 -34 -69 -13 -55 -77
15 -73 l39 2 0 51 c0 27 -5 55 -12 62 -15 15 -55 16 -64 1z m56 -69 c0 -21
-27 -40 -47 -33 -28 10 -5 53 29 53 11 0 18 -7 18 -20z"/>
<path d="M7570 3643 c0 -36 4 -63 10 -63 6 0 10 22 10 50 0 37 4 52 18 59 29
16 46 -4 53 -61 l6 -53 2 56 c1 66 -9 79 -62 76 l-37 -2 0 -62z"/>
<path d="M7870 3613 c0 -56 4 -93 10 -93 6 0 10 16 10 35 0 33 1 34 29 29 50
-10 79 56 46 104 -12 17 -24 21 -55 19 l-40 -2 0 -92z m90 32 c0 -23 -6 -38
-18 -44 -28 -15 -52 5 -52 44 0 39 24 59 52 44 12 -6 18 -21 18 -44z"/>
<path d="M8022 3645 c1 -67 1 -68 7 -20 5 39 11 52 29 60 12 5 22 13 22 17 0
12 -28 9 -36 -3 -4 -8 -9 -7 -15 2 -5 9 -8 -14 -7 -56z"/>
<path d="M8125 3696 c-42 -31 -16 -116 36 -116 28 0 49 28 49 65 0 56 -43 82
-85 51z m69 -30 c13 -52 -27 -92 -59 -59 -20 20 -19 70 1 81 24 14 52 3 58
-22z"/>
<path d="M8250 3643 c0 -36 4 -63 10 -63 6 0 10 22 10 50 0 37 4 52 18 58 31
17 42 3 42 -54 0 -30 5 -54 10 -54 15 0 12 106 -3 118 -7 6 -29 10 -50 9 l-37
-2 0 -62z"/>
<path d="M8487 3692 c-23 -26 -22 -75 3 -97 28 -25 71 -10 84 28 21 60 -47
114 -87 69z m73 -47 c0 -41 -27 -62 -55 -41 -40 29 -7 108 36 85 13 -6 19 -21
19 -44z"/>
<path d="M916 3601 c-4 -5 -2 -12 3 -15 5 -4 12 -2 15 3 4 5 2 12 -3 15 -5 4
-12 2 -15 -3z"/>
<path d="M1780 3595 c0 -8 5 -15 10 -15 6 0 10 7 10 15 0 8 -4 15 -10 15 -5 0
-10 -7 -10 -15z"/>
<path d="M2490 3595 c0 -8 5 -15 10 -15 6 0 10 7 10 15 0 8 -4 15 -10 15 -5 0
-10 -7 -10 -15z"/>
<path d="M7138 3580 c-5 -35 7 -41 16 -7 8 30 7 37 -3 37 -5 0 -11 -13 -13
-30z"/>
<path d="M377 3383 c-4 -3 -7 -15 -7 -25 0 -10 -5 -18 -11 -18 -8 0 -8 -4 -1
-13 6 -7 12 -37 15 -67 l3 -55 2 57 c2 42 6 60 20 67 16 10 16 10 0 11 -10 0
-18 7 -18 15 0 14 12 19 33 16 4 0 7 4 7 9 0 11 -33 14 -43 3z"/>
<path d="M774 3300 c0 -52 1 -74 3 -47 2 26 2 68 0 95 -2 26 -3 4 -3 -48z"/>
<path d="M2192 3378 c-13 -17 -15 -29 -13 -105 1 -80 21 -83 21 -4 0 48 3 60
18 64 16 4 15 5 -1 6 -12 1 -17 7 -15 19 2 9 11 16 21 16 9 -1 17 2 17 7 0 14
-36 11 -48 -3z"/>
<path d="M4969 3358 c0 -18 -2 -55 -3 -81 -1 -26 2 -53 6 -60 4 -7 8 30 8 81
0 50 -2 92 -5 92 -3 0 -5 -15 -6 -32z"/>
<path d="M7154 3300 c0 -52 1 -74 3 -47 2 26 2 68 0 95 -2 26 -3 4 -3 -48z"/>
<path d="M8370 3359 c0 -29 -2 -30 -30 -24 -43 9 -60 -8 -60 -60 0 -54 20 -73
60 -58 21 8 30 8 34 -1 2 -6 5 31 5 82 1 50 -1 92 -4 92 -3 0 -5 -14 -5 -31z
m-11 -62 c11 -30 1 -65 -20 -70 -41 -11 -66 54 -34 87 19 18 44 11 54 -17z"/>
<path d="M8564 3300 c0 -52 1 -74 3 -47 2 26 2 68 0 95 -2 26 -3 4 -3 -48z"/>
<path d="M2120 3369 c0 -5 5 -7 10 -4 6 3 10 8 10 11 0 2 -4 4 -10 4 -5 0 -10
-5 -10 -11z"/>
<path d="M2041 3358 c0 -10 -7 -18 -13 -18 -10 0 -10 -2 -1 -8 6 -4 13 -32 15
-62 3 -50 5 -55 28 -58 l25 -3 -22 16 c-17 12 -23 26 -23 56 0 32 4 41 23 49
l22 9 -22 0 c-12 1 -24 9 -26 19 -4 16 -5 16 -6 0z"/>
<path d="M5771 3358 c0 -10 -7 -18 -13 -18 -10 0 -10 -2 -1 -8 6 -4 13 -32 15
-62 3 -50 5 -55 28 -58 l25 -3 -22 16 c-18 12 -23 26 -23 60 0 37 3 44 23 48
22 4 22 4 0 6 -12 0 -24 9 -26 19 -4 16 -5 16 -6 0z"/>
<path d="M443 3275 c0 -38 2 -53 4 -32 2 20 2 52 0 70 -2 17 -4 1 -4 -38z"/>
<path d="M502 3275 l1 -70 7 55 c4 30 3 62 -1 70 -5 9 -8 -14 -7 -55z"/>
<path d="M524 3328 c-5 -8 -2 -9 9 -5 35 13 47 -3 47 -59 0 -30 5 -54 10 -54
13 0 13 86 0 111 -12 21 -55 26 -66 7z"/>
<path d="M654 3328 c-5 -8 -2 -9 9 -5 22 8 47 -2 47 -19 0 -8 -10 -14 -23 -14
-52 0 -75 -49 -35 -74 13 -8 23 -8 37 1 14 9 21 9 30 0 15 -15 15 76 1 104
-12 21 -55 26 -66 7z m56 -68 c0 -21 -27 -40 -47 -33 -7 3 -13 13 -13 23 0 19
13 28 43 29 10 1 17 -6 17 -19z"/>
<path d="M833 3275 c0 -38 2 -53 4 -32 2 20 2 52 0 70 -2 17 -4 1 -4 -38z"/>
<path d="M897 3322 c-22 -25 -21 -75 1 -95 21 -19 62 -23 62 -6 0 6 -6 9 -14
6 -22 -9 -48 17 -48 48 0 31 26 57 48 48 8 -3 14 0 14 6 0 18 -45 13 -63 -7z"/>
<path d="M1007 3322 c-22 -25 -21 -75 1 -95 21 -20 58 -22 68 -5 5 7 1 9 -13
6 -27 -7 -53 9 -53 32 0 17 7 20 40 20 44 0 52 16 24 44 -21 21 -47 20 -67 -2z
m47 2 c28 -11 18 -34 -14 -34 -32 0 -37 9 -18 28 14 14 12 14 32 6z"/>
<path d="M1133 3275 c0 -56 1 -60 4 -20 4 52 23 78 49 68 10 -3 14 -22 14 -59
0 -30 5 -54 10 -54 6 0 10 22 10 50 0 37 4 52 18 58 31 17 42 3 42 -54 0 -30
5 -54 10 -54 15 0 12 94 -4 116 -12 16 -19 17 -43 8 -21 -8 -34 -8 -46 0 -12
8 -22 8 -36 -1 -15 -10 -21 -10 -24 0 -3 7 -5 -19 -4 -58z"/>
<path d="M1358 3329 c-26 -15 -25 -95 1 -109 45 -23 81 1 81 55 0 54 -39 80
-82 54z m56 -15 c9 -8 16 -26 16 -39 0 -23 -23 -55 -40 -55 -17 0 -40 32 -40
55 0 23 23 55 40 55 5 0 16 -7 24 -16z"/>
<path d="M1486 3325 c-20 -21 -11 -41 25 -54 16 -5 29 -17 29 -25 0 -18 -30
-29 -56 -20 -15 5 -16 4 -8 -5 16 -17 65 -10 78 12 11 19 2 30 -50 64 -17 10
-17 13 -4 22 8 6 23 8 34 5 12 -4 16 -2 12 5 -10 16 -42 14 -60 -4z"/>
<path d="M1762 3275 l1 -70 7 55 c4 30 3 62 -1 70 -5 9 -8 -14 -7 -55z"/>
<path d="M1784 3328 c-5 -8 -2 -9 11 -5 29 12 45 -11 45 -64 0 -30 4 -49 11
-49 17 0 6 110 -12 121 -20 12 -47 11 -55 -3z"/>
<path d="M1906 3318 c-45 -64 27 -146 77 -90 10 10 17 32 17 49 0 57 -64 84
-94 41z m74 -43 c0 -23 -6 -38 -18 -44 -28 -15 -52 5 -52 44 0 39 24 59 52 44
12 -6 18 -21 18 -44z"/>
<path d="M2120 3275 c0 -37 4 -65 10 -65 6 0 10 28 10 65 0 37 -4 65 -10 65
-6 0 -10 -28 -10 -65z"/>
<path d="M2263 3275 c0 -38 2 -53 4 -32 2 20 2 52 0 70 -2 17 -4 1 -4 -38z"/>
<path d="M2327 3322 c-22 -25 -21 -75 1 -95 21 -19 62 -23 62 -6 0 6 -6 9 -14
6 -22 -9 -48 17 -48 48 0 31 26 57 48 48 8 -3 14 0 14 6 0 18 -45 13 -63 -7z"/>
<path d="M2434 3328 c-5 -8 0 -9 16 -5 24 6 50 -7 50 -24 0 -5 -10 -9 -23 -9
-35 0 -59 -22 -55 -51 3 -27 42 -39 62 -19 8 9 6 11 -10 6 -14 -4 -26 -1 -35
10 -11 14 -10 18 6 30 29 21 50 13 50 -18 1 -15 4 -30 8 -34 4 -4 7 17 7 47 0
30 -5 60 -12 67 -15 15 -55 16 -64 0z"/>
<path d="M2562 3275 c1 -67 1 -68 7 -20 5 39 11 52 29 60 12 5 22 13 22 17 0
12 -28 9 -36 -3 -4 -8 -9 -7 -15 2 -5 9 -8 -14 -7 -56z"/>
<path d="M2665 3326 c-13 -9 -19 -26 -19 -51 0 -25 6 -42 19 -51 22 -16 61
-19 70 -5 3 5 -9 9 -26 9 -30 -1 -49 14 -49 40 0 7 15 12 40 12 32 0 40 4 40
18 0 39 -40 54 -75 28z m65 -26 c0 -6 -16 -10 -35 -10 -38 0 -46 13 -18 29 19
10 53 -2 53 -19z"/>
<path d="M2781 3278 c-1 -39 3 -68 9 -68 6 0 10 22 10 49 0 95 59 93 61 -3 l1
-51 8 54 c9 58 24 75 51 60 13 -6 19 -25 22 -62 4 -51 4 -51 3 7 -1 66 -20 91
-54 69 -13 -7 -24 -8 -36 -1 -12 7 -26 7 -41 0 -18 -8 -25 -8 -29 1 -2 7 -5
-18 -5 -55z"/>
<path d="M3007 3322 c-23 -26 -22 -75 3 -97 28 -25 71 -10 84 28 21 60 -47
114 -87 69z m73 -47 c0 -41 -27 -62 -55 -41 -40 29 -7 108 36 85 13 -6 19 -21
19 -44z"/>
<path d="M3142 3331 c-19 -12 -11 -43 13 -56 44 -22 47 -26 34 -42 -8 -9 -21
-12 -36 -8 -13 3 -23 1 -23 -5 0 -14 53 -13 68 2 21 21 13 44 -23 61 -19 9
-35 21 -35 26 0 13 25 20 51 14 15 -4 20 -3 15 5 -8 14 -45 15 -64 3z"/>
<path d="M3351 3248 c-1 -59 3 -98 9 -98 6 0 10 16 10 35 0 32 2 34 28 29 36
-7 56 15 56 62 0 49 -25 72 -64 57 -21 -8 -30 -8 -34 1 -2 6 -5 -33 -5 -86z
m73 66 c35 -34 5 -105 -35 -84 -34 19 -21 93 18 100 1 0 9 -7 17 -16z"/>
<path d="M3504 3329 c-3 -6 1 -10 12 -9 55 6 63 -24 10 -34 -69 -13 -55 -77
15 -73 l39 2 0 51 c0 27 -5 55 -12 62 -15 15 -55 16 -64 1z m56 -69 c0 -21
-27 -40 -47 -33 -28 10 -5 53 29 53 11 0 18 -7 18 -20z"/>
<path d="M3620 3276 c0 -78 18 -89 22 -13 3 45 6 52 26 55 12 2 22 8 22 13 0
12 -27 11 -35 -1 -5 -8 -11 -7 -21 1 -12 10 -14 1 -14 -55z"/>
<path d="M3730 3329 c-12 -8 -10 -10 9 -5 25 5 51 -8 51 -25 0 -5 -9 -9 -21
-9 -57 0 -85 -63 -33 -76 15 -4 30 -2 37 6 9 10 7 11 -9 6 -31 -9 -50 17 -29
38 9 9 26 16 37 16 16 0 19 -5 15 -23 -4 -12 -2 -29 3 -37 7 -10 10 4 10 46 0
47 -4 63 -16 68 -22 9 -37 7 -54 -5z"/>
<path d="M3959 3324 c-17 -21 -17 -78 1 -99 10 -11 23 -15 42 -11 26 5 28 3
28 -29 0 -19 5 -35 10 -35 6 0 10 37 10 93 l0 92 -39 2 c-25 2 -44 -3 -52 -13z
m71 -49 c0 -23 -6 -38 -18 -44 -28 -15 -52 5 -52 44 0 39 24 59 52 44 12 -6
18 -21 18 -44z"/>
<path d="M4090 3286 c0 -66 17 -85 60 -69 21 8 30 8 34 -1 2 -6 4 21 4 59 l0
70 -9 -50 c-15 -91 -69 -98 -69 -9 0 30 -4 54 -10 54 -5 0 -10 -24 -10 -54z"/>
<path d="M4247 3322 c-22 -25 -21 -75 1 -95 21 -20 58 -22 68 -5 5 7 1 9 -13
6 -27 -7 -53 9 -53 32 0 17 7 20 40 20 44 0 52 16 24 44 -21 21 -47 20 -67 -2z
m47 2 c28 -11 18 -34 -14 -34 -32 0 -37 9 -18 28 14 14 12 14 32 6z"/>
<path d="M4471 3248 c-1 -59 3 -98 9 -98 6 0 10 16 10 35 0 32 2 34 28 29 36
-7 56 15 56 62 0 49 -25 72 -64 57 -21 -8 -30 -8 -34 1 -2 6 -5 -33 -5 -86z
m73 66 c35 -34 5 -105 -35 -84 -34 19 -21 93 18 100 1 0 9 -7 17 -16z"/>
<path d="M4610 3286 c0 -66 17 -85 60 -69 21 8 30 8 34 -1 2 -6 4 21 4 59 l0
70 -9 -50 c-15 -91 -69 -98 -69 -9 0 30 -4 54 -10 54 -5 0 -10 -24 -10 -54z"/>
<path d="M4767 3322 c-22 -25 -21 -75 1 -95 21 -20 58 -22 68 -5 5 7 1 9 -13
6 -27 -7 -53 9 -53 32 0 17 7 20 40 20 44 0 52 16 24 44 -21 21 -47 20 -67 -2z
m47 2 c28 -11 18 -34 -14 -34 -32 0 -37 9 -18 28 14 14 12 14 32 6z"/>
<path d="M4896 3324 c-35 -34 -11 -114 34 -114 10 0 22 5 26 11 4 7 0 9 -13 5
-25 -8 -45 15 -45 49 0 34 20 57 45 49 13 -4 17 -2 13 5 -10 16 -42 14 -60 -5z"/>
<path d="M5040 3329 c-12 -8 -10 -10 9 -5 25 5 51 -8 51 -25 0 -5 -9 -9 -21
-9 -57 0 -85 -63 -33 -76 15 -4 30 -2 37 6 9 10 7 11 -9 6 -31 -9 -50 17 -29
38 9 9 26 16 37 16 16 0 19 -5 15 -23 -4 -12 -2 -29 3 -37 7 -10 10 4 10 46 0
47 -4 63 -16 68 -22 9 -37 7 -54 -5z"/>
<path d="M5162 3328 c-20 -20 -14 -35 23 -57 19 -11 35 -24 35 -30 0 -13 -30
-22 -51 -16 -11 4 -19 2 -19 -4 0 -12 39 -15 64 -5 30 11 19 49 -20 67 -30 15
-34 20 -24 32 8 10 21 13 38 8 17 -4 23 -2 18 6 -9 15 -49 14 -64 -1z"/>
<path d="M5386 3327 c-13 -10 -17 -24 -14 -57 3 -38 7 -46 31 -54 20 -7 30 -6
40 3 10 11 8 13 -11 8 -26 -6 -52 15 -52 43 0 36 12 50 42 50 17 0 27 4 23 10
-9 14 -38 12 -59 -3z"/>
<path d="M5498 3329 c-26 -15 -25 -95 1 -109 45 -23 81 1 81 55 0 54 -39 80
-82 54z m56 -15 c9 -8 16 -26 16 -39 0 -23 -23 -55 -40 -55 -17 0 -40 32 -40
55 0 23 23 55 40 55 5 0 16 -7 24 -16z"/>
<path d="M5620 3273 c0 -36 4 -63 10 -63 6 0 10 22 10 50 0 37 4 52 18 59 29
16 46 -4 53 -61 l6 -53 2 56 c1 66 -9 79 -62 76 l-37 -2 0 -62z"/>
<path d="M5853 3275 c0 -38 2 -53 4 -32 2 20 2 52 0 70 -2 17 -4 1 -4 -38z"/>
<path d="M5912 3275 l1 -70 7 55 c4 30 3 62 -1 70 -5 9 -8 -14 -7 -55z"/>
<path d="M5934 3328 c-5 -8 -2 -9 11 -5 29 12 45 -11 45 -64 0 -30 4 -49 11
-49 17 0 6 110 -12 121 -20 12 -47 11 -55 -3z"/>
<path d="M6052 3283 c-2 -59 -1 -63 23 -69 15 -4 32 -1 40 6 10 9 15 9 15 1 0
-6 5 -11 10 -11 6 0 10 28 10 65 0 37 -4 65 -10 65 -5 0 -10 -22 -10 -50 0
-40 -4 -51 -21 -60 -31 -17 -47 3 -52 63 l-3 52 -2 -62z"/>
<path d="M6204 3328 c-5 -8 -2 -9 9 -5 22 8 47 -2 47 -19 0 -8 -10 -14 -23
-14 -52 0 -75 -49 -35 -74 13 -8 23 -8 37 1 14 9 21 9 30 0 15 -15 15 76 1
104 -12 21 -55 26 -66 7z m56 -68 c0 -21 -27 -40 -47 -33 -7 3 -13 13 -13 23
0 19 13 28 43 29 10 1 17 -6 17 -19z"/>
<path d="M6320 3278 c0 -39 4 -68 10 -68 6 0 10 23 10 50 0 46 3 52 28 61 16
7 22 13 14 16 -7 3 -20 -1 -28 -8 -13 -10 -17 -10 -25 2 -6 9 -9 -9 -9 -53z"/>
<path d="M6539 3330 c-22 -13 -31 -53 -19 -84 11 -30 55 -45 73 -26 10 10 7
12 -11 7 -26 -6 -52 15 -52 43 0 36 12 50 42 50 17 0 27 4 23 10 -8 13 -35 12
-56 0z"/>
<path d="M6645 3326 c-42 -31 -16 -116 36 -116 28 0 49 28 49 65 0 56 -43 82
-85 51z m69 -30 c13 -52 -27 -92 -59 -59 -20 20 -19 70 1 81 24 14 52 3 58
-22z"/>
<path d="M6770 3273 c0 -36 4 -63 10 -63 6 0 10 22 10 50 0 37 4 52 18 58 31
17 42 3 42 -54 0 -30 5 -54 10 -54 15 0 12 106 -3 118 -7 6 -29 10 -50 9 l-37
-2 0 -62z"/>
<path d="M7026 3318 c-33 -46 -7 -108 44 -108 16 0 32 5 36 12 5 8 0 9 -16 5
-30 -8 -60 9 -60 33 0 17 7 20 40 20 44 0 52 16 24 44 -22 22 -50 20 -68 -6z
m64 -14 c0 -9 -11 -14 -30 -14 -33 0 -39 14 -13 28 21 12 43 5 43 -14z"/>
<path d="M7311 3248 c-1 -59 3 -98 9 -98 6 0 10 16 10 35 0 32 2 34 28 29 36
-7 56 15 56 62 0 49 -25 72 -64 57 -21 -8 -30 -8 -34 1 -2 6 -5 -33 -5 -86z
m73 66 c35 -34 5 -105 -35 -84 -34 19 -21 93 18 100 1 0 9 -7 17 -16z"/>
<path d="M7450 3276 c0 -78 18 -89 22 -13 3 45 6 52 26 55 12 2 22 8 22 13 0
12 -27 11 -35 -1 -5 -8 -11 -7 -21 1 -12 10 -14 1 -14 -55z"/>
<path d="M7556 3318 c-45 -64 27 -146 77 -90 10 10 17 32 17 49 0 57 -64 84
-94 41z m74 -43 c0 -23 -6 -38 -18 -44 -28 -15 -52 5 -52 44 0 39 24 59 52 44
12 -6 18 -21 18 -44z"/>
<path d="M7696 3318 c-21 -30 -20 -71 2 -91 21 -19 62 -23 62 -6 0 6 -6 9 -12
6 -26 -9 -48 13 -48 48 0 35 22 57 48 48 6 -3 12 0 12 6 0 20 -49 12 -64 -11z"/>
<path d="M7806 3318 c-33 -46 -7 -108 44 -108 16 0 32 5 36 12 5 8 0 9 -16 5
-30 -8 -60 9 -60 33 0 17 7 20 40 20 44 0 52 16 24 44 -22 22 -50 20 -68 -6z
m64 -14 c0 -9 -11 -14 -30 -14 -33 0 -39 14 -13 28 21 12 43 5 43 -14z"/>
<path d="M7932 3328 c-20 -20 -14 -35 23 -57 19 -11 35 -24 35 -30 0 -13 -30
-22 -51 -16 -11 4 -19 2 -19 -4 0 -12 39 -15 64 -5 30 11 19 49 -20 67 -30 15
-34 20 -24 32 8 10 21 13 38 8 17 -4 23 -2 18 6 -9 15 -49 14 -64 -1z"/>
<path d="M8046 3318 c-45 -64 27 -146 77 -90 10 10 17 32 17 49 0 57 -64 84
-94 41z m74 -43 c0 -23 -6 -38 -18 -44 -28 -15 -52 5 -52 44 0 39 24 59 52 44
12 -6 18 -21 18 -44z"/>
<path d="M8437 3322 c-22 -25 -21 -75 1 -95 21 -20 58 -22 68 -5 5 7 1 9 -13
6 -27 -7 -53 9 -53 32 0 17 7 20 40 20 44 0 52 16 24 44 -21 21 -47 20 -67 -2z
m47 2 c28 -11 18 -34 -14 -34 -32 0 -37 9 -18 28 14 14 12 14 32 6z"/>
<path d="M1586 3214 c-9 -36 1 -43 14 -10 12 33 12 36 1 36 -5 0 -12 -12 -15
-26z"/>
<path d="M822 2930 c-1 -59 2 -90 7 -81 5 8 7 29 4 46 -7 41 19 70 48 55 42
-23 14 -108 -30 -92 -8 3 -11 0 -7 -7 10 -16 42 -14 60 5 21 20 20 78 -1 99
-11 11 -26 15 -44 11 -25 -5 -28 -2 -32 27 -2 18 -4 -11 -5 -63z"/>
<path d="M1299 2988 c0 -18 -2 -55 -3 -81 -1 -26 2 -53 6 -60 4 -7 8 30 8 81
0 50 -2 92 -5 92 -3 0 -5 -15 -6 -32z"/>
<path d="M1824 2930 c0 -52 1 -74 3 -47 2 26 2 68 0 95 -2 26 -3 4 -3 -48z"/>
<path d="M1545 3000 c3 -5 8 -10 11 -10 2 0 4 5 4 10 0 6 -5 10 -11 10 -5 0
-7 -4 -4 -10z"/>
<path d="M2275 2997 c-28 -21 -13 -59 30 -80 49 -23 44 -51 -8 -55 -42 -4 -41
-22 2 -22 34 0 65 31 57 57 -4 11 -22 27 -41 36 -49 23 -49 57 1 57 21 0 33 4
29 10 -9 14 -48 12 -70 -3z"/>
<path d="M2416 2989 c-21 -16 -26 -29 -26 -64 0 -35 5 -48 26 -64 27 -21 58
-26 88 -15 11 4 16 19 16 45 0 35 -3 39 -25 39 -14 0 -25 -4 -25 -10 0 -5 7
-10 15 -10 23 0 19 -47 -4 -53 -51 -13 -94 49 -69 100 11 23 20 29 56 31 23 2
40 7 37 13 -11 16 -61 10 -89 -12z"/>
<path d="M2648 2999 c-35 -20 -19 -57 36 -84 11 -6 22 -21 24 -33 3 -23 -6
-26 -57 -22 -14 1 -21 -2 -17 -9 11 -16 62 -13 80 5 27 27 19 52 -24 74 -54
27 -56 60 -4 60 21 0 33 4 29 10 -8 13 -45 12 -67 -1z"/>
<path d="M2775 2997 c-28 -21 -13 -59 30 -80 49 -23 44 -51 -8 -55 -42 -4 -41
-22 2 -22 34 0 65 31 57 57 -4 11 -22 27 -41 36 -49 23 -49 57 1 57 21 0 33 4
29 10 -9 14 -48 12 -70 -3z"/>
<path d="M2870 3000 c0 -5 13 -10 30 -10 l29 0 4 -77 3 -78 2 78 c2 75 3 77
27 77 14 0 25 5 25 10 0 6 -27 10 -60 10 -33 0 -60 -4 -60 -10z"/>
<path d="M1606 2985 c-11 -26 -7 -117 6 -132 6 -7 18 -13 27 -13 14 1 14 2 -1
14 -13 9 -18 27 -18 59 0 35 4 47 18 50 15 4 15 5 0 6 -9 0 -18 9 -20 19 -3
15 -5 15 -12 -3z"/>
<path d="M379 2960 c-22 -13 -31 -53 -19 -84 11 -30 55 -45 73 -26 10 10 7 12
-11 7 -26 -6 -52 15 -52 43 0 36 12 50 42 50 17 0 27 4 23 10 -8 13 -35 12
-56 0z"/>
<path d="M484 2958 c-5 -8 -2 -9 9 -5 22 8 47 -2 47 -19 0 -8 -10 -14 -23 -14
-52 0 -75 -49 -35 -74 13 -8 23 -8 37 1 14 9 21 9 30 0 15 -15 15 76 1 104
-12 21 -55 26 -66 7z m56 -68 c0 -21 -27 -40 -47 -33 -7 3 -13 13 -13 23 0 19
13 28 43 29 10 1 17 -6 17 -19z"/>
<path d="M602 2905 l1 -70 7 55 c4 30 3 62 -1 70 -5 9 -8 -14 -7 -55z"/>
<path d="M624 2958 c-5 -7 -2 -9 8 -6 27 11 42 -10 49 -64 l6 -53 2 52 c1 39
6 55 19 61 31 17 42 3 42 -54 0 -31 4 -54 10 -54 7 0 10 22 8 56 -3 66 -23 88
-59 66 -15 -10 -24 -11 -32 -3 -14 14 -44 14 -53 -1z"/>
<path d="M963 2905 c0 -38 2 -53 4 -32 2 20 2 52 0 70 -2 17 -4 1 -4 -38z"/>
<path d="M1027 2952 c-23 -26 -22 -75 3 -97 28 -25 71 -10 84 28 21 60 -47
114 -87 69z m73 -47 c0 -41 -27 -62 -55 -41 -40 29 -7 108 36 85 13 -6 19 -21
19 -44z"/>
<path d="M1226 2954 c-21 -20 -21 -78 0 -98 18 -19 50 -21 60 -5 4 7 0 9 -13
5 -25 -8 -45 15 -45 49 0 34 20 57 45 49 13 -4 17 -2 13 5 -10 16 -42 14 -60
-5z"/>
<path d="M1363 2905 c0 -38 2 -53 4 -32 2 20 2 52 0 70 -2 17 -4 1 -4 -38z"/>
<path d="M1422 2958 c-14 -14 -16 -44 -3 -52 10 -7 5 -39 -11 -73 -14 -28 4
-53 39 -53 37 0 63 18 63 44 0 26 -17 36 -57 36 -29 0 -27 23 3 29 31 5 46 23
41 48 -2 12 1 24 7 27 6 2 -7 5 -29 5 -23 1 -46 -4 -53 -11z m53 -28 c0 -16
-6 -26 -18 -28 -19 -4 -32 20 -23 44 9 25 41 13 41 -16z m3 -86 c12 -4 22 -12
22 -20 0 -19 -37 -36 -60 -29 -22 7 -27 40 -7 48 17 7 19 7 45 1z"/>
<path d="M1553 2905 c0 -38 2 -53 4 -32 2 20 2 52 0 70 -2 17 -4 1 -4 -38z"/>
<path d="M1694 2958 c-5 -8 0 -9 16 -5 24 6 50 -7 50 -24 0 -5 -10 -9 -23 -9
-35 0 -59 -22 -55 -51 3 -27 42 -39 62 -19 8 9 6 11 -10 6 -14 -4 -26 -1 -35
10 -11 14 -10 18 6 30 29 21 50 13 50 -18 1 -15 4 -30 8 -34 4 -4 7 17 7 47 0
30 -5 60 -12 67 -15 15 -55 16 -64 0z"/>
<path d="M1948 2959 c-26 -15 -25 -95 1 -109 26 -13 58 -13 67 2 5 8 0 9 -14
6 -26 -7 -69 23 -58 40 4 7 25 12 47 12 43 0 46 5 23 38 -16 24 -39 27 -66 11z
m62 -29 c0 -6 -16 -10 -35 -10 -40 0 -41 2 -19 24 12 12 20 13 35 6 10 -6 19
-15 19 -20z"/>
<path d="M2060 2903 c0 -36 4 -63 10 -63 6 0 10 22 10 50 0 37 4 52 18 59 29
16 46 -4 53 -61 l6 -53 2 56 c1 66 -9 79 -62 76 l-37 -2 0 -62z"/>
<path d="M2550 2900 c0 -5 11 -10 25 -10 14 0 25 5 25 10 0 6 -11 10 -25 10
-14 0 -25 -4 -25 -10z"/>
<path d="M3020 2855 c0 -8 5 -15 10 -15 6 0 10 7 10 15 0 8 -4 15 -10 15 -5 0
-10 -7 -10 -15z"/>
<path d="M289 2457 c-53 -94 -40 -89 -206 -73 l-83 9 0 -195 0 -195 67 -12
c90 -17 197 -55 261 -94 30 -17 91 -71 137 -118 133 -138 195 -288 196 -477 1
-212 -72 -386 -222 -527 -101 -95 -250 -166 -382 -181 l-57 -7 0 -243 c0 -152
4 -262 12 -294 l12 -52 100 4 c65 2 131 12 184 27 l82 23 -7 67 c-4 36 -8 83
-8 105 l0 38 120 69 c66 37 123 68 128 69 4 0 42 -27 84 -60 41 -33 79 -60 82
-60 11 0 194 190 220 228 l23 32 -50 58 c-27 31 -59 65 -70 75 -20 18 -20 19
42 152 l61 134 106 1 107 0 16 88 c9 48 19 128 22 178 l7 91 -93 18 c-50 11
-98 24 -105 30 -11 9 -71 283 -63 289 2 2 39 27 83 56 44 29 81 54 83 55 7 6
-71 161 -118 234 -59 93 -47 90 -169 35 l-74 -34 -41 37 c-22 20 -71 65 -108
99 l-68 64 35 97 c26 73 32 99 22 105 -74 48 -277 138 -311 138 -6 0 -32 -37
-57 -83z"/>
<path d="M0 1647 l0 -145 38 -15 c20 -8 51 -30 69 -49 84 -88 84 -208 -1 -293
-24 -24 -57 -46 -75 -50 l-31 -7 0 -144 0 -144 24 0 c41 0 149 38 198 69 165
105 258 307 228 497 -33 213 -198 380 -412 418 l-38 7 0 -144z"/>
<path d="M7560 667 c0 -89 1 -93 36 -142 19 -28 43 -53 52 -57 25 -10 182 -10
182 0 0 5 -10 18 -23 30 -18 17 -36 22 -74 22 -85 0 -83 -3 -83 126 l0 114
-45 0 -45 0 0 -93z"/>
<path d="M8145 720 c22 -23 41 -36 43 -30 2 6 45 10 108 10 l105 0 -3 -32 -3
-33 -88 -3 -89 -3 88 -84 c86 -84 88 -85 138 -85 l50 0 -57 58 c-32 32 -54 61
-51 65 4 4 22 7 40 7 23 0 37 6 44 19 20 39 11 67 -36 109 l-45 42 -142 0
-141 0 39 -40z"/>
<path d="M7006 606 c-48 -80 -48 -188 1 -246 42 -50 98 -74 175 -75 58 0 72 4
110 30 87 62 118 175 47 175 -43 0 -48 -58 -6 -77 21 -10 21 -10 -12 -28 -74
-38 -192 -2 -246 74 -24 34 -30 54 -35 119 l-5 77 -29 -49z m359 -146 c3 -5 2
-10 -4 -10 -5 0 -13 5 -16 10 -3 6 -2 10 4 10 5 0 13 -4 16 -10z"/>
<path d="M8385 379 c-3 -14 -5 -45 -2 -70 3 -41 4 -40 7 16 l3 60 7 -60 7 -60
1 55 c2 63 -13 100 -23 59z"/>
<path d="M7581 328 c0 -34 3 -56 6 -48 2 8 9 24 15 36 12 26 7 66 -9 72 -10 3
-13 -13 -12 -60z m16 5 c-3 -10 -5 -2 -5 17 0 19 2 27 5 18 2 -10 2 -26 0 -35z"/>
<path d="M7682 328 l2 -63 3 58 c3 39 8 55 15 51 7 -4 8 -3 4 4 -17 27 -26 8
-24 -50z"/>
<path d="M7790 328 c0 -34 2 -59 5 -56 8 8 11 118 3 118 -5 0 -8 -28 -8 -62z"/>
<path d="M7990 328 c0 -34 2 -59 5 -56 8 8 11 118 3 118 -5 0 -8 -28 -8 -62z"/>
<path d="M8194 377 c-3 -8 -3 -36 -1 -63 l3 -49 3 60 c3 50 5 55 11 30 l8 -30
1 27 c1 30 -16 47 -25 25z"/>
<path d="M8081 323 c1 -44 3 -52 9 -33 8 24 8 24 9 3 1 -13 6 -23 11 -23 6 0
9 25 9 58 -1 47 -3 52 -9 27 -6 -23 -8 -25 -9 -8 0 12 -5 25 -11 28 -6 4 -10
-16 -9 -52z"/>
<path d="M8481 323 c1 -48 3 -53 9 -28 l8 30 1 -27 c2 -55 21 -27 20 30 -1 47
-3 52 -9 27 l-8 -30 -1 28 c-2 54 -21 26 -20 -30z"/>
<path d="M7902 360 c-1 -8 -5 -33 -8 -55 -5 -31 -4 -37 5 -29 7 7 11 29 8 55
-2 24 -4 37 -5 29z"/>
<path d="M8212 295 c0 -16 2 -22 5 -12 2 9 2 23 0 30 -3 6 -5 -1 -5 -18z"/>
</g>
</svg>
