<?xml version="1.0" encoding="utf-8"?>
<!-- Generator: Adobe Illustrator 16.0.0, SVG Export Plug-In . SVG Version: 6.00 Build 0)  -->
<!DOCTYPE svg PUBLIC "-//W3C//DTD SVG 1.1//EN" "http://www.w3.org/Graphics/SVG/1.1/DTD/svg11.dtd">
<svg version="1.1" id="Capa_1" xmlns="http://www.w3.org/2000/svg" xmlns:xlink="http://www.w3.org/1999/xlink" x="0px" y="0px"
	 width="45.354px" height="45.354px" viewBox="0 0 45.354 45.354" enable-background="new 0 0 45.354 45.354" xml:space="preserve">
<g>
	<path fill="#ED6926" d="M45.354,22.677c0,12.523-10.154,22.678-22.676,22.678C10.15,45.355,0,35.201,0,22.677
		C0,10.152,10.15,0,22.678,0C35.199,0,45.354,10.152,45.354,22.677z"/>
	<g>
		<circle fill="#FFFFFF" cx="9.324" cy="17.707" r="3.641"/>
		<path fill="#FFFFFF" d="M19.567,25.461c2.696,1.615,5.247,3.057,7.009,3.696c1.357,0.491,4.396,0.386,5.672,1.059
			c1.348,0.711,2.537,3.016,3.953,4.107c0.56,0.432,2.018-0.771,1.664-1.384c-1.09-1.888-3.195-4.239-4.937-4.843
			c-1.198-0.416-5.013-0.795-5.013-0.795s3.663-2.537,5.013-3.139c1.502-0.67,4.18-1.486,6.319-1.816
			c0.561-0.086,0.568-2.273,0-2.273c-1.533,0-5.404,1.104-7,1.979c-1.564,0.855-6.229,3.473-6.229,3.473l-9.504-5.451
			c0,0,6.139-0.857,7.336-2.367c1.022-1.289,1.077-5.454,0.542-6.559c-0.205-0.426-1.19-0.124-1.508,0.228
			c-0.869,0.96-0.193,3.856-0.932,4.919c-1.195,1.716-8.049,2.283-8.049,2.283l-1.16,2.407c0,0-0.62,8.6,1.546,9.395
			c2.125,0.78,4.81-4.249,6.191-6.387c0.294-0.454-1.171-1.433-1.702-1.333c-1.258,0.232-2.479,4.983-3.462,5.136
			c-0.904,0.139-0.416-5.185-0.416-5.185s0.665,0.443,2.565,1.59"/>
	</g>
</g>
</svg>
