<?xml version="1.0" encoding="utf-8"?>
<!-- Generator: Adobe Illustrator 16.0.0, SVG Export Plug-In . SVG Version: 6.00 Build 0)  -->
<!DOCTYPE svg PUBLIC "-//W3C//DTD SVG 1.1//EN" "http://www.w3.org/Graphics/SVG/1.1/DTD/svg11.dtd">
<svg version="1.1" id="Capa_1" xmlns="http://www.w3.org/2000/svg" xmlns:xlink="http://www.w3.org/1999/xlink" x="0px" y="0px"
	 width="45.354px" height="45.354px" viewBox="0 0 45.354 45.354" enable-background="new 0 0 45.354 45.354" xml:space="preserve">
<g>
	<path fill="#ED6926" d="M45.556,22.678c0,12.522-10.154,22.677-22.676,22.677c-12.528,0-22.679-10.154-22.679-22.677
		C0.201,10.151,10.352,0,22.88,0C35.401,0,45.556,10.151,45.556,22.678z"/>
	<path fill="none" stroke="#000000" stroke-width="0.5" stroke-miterlimit="10" d="M11.926,30.406"/>
	<g>
		<circle fill="#FFFFFF" stroke="#ED6926" stroke-width="0.5" stroke-miterlimit="10" cx="18.97" cy="14.685" r="9.868"/>
		<circle fill="#FFFFFF" stroke="#ED6926" stroke-width="0.5" stroke-miterlimit="10" cx="18.971" cy="14.684" r="8.201"/>
		<path fill="#FFFFFF" stroke="#ED6926" stroke-width="0.5" stroke-miterlimit="10" d="M20.936,24.553c0,0,2.334,1.598,3.916,0.598
			c1.584-1,1.305-3.459,1.305-3.459s-0.689,0.773-2.621,1.741C21.602,24.4,20.936,24.553,20.936,24.553z"/>
		<path fill="#FFFFFF" stroke="#ED6926" stroke-width="0.5" stroke-miterlimit="10" d="M23.555,25.479l1.648,2.633l1.648-0.879
			l-1.26-2.823c0,0-0.367,0.74-0.908,0.948c-0.541,0.209-1.129,0.293-1.129,0.293"/>
		<path fill="#FFFFFF" stroke="#ED6926" stroke-width="0.5" stroke-miterlimit="10" d="M25.203,29.83c0,0-0.309-1.502,0.973-2.236
			c1.279-0.736,2.404,0.279,2.404,0.279L25.203,29.83z"/>
		<polygon fill="#FFFFFF" stroke="#ED6926" stroke-width="0.5" stroke-miterlimit="10" points="25.203,29.83 28.58,27.873 
			34.518,38.149 31.018,40.424 		"/>
		<path fill="#FFFFFF" stroke="#ED6926" stroke-width="0.5" stroke-miterlimit="10" d="M34.518,38.149c0,0,0.592,1.866-0.688,2.601
			c-1.281,0.736-2.813-0.326-2.813-0.326L34.518,38.149z"/>
	</g>
</g>
</svg>
