<?xml version="1.0" encoding="utf-8"?>
<!-- Generator: Adobe Illustrator 21.1.0, SVG Export Plug-In . SVG Version: 6.00 Build 0)  -->
<svg version="1.1"
	 id="Capa_1" inkscape:version="0.92.2 (5c3e80d, 2017-08-06)" sodipodi:docname="ctr.svg" xmlns:cc="http://creativecommons.org/ns#" xmlns:dc="http://purl.org/dc/elements/1.1/" xmlns:inkscape="http://www.inkscape.org/namespaces/inkscape" xmlns:rdf="http://www.w3.org/1999/02/22-rdf-syntax-ns#" xmlns:sodipodi="http://sodipodi.sourceforge.net/DTD/sodipodi-0.dtd" xmlns:svg="http://www.w3.org/2000/svg"
	 xmlns="http://www.w3.org/2000/svg" xmlns:xlink="http://www.w3.org/1999/xlink" x="0px" y="0px" viewBox="0 0 34.1 34.1"
	 style="enable-background:new 0 0 34.1 34.1;" xml:space="preserve">
<style type="text/css">
	.st0{fill:#CF7400;}
</style>
<sodipodi:namedview  bordercolor="#666666" borderopacity="1" gridtolerance="10" guidetolerance="10" id="namedview88" inkscape:current-layer="Capa_1" inkscape:cx="22.700001" inkscape:cy="22.700001" inkscape:pageopacity="0" inkscape:pageshadow="2" inkscape:window-height="1053" inkscape:window-maximized="1" inkscape:window-width="1920" inkscape:window-x="0" inkscape:window-y="27" inkscape:zoom="18.942731" objecttolerance="10" pagecolor="#ffffff" showgrid="false">
	</sodipodi:namedview>
<path class="st0" d="M30.8,19.8c0.4-1.6,0.4-3.5,0.1-5.1h-3c-0.3-1.2-0.7-2.3-1.4-3.4c0,0,0,0,0-0.1l2.1-2.1c-1-1.5-2.3-2.6-3.6-3.6
	l-2.1,2.1c-1-0.6-2.2-1.1-3.4-1.4v-3c-1.6-0.3-3.5-0.3-5.1,0v3c-1.1,0.3-2.2,0.7-3.2,1.3c0,0,0,0-0.1,0l-2-2c-1.5,1-2.6,2.3-3.6,3.6
	l2.1,2.1c-0.6,1.1-1.1,2.2-1.4,3.5h-3C3,16.5,3,18.2,3.4,19.8h3c0.3,1,0.7,2.1,1.3,3c0,0,0,0,0,0.1L5.6,25c1,1.5,2.3,2.6,3.6,3.6
	l2.1-2.1c1,0.6,2.1,1.1,3.2,1.4v3c1.6,0.4,3.5,0.4,5.1,0v-3c1.1-0.3,2.3-0.7,3.3-1.4c0,0,0,0,0.1,0l2.1,2.1c1.5-1,2.6-2.3,3.6-3.6
	l-2.1-2.1c0.5-1,1-2,1.3-3.1H30.8z M17.1,24.5c-4.1,0-7.4-3.4-7.4-7.4s3.4-7.4,7.4-7.4s7.4,3.4,7.4,7.4
	C24.5,21.2,21.2,24.5,17.1,24.5z"/>
</svg>
