<?xml version="1.0" encoding="utf-8"?>
<!-- Generator: Adobe Illustrator 21.1.0, SVG Export Plug-In . SVG Version: 6.00 Build 0)  -->
<svg version="1.1"
	 id="Capa_1" inkscape:version="0.92.2 (5c3e80d, 2017-08-06)" sodipodi:docname="ctr.svg" xmlns:cc="http://creativecommons.org/ns#" xmlns:dc="http://purl.org/dc/elements/1.1/" xmlns:inkscape="http://www.inkscape.org/namespaces/inkscape" xmlns:rdf="http://www.w3.org/1999/02/22-rdf-syntax-ns#" xmlns:sodipodi="http://sodipodi.sourceforge.net/DTD/sodipodi-0.dtd" xmlns:svg="http://www.w3.org/2000/svg"
	 xmlns="http://www.w3.org/2000/svg" xmlns:xlink="http://www.w3.org/1999/xlink" x="0px" y="0px" viewBox="0 0 34.1 34.1"
	 style="enable-background:new 0 0 34.1 34.1;" xml:space="preserve">
<style type="text/css">
	.st0{fill:#D07400;}
</style>
<sodipodi:namedview  bordercolor="#666666" borderopacity="1" gridtolerance="10" guidetolerance="10" id="namedview88" inkscape:current-layer="Capa_1" inkscape:cx="22.700001" inkscape:cy="22.700001" inkscape:pageopacity="0" inkscape:pageshadow="2" inkscape:window-height="1053" inkscape:window-maximized="1" inkscape:window-width="1920" inkscape:window-x="0" inkscape:window-y="27" inkscape:zoom="18.942731" objecttolerance="10" pagecolor="#ffffff" showgrid="false">
	</sodipodi:namedview>
<path class="st0" d="M29.4,9.4h-5.5V6.7c0-2.2-1.5-4-3.2-4H7.5c-1.7,0-3.1,1.6-3.2,3.7l0,21.3c0.1,2.1,1.5,3.7,3.2,3.7h13.1
	c0.2,0,0.3,0,0.5-0.1h0.5l0-4.5h7.9V9.4z M20.4,13.6l0.2,14.2v2.6H7.5c-1.2,0-2.2-1.2-2.2-2.7l0-21.2c0.1-1.6,1-2.7,2.2-2.7h13.2
	c1.2,0,2.2,1.4,2.2,3v4.1L20.4,13.6z M25.9,22.5h-4.4l0-0.7h4.4V22.5z M25.9,18.8h-4.5l0-0.7h4.5V18.8z M25.9,15.1h-4.5l0-0.7h4.5
	V15.1z"/>
</svg>
