<?xml version="1.0" encoding="utf-8"?>
<!-- Generator: Adobe Illustrator 21.1.0, SVG Export Plug-In . SVG Version: 6.00 Build 0)  -->
<svg version="1.1"
	 id="Capa_1" inkscape:version="0.92.2 (5c3e80d, 2017-08-06)" sodipodi:docname="ctr.svg" xmlns:cc="http://creativecommons.org/ns#" xmlns:dc="http://purl.org/dc/elements/1.1/" xmlns:inkscape="http://www.inkscape.org/namespaces/inkscape" xmlns:rdf="http://www.w3.org/1999/02/22-rdf-syntax-ns#" xmlns:sodipodi="http://sodipodi.sourceforge.net/DTD/sodipodi-0.dtd" xmlns:svg="http://www.w3.org/2000/svg"
	 xmlns="http://www.w3.org/2000/svg" xmlns:xlink="http://www.w3.org/1999/xlink" x="0px" y="0px" viewBox="0 0 34.1 34.1"
	 style="enable-background:new 0 0 34.1 34.1;" xml:space="preserve">
<style type="text/css">
	.st0{fill:#D07400;}
</style>
<sodipodi:namedview  bordercolor="#666666" borderopacity="1" gridtolerance="10" guidetolerance="10" id="namedview88" inkscape:current-layer="Capa_1" inkscape:cx="22.700001" inkscape:cy="22.700001" inkscape:pageopacity="0" inkscape:pageshadow="2" inkscape:window-height="1053" inkscape:window-maximized="1" inkscape:window-width="1920" inkscape:window-x="0" inkscape:window-y="27" inkscape:zoom="18.942731" objecttolerance="10" pagecolor="#ffffff" showgrid="false">
	</sodipodi:namedview>
<g>
	<path class="st0" d="M32.6,16.9c0,0-1.5,3.7-4.7,7l-1.6-1.6c2.4-2.6,3.6-5.5,3.6-5.5s-3.4-9.7-13-9.7S4.1,17,4.1,17
		s3.6,9.8,12.9,9.8c1.8,0,3.6-0.4,4.9-1.1l1.6,1.6c-1.8,1-4.1,1.6-6.5,1.6C5.7,28.8,1.5,17,1.5,17S5.6,5.4,17.1,5.4
		C28.5,5.3,32.6,16.9,32.6,16.9z"/>
	<path class="st0" d="M27.6,25.7l-4.3-4.3c1.6-2.4,1.9-5.7,0.3-8.5c-2.2-3.7-7-4.8-10.8-2.6c-3.7,2.2-4.8,7-2.6,10.8s7,4.8,10.8,2.6
		c0.2-0.1,0.3-0.2,0.4-0.3l4.3,4.3L27.6,25.7z M12.3,19.8c-1.6-2.6-0.8-6,1.8-7.6c2.6-1.6,6-0.8,7.6,1.8c1.6,2.6,0.8,6-1.8,7.6
		C17.2,23.3,13.9,22.4,12.3,19.8z"/>
</g>
</svg>
