<?xml version="1.0" encoding="utf-8"?>
<!-- Generator: Adobe Illustrator 21.1.0, SVG Export Plug-In . SVG Version: 6.00 Build 0)  -->
<svg version="1.1"
	 id="Capa_1" inkscape:version="0.92.2 (5c3e80d, 2017-08-06)" sodipodi:docname="ctr.svg" xmlns:cc="http://creativecommons.org/ns#" xmlns:dc="http://purl.org/dc/elements/1.1/" xmlns:inkscape="http://www.inkscape.org/namespaces/inkscape" xmlns:rdf="http://www.w3.org/1999/02/22-rdf-syntax-ns#" xmlns:sodipodi="http://sodipodi.sourceforge.net/DTD/sodipodi-0.dtd" xmlns:svg="http://www.w3.org/2000/svg"
	 xmlns="http://www.w3.org/2000/svg" xmlns:xlink="http://www.w3.org/1999/xlink" x="0px" y="0px" viewBox="0 0 34.1 34.1"
	 style="enable-background:new 0 0 34.1 34.1;" xml:space="preserve">
<style type="text/css">
	.st0{fill:#D07400;}
</style>
<sodipodi:namedview  bordercolor="#666666" borderopacity="1" gridtolerance="10" guidetolerance="10" id="namedview88" inkscape:current-layer="Capa_1" inkscape:cx="22.700001" inkscape:cy="22.700001" inkscape:pageopacity="0" inkscape:pageshadow="2" inkscape:window-height="1053" inkscape:window-maximized="1" inkscape:window-width="1920" inkscape:window-x="0" inkscape:window-y="27" inkscape:zoom="18.942731" objecttolerance="10" pagecolor="#ffffff" showgrid="false">
	</sodipodi:namedview>
<path class="st0" d="M24.8,5.5h-3.3V2.5h-8.7v2.9H9.4c-1.7,0-3.1,1.3-3.2,3v20.2c0.1,1.7,1.5,3,3.2,3h15.3c1.8,0,3.2-1.4,3.2-3.2
	V8.8C28,7,26.6,5.5,24.8,5.5z M14.6,4.2h4.8v4.8h-4.8V4.2z M13.1,12.2h8v1.3h-8V12.2z M13.1,16.4h8v1.3h-8V16.4z M13.1,20.8h8v1.3
	h-8V20.8z M25.8,26.4c0,1.4-1.1,2.6-2.6,2.6H11c-1.4,0-2.5-1-2.6-2.5V10.4C8.6,9.1,9.7,8,11,8h0.6v17.3h11.1V8h0.6
	c1.4,0,2.6,1.1,2.6,2.6C25.8,10.6,25.8,26.4,25.8,26.4z"/>
</svg>
