<?xml version="1.0" encoding="UTF-8" standalone="no"?>
<svg
   xmlns:dc="http://purl.org/dc/elements/1.1/"
   xmlns:cc="http://creativecommons.org/ns#"
   xmlns:rdf="http://www.w3.org/1999/02/22-rdf-syntax-ns#"
   xmlns:svg="http://www.w3.org/2000/svg"
   xmlns="http://www.w3.org/2000/svg"
   xmlns:sodipodi="http://sodipodi.sourceforge.net/DTD/sodipodi-0.dtd"
   xmlns:inkscape="http://www.inkscape.org/namespaces/inkscape"
   version="1.1"
   width="34"
   height="34"
   viewBox="0 0 34 34"
   id="svg1573"
   sodipodi:docname="cop.svg"
   inkscape:version="0.92.3 (2405546, 2018-03-11)">
  <metadata
     id="metadata1579">
    <rdf:RDF>
      <cc:Work
         rdf:about="">
        <dc:format>image/svg+xml</dc:format>
        <dc:type
           rdf:resource="http://purl.org/dc/dcmitype/StillImage" />
        <dc:title></dc:title>
      </cc:Work>
    </rdf:RDF>
  </metadata>
  <defs
     id="defs1577" />
  <sodipodi:namedview
     pagecolor="#ffffff"
     bordercolor="#666666"
     borderopacity="1"
     objecttolerance="10"
     gridtolerance="10"
     guidetolerance="10"
     inkscape:pageopacity="0"
     inkscape:pageshadow="2"
     inkscape:window-width="1920"
     inkscape:window-height="1043"
     id="namedview1575"
     showgrid="false"
     inkscape:zoom="5.6190476"
     inkscape:cx="-6.5710002"
     inkscape:cy="38.253016"
     inkscape:window-x="0"
     inkscape:window-y="0"
     inkscape:window-maximized="1"
     inkscape:current-layer="svg1573" />
  <rect
     x="0"
     y="-7.1054274e-15"
     width="34"
     height="34"
     id="rect1524"
     style="fill:#ffffff00;stroke-width:0.03456313" />
  <g
     id="layer1"
     transform="translate(0,-1310)" />
  <g
     id="layer2"
     transform="matrix(0.05657132,0,0,0.05361943,-3.1209473,-19.211576)">
    <g
       id="g1535">
      <g
         style="fill:#cf7400;fill-opacity:1;stroke-linejoin:miter"
         id="g1529">
        <path
           d="m 221.78554,500.81534 v 7.9e-4 c -0.8365,0.002 -1.67412,0.045 -2.5143,0.12341 -4.62227,0.43128 -11.2469,1.37922 -15.54532,3.32086 -5.94246,2.68427 -9.74214,7.0162 -13.20264,12.26743 -3.67688,5.57941 -4.13273,13.07327 -3.99696,20.15167 0.1779,9.2735 1.54027,18.8578 5.75414,26.91083 5.01458,9.58332 13.99924,17.76657 24.0085,21.86597 l 0.009,0.002 -0.003,7.9e-4 c 2.33507,0.95459 4.92752,1.58324 7.40606,1.57364 0.40542,-0.002 0.80798,-0.0202 1.20605,-0.0573 0.78607,-0.0734 1.54898,-0.21816 2.281,-0.44316 2e-5,0 5e-5,-1e-4 7e-5,-1e-4 l -7e-5,9e-4 c 8.06272,-2.47976 14.60166,-9.3166 19.98735,-16.2758 2.35746,-3.04606 4.48401,-6.27653 6.12105,-9.7088 0.40059,-0.83995 1.05367,-2.47654 1.23804,-2.9413 l -0.003,7.7e-4 c 0.0121,-0.0183 0.0218,-0.0378 0.0284,-0.0586 0.0163,-0.0512 0.67313,-2.1126 0.91291,-3.14004 0.82566,-3.53786 1.09022,-7.23916 1.06324,-10.93656 -0.0841,-11.5265 -1.87013,-25.9018 -9.6604,-33.7809 -6.00902,-6.07756 -15.3054,-8.48136 -23.86756,-8.85246 -0.40633,-0.0176 -0.81486,-0.0254 -1.22266,-0.0238 v 7.9e-4 z"
           id="path1527"
           inkscape:connector-curvature="0" />
      </g>
      <g
         style="fill:#cf7400;fill-opacity:1;stroke-linejoin:miter"
         id="g1533">
        <path
           d="m 236.93661,592.1857 v 8e-4 7.6e-4 7.9e-4 7.5e-4 l 2e-5,8e-4 c -0.055,-0.004 -0.10788,0.0177 -0.14758,0.0558 l -9.89228,9.47894 c -0.0494,0.0473 -0.0733,0.11536 -0.0642,0.1831 l 11.29818,84.8835 c 0.0374,0.2812 -0.028,0.56603 -0.18411,0.8027 l -12.39749,18.7888 3e-5,8e-4 c -0.19895,0.3007 -0.52522,0.4939 -0.88519,0.5234 l -9e-5,10e-5 c -0.0311,0.003 -0.0606,0.004 -0.0916,0.004 -0.32764,10e-4 -0.64268,-0.1345 -0.86717,-0.3769 l -17.29006,-18.66914 2e-5,8e-4 c -0.23718,-0.2569 -0.34831,-0.60511 -0.30328,-0.95136 l 11.03439,-84.8016 0.002,-0.0284 v -8e-4 c -2.4e-4,-0.0623 -0.0275,-0.1213 -0.0747,-0.1618 l -10.61915,-9.1297 -0.0822,-0.044 -0.003,-7.5e-4 c -0.0192,-0.005 -0.0388,-0.008 -0.0585,-0.008 -0.0301,10e-5 -0.0602,0.006 -0.088,0.0192 -15.7578,7.1708 -31.2087,14.3441 -43.18216,27.46924 -12.11055,13.27536 -25.65173,36.34546 -29.40236,52.41566 -0.0153,0.0655 -0.0236,0.132 0.009,0.1903 l -0.002,7e-4 c 1.7444,12.13565 9.08985,27.61667 14.53553,39.3424 5.56747,11.98795 11.92971,21.5056 17.21601,24.4185 l -8e-5,7e-4 c 4e-5,-7e-4 7e-5,-6.5e-4 8e-5,-6.5e-4 1.35669,0.74755 2.62458,1.04375 3.83384,1.03905 3.39288,-0.0132 6.59809,-2.3614 10.23242,-5.09 0.20439,-0.15345 0.45096,-0.2345 0.70149,-0.2355 0.0988,-3.5e-4 0.19775,0.0116 0.29564,0.0366 l -2e-5,7.7e-4 c 0.34525,0.0873 0.63195,0.32753 0.77935,0.65203 l 5.21626,11.48457 c 0.0677,0.14903 0.10356,0.31093 0.10519,0.47467 v -4e-5 l 1.58556,161.6324 c 3.7e-4,0.0366 0.0101,0.0721 0.0276,0.1032 l -0.003,7.6e-4 c 1.58826,5.22404 3.09276,9.84424 7.10381,12.30219 2.21923,1.36005 5.29709,2.10725 8.4111,2.09515 2.63883,-0.0103 5.20156,-0.5656 7.19921,-1.65625 4.28326,-2.33831 6.31739,-7.29858 8.47711,-12.86575 l -0.003,7e-4 c 0.0233,-0.0358 0.0364,-0.0778 0.0359,-0.12207 l -1.5903,-134.24803 v -10e-5 c -0.001,-0.0941 0.009,-0.18754 0.0303,-0.2794 0.0383,-0.16503 0.12791,-0.55303 0.1673,-0.72344 0.0759,-0.3288 0.0978,-0.42402 0.17495,-0.75686 0.94597,-4.0805 2.02849,-8.4277 3.40799,-9.66526 3e-4,-3.1e-4 5.9e-4,-5.4e-4 9.1e-4,-8e-4 l -8.3e-4,7.6e-4 c 0.29316,-0.2639 0.72503,-0.5254 1.27763,-0.52755 l 0.003,7.9e-4 c 0.0128,-8.4e-4 0.0189,-7.9e-4 0.0405,2.6e-4 0.004,2e-4 0.008,3.5e-4 0.0119,3e-4 0.003,0 0.007,-1.3e-4 0.0101,-2.5e-4 l 0.003,7.9e-4 c 0.49043,0.0167 0.8829,0.23726 1.16044,0.46301 l 9e-5,5e-5 c 1.55744,1.2669 2.96642,6.21785 4.20679,10.6134 0.0491,0.17385 0.16072,0.56935 0.20844,0.7379 v 3e-5 c 0.0273,0.0965 0.0422,0.19611 0.0443,0.29651 v 6e-5 l 2.70681,133.82587 c 9.8e-4,0.048 0.0181,0.094 0.0478,0.13063 l -0.003,8.4e-4 c 2.16392,4.47496 4.22317,8.55596 7.94752,11.01936 2.38342,1.5765 5.49281,2.511 8.47658,2.4993 1.78489,-0.007 3.48925,-0.3522 4.95129,-1.0648 3.88856,-1.8953 6.41935,-6.50983 9.13615,-11.6913 l -0.003,7.4e-4 c 0.0328,-0.039 0.052,-0.0887 0.0515,-0.14204 L 260.5305,750.1857 c -5.3e-4,-0.0644 0.004,-0.12753 0.014,-0.191 v 7e-4 l 2.50415,-16.06345 c 0.0614,-0.39365 0.31781,-0.72931 0.68133,-0.89205 l 0.009,-0.004 3e-4,-2e-4 7.8e-4,8e-4 c 0.1492,-0.0659 0.3075,-0.0983 0.46562,-0.0989 0.22496,-8.6e-4 0.44896,0.0627 0.64342,0.18847 l 0.002,10e-4 0.005,0.003 -7e-5,7.4e-4 c 3.19755,2.06836 6.0154,3.84786 9.05317,3.836 1.40958,-0.005 2.92011,-0.4024 4.58435,-1.448 4.3e-4,-2.4e-4 8e-4,-5.4e-4 10e-4,-7.9e-4 l -10e-4,7.9e-4 c 5.3552,-3.36764 11.9821,-13.19254 17.68107,-25.63114 5.58863,-12.19796 11.62507,-24.17275 14.7656,-41.21993 l 10e-4,7.3e-4 c 0.029,-0.0606 0.0286,-0.1305 -8.6e-4,-0.18976 l -0.004,-0.008 -1.5e-4,-3.1e-4 C 305.19113,652.18695 295.38898,637.4155 283.085,624.7403 270.85016,612.1363 254.07773,602.2 237.04895,592.21515 c -0.0331,-0.0194 -0.0709,-0.0296 -0.1093,-0.0294 l -0.003,8e-4 v -8e-4 8e-4 -8e-4 8e-4 z"
           id="path1531"
           inkscape:connector-curvature="0" />
      </g>
    </g>
    <g
       style="fill:#ffffff;fill-opacity:1;stroke-linejoin:miter"
       id="g1537" />
    <g
       id="g1547">
      <g
         style="fill:#cf7400;fill-opacity:1;stroke-linejoin:miter"
         id="g1541">
        <path
           d="m 505.31726,500.04526 v 7.9e-4 c -0.83649,0.002 -1.6741,0.045 -2.51428,0.12341 -4.62225,0.43128 -11.24688,1.37922 -15.54532,3.32087 -5.94246,2.68427 -9.74216,7.0162 -13.20264,12.26742 -3.67688,5.57941 -4.13272,13.07325 -3.99698,20.15165 0.17792,9.2735 1.54029,18.8578 5.75416,26.91085 5.01458,9.58331 13.99923,17.76655 24.00848,21.86595 l 0.009,0.002 -0.003,8e-4 c 2.33508,0.9546 4.92755,1.58323 7.40606,1.5736 0.40543,-0.002 0.80799,-0.0202 1.20607,-0.0573 0.78606,-0.0734 1.54897,-0.21816 2.281,-0.4432 0,0 5e-5,-6e-5 5e-5,-6e-5 l -5e-5,8.6e-4 c 8.06274,-2.47974 14.6017,-9.3166 19.98736,-16.27576 2.35744,-3.04608 4.48401,-6.27654 6.12104,-9.7088 0.40056,-0.83994 1.05364,-2.47654 1.238,-2.94134 l -0.003,8e-4 c 0.0121,-0.0183 0.0217,-0.0378 0.0284,-0.0586 0.0164,-0.0512 0.67316,-2.11256 0.9129,-3.14 0.82566,-3.53786 1.09021,-7.23916 1.06326,-10.9366 -0.0841,-11.5265 -1.87015,-25.9018 -9.6604,-33.7809 -6.009,-6.07754 -15.3054,-8.48134 -23.86758,-8.85244 -0.40632,-0.0176 -0.81482,-0.0254 -1.22266,-0.0238 v 7.9e-4 z"
           id="path1539"
           inkscape:connector-curvature="0" />
      </g>
      <g
         style="fill:#cf7400;fill-opacity:1;stroke-linejoin:miter"
         id="g1545">
        <path
           d="m 520.4684,591.41565 v 7.9e-4 7.6e-4 7.7e-4 7.3e-4 8e-4 c -0.0551,-0.004 -0.1079,0.0178 -0.1476,0.0558 l -9.89227,9.4789 c -0.0494,0.0473 -0.0733,0.1154 -0.0642,0.1831 l 11.29818,84.8835 c 0.0374,0.2812 -0.028,0.56605 -0.1841,0.80275 l -12.39753,18.78875 6e-5,8e-4 c -0.19897,0.3007 -0.52523,0.4939 -0.88519,0.52344 l -1.2e-4,6e-5 c -0.0311,0.003 -0.0606,0.004 -0.0916,0.004 -0.32763,0.001 -0.6427,-0.13446 -0.86718,-0.3769 l -17.29004,-18.6691 v 8e-4 c -0.23718,-0.2569 -0.34834,-0.6051 -0.30329,-0.9514 l 11.0344,-84.80155 0.002,-0.0285 v -8e-4 c -2.5e-4,-0.0622 -0.0275,-0.12127 -0.0747,-0.1618 l -10.61917,-9.1297 -0.0822,-0.044 -0.003,-7.3e-4 c -0.0192,-0.005 -0.0389,-0.008 -0.0585,-0.008 -0.0301,10e-5 -0.0602,0.006 -0.088,0.0192 -15.75778,7.1708 -31.20871,14.34414 -43.18215,27.46926 -12.11055,13.27539 -25.65175,36.34544 -29.40236,52.41564 -0.0153,0.0656 -0.0236,0.132 0.009,0.1903 l -0.002,7.5e-4 c 1.74438,12.13562 9.08984,27.61665 14.53552,39.34235 5.56744,11.988 11.92968,21.5056 17.216,24.4185 l -9e-5,7.4e-4 c 3e-5,-7.4e-4 9e-5,-6.4e-4 9e-5,-6.4e-4 1.35668,0.74753 2.62458,1.04374 3.83383,1.03904 3.39289,-0.0132 6.59812,-2.36139 10.23243,-5.09004 0.20437,-0.15343 0.45095,-0.2345 0.7015,-0.23546 0.0988,-3.7e-4 0.19776,0.0116 0.29562,0.0366 l -2e-5,8e-4 c 0.34527,0.0873 0.63196,0.3275 0.77936,0.652 l 5.21624,11.4846 c 0.0677,0.14903 0.10358,0.3109 0.10522,0.47466 v -6e-5 l 1.58555,161.63244 c 3.5e-4,0.0366 0.0101,0.0721 0.0276,0.10316 l -0.003,8e-4 c 1.58826,5.22404 3.09278,9.8442 7.10382,12.30217 2.21921,1.36003 5.29706,2.10723 8.41108,2.09513 2.63885,-0.0102 5.20156,-0.5656 7.1992,-1.6562 4.28328,-2.33835 6.3174,-7.2986 8.47713,-12.8658 l -0.003,7e-4 c 0.0233,-0.0358 0.0364,-0.0777 0.0359,-0.12205 l -1.5903,-134.24805 v -6e-5 c -0.001,-0.0941 0.009,-0.18754 0.0303,-0.27944 0.0383,-0.165 0.1279,-0.553 0.1673,-0.7234 0.0759,-0.3288 0.0978,-0.42404 0.17492,-0.75686 0.94599,-4.08051 2.02851,-8.42774 3.40803,-9.66528 3e-4,-3.1e-4 5.7e-4,-5.6e-4 9e-4,-8e-4 l -8.5e-4,7.4e-4 c 0.29315,-0.26386 0.72505,-0.5254 1.27765,-0.52753 l 0.003,7.9e-4 c 0.0128,-8.6e-4 0.0189,-7.9e-4 0.0405,2.4e-4 0.004,2.5e-4 0.008,4e-4 0.0118,3e-4 0.003,0 0.007,-10e-5 0.0101,-2.3e-4 l 0.003,7.9e-4 c 0.49046,0.0166 0.88293,0.23724 1.16046,0.46304 l 1e-4,3e-5 c 1.55743,1.26691 2.9664,6.21784 4.20678,10.61341 0.049,0.17382 0.16074,0.56936 0.20842,0.73786 v 5e-5 c 0.0273,0.0965 0.0422,0.19611 0.0443,0.29651 v 4e-5 l 2.7068,133.8259 c 9.6e-4,0.048 0.0181,0.094 0.0478,0.1306 l -0.003,8.6e-4 c 2.16386,4.47497 4.22316,8.55594 7.94751,11.01934 2.38345,1.57654 5.4928,2.511 8.47655,2.49933 1.7849,-0.007 3.4893,-0.35223 4.9513,-1.06483 3.8886,-1.8953 6.4194,-6.5098 9.1362,-11.69127 l -0.003,7.3e-4 c 0.0328,-0.0391 0.052,-0.0888 0.0516,-0.14203 l -1.3327,-156.75268 c -5.6e-4,-0.0644 0.004,-0.12755 0.014,-0.19105 v 7.4e-4 l 2.50417,-16.06347 c 0.0613,-0.39362 0.3178,-0.72931 0.6813,-0.89203 l 0.009,-0.004 2.5e-4,-2e-4 8.5e-4,8e-4 c 0.14915,-0.0658 0.3075,-0.0983 0.46555,-0.0989 0.225,-9e-4 0.449,0.0627 0.64346,0.18845 l 0.002,10e-4 0.005,0.003 -1.4e-4,7.6e-4 c 3.1976,2.06834 6.0154,3.84784 9.05324,3.836 1.40956,-0.005 2.92006,-0.4024 4.58436,-1.448 3.6e-4,-2.6e-4 7e-4,-5.6e-4 10e-4,-7.9e-4 l -10e-4,7.9e-4 c 5.35515,-3.36761 11.98212,-13.19256 17.68109,-25.63116 5.58863,-12.19794 11.625,-24.17273 14.76556,-41.2199 l 10e-4,7e-4 c 0.029,-0.0606 0.0286,-0.1305 -8.7e-4,-0.18974 l -0.004,-0.008 -1.4e-4,-3e-4 c -5.7451,-16.2832 -15.5473,-31.05465 -27.8513,-43.7299 -12.2348,-12.604 -29.0072,-22.54027 -46.036,-32.52513 -0.0331,-0.0194 -0.0709,-0.0296 -0.1093,-0.0294 l -0.003,7.9e-4 v -7.9e-4 7.9e-4 -7.9e-4 7.9e-4 z"
           id="path1543"
           inkscape:connector-curvature="0" />
      </g>
    </g>
    <g
       id="g1557">
      <g
         style="fill:#ffffff;fill-opacity:1;stroke-linejoin:miter"
         id="g1551">
        <path
           d="m 370.96497,357.67432 v 10e-4 c -1.26252,-0.006 -2.52717,0.0493 -3.79609,0.1582 -6.98095,0.59933 -16.98978,1.95596 -23.49881,4.83836 -8.99865,3.98482 -14.78161,10.48043 -20.06307,18.36705 -5.61158,8.3797 -6.3833,19.68445 -6.25745,30.36915 0.16485,13.99798 2.11395,28.47827 8.38373,40.67925 7.46122,14.51969 20.92984,26.97062 35.99047,33.26945 l 0.0137,0.003 -0.004,10e-4 c 3.51355,1.46686 7.41912,2.44458 11.15998,2.4577 0.61187,0.002 1.21965,-0.0215 1.82085,-0.0731 1.18732,-0.10192 2.34033,-0.31176 3.44763,-0.64324 6e-5,0 6e-5,0 1.2e-4,0 l -1.2e-4,10e-4 c 12.19629,-3.65244 22.14154,-13.89792 30.34766,-24.34079 3.59198,-4.57096 6.83766,-9.42283 9.34662,-14.58469 0.61401,-1.26312 1.61792,-3.72594 1.9013,-4.42542 l -0.005,0.001 c 0.0185,-0.0275 0.0333,-0.0568 0.0436,-0.0881 0.0252,-0.077 1.03948,-3.18084 1.4129,-4.7289 1.28571,-5.3302 1.72638,-10.91333 1.72693,-16.494 0.002,-17.39733 -2.53325,-39.11318 -14.2027,-51.0917 -9.00115,-9.23956 -23.00488,-12.9714 -35.92315,-13.62716 -0.6131,-0.0311 -1.22956,-0.0475 -1.84503,-0.0496 v 10e-4 z"
           id="path1549"
           inkscape:connector-curvature="0" />
      </g>
      <g
         style="fill:#ffffff;fill-opacity:1;stroke-linejoin:miter"
         id="g1555">
        <path
           d="m 392.81104,495.74414 v 10e-4 0.001 10e-4 10e-4 0.001 c -0.0831,-0.006 -0.16304,0.0256 -0.22339,0.0825 l -15.03577,14.19549 c -0.075,0.0709 -0.11182,0.17335 -0.0989,0.27575 l 16.10355,128.2367 c 0.0533,0.4248 -0.0485,0.85395 -0.28681,1.2095 l -18.92077,28.2183 6e-5,10e-4 c -0.30368,0.4516 -0.79825,0.73954 -1.34189,0.78009 l -1.2e-4,5e-5 c -0.047,0.004 -0.0915,0.005 -0.13825,0.005 -0.4945,-0.002 -0.9685,-0.2101 -1.30462,-0.5785 l -25.88642,-28.3696 7e-5,10e-4 c -0.35517,-0.39038 -0.51905,-0.91717 -0.4472,-1.43923 l 17.60088,-127.86338 0.003,-0.043 v -10e-4 c 3.1e-4,-0.0939 -0.0402,-0.18329 -0.1109,-0.24499 l -15.92489,-13.89754 -0.12354,-0.0673 -0.004,-10e-4 c -0.0289,-0.008 -0.0585,-0.0124 -0.0881,-0.0125 -0.0455,-1.2e-4 -0.0909,0.009 -0.13306,0.0281 -23.86246,10.64624 -47.26184,21.3 -65.47925,40.9753 -18.42614,19.9004 -39.12077,54.5675 -44.9609,78.77934 -0.0238,0.0988 -0.0371,0.19896 0.011,0.28726 l -0.003,0.001 c 2.49712,18.33523 13.41023,41.782 21.4981,59.5399 8.26872,18.1551 17.7646,32.5907 25.71046,37.0462 l -1.9e-4,10e-4 c 1.3e-4,-10e-4 1.3e-4,-10e-4 1.9e-4,-10e-4 2.03924,1.14345 3.9494,1.60461 5.77454,1.61105 5.12087,0.018 9.9845,-3.4901 15.50012,-7.56784 0.31018,-0.22931 0.68316,-0.34896 1.06134,-0.34759 0.14917,5.3e-4 0.29834,0.0196 0.4458,0.0585 l -6e-5,10e-4 c 0.52008,0.13594 0.95013,0.50159 1.16894,0.99298 l 7.74436,17.39136 c 0.10052,0.22577 0.15283,0.47046 0.15344,0.71765 v -1.5e-4 l 0.58746,243.96194 c 1.2e-4,0.0553 0.0144,0.10876 0.0405,0.15586 l -0.004,10e-4 c 2.33869,7.90236 4.55774,14.89186 10.58399,18.64676 3.33416,2.07737 7.97107,3.23935 12.67103,3.25595 3.9827,0.014 7.8568,-0.79541 10.88393,-2.41905 6.4906,-3.48134 9.616,-10.9449 12.93774,-19.3232 l -0.004,10e-4 c 0.0356,-0.0538 0.0559,-0.1169 0.0555,-0.1838 l -0.9006,-202.632 v -1e-4 c -6.1e-4,-0.14214 0.0157,-0.283 0.0488,-0.42144 0.0596,-0.24866 0.19923,-0.83326 0.26063,-1.09006 0.11815,-0.4953 0.15233,-0.6388 0.27245,-1.1403 1.47325,-6.1478 3.15565,-12.6968 5.2514,-14.5492 4.9e-4,-4e-4 9.2e-4,-8e-4 0.001,-0.001 l -0.001,0.001 c 0.44543,-0.39506 1.10016,-0.78491 1.93421,-0.78196 l 0.004,10e-4 c 0.0193,-10e-4 0.0286,-9.8e-4 0.0611,9.6e-4 0.006,4e-4 0.012,5.6e-4 0.0179,5.6e-4 0.005,0 0.0102,-6e-5 0.0152,-3e-4 l 0.004,10e-4 c 0.73999,0.0308 1.3299,0.36806 1.74622,0.7118 l 1.8e-4,2e-4 c 2.33643,1.92943 4.40766,9.41753 6.23059,16.0654 0.0722,0.2629 0.23621,0.86117 0.30634,1.11605 v 5e-5 c 0.0402,0.1459 0.0615,0.2964 0.0635,0.4479 v 10e-5 l 2.59035,202.0073 c 9.2e-4,0.0726 0.0263,0.1422 0.0707,0.1977 l -0.004,10e-4 c 3.21587,6.77819 6.27827,12.96055 11.87171,16.72009 3.57952,2.406 8.26196,3.85106 12.76538,3.86696 2.69394,0.009 5.27014,-0.4927 7.48468,-1.5518 5.88998,-2.8171 9.7612,-9.75315 13.91934,-17.54294 l -0.005,10e-4 c 0.0499,-0.0586 0.0794,-0.1333 0.0793,-0.21375 l -0.2605,-236.59466 c -6e-5,-0.0971 0.008,-0.19244 0.0233,-0.2882 l 6e-5,10e-4 3.95878,-24.21595 c 0.097,-0.59338 0.48772,-1.09725 1.0382,-1.33875 l 0.0137,-0.006 4.9e-4,-2.5e-4 0.001,10e-4 c 0.22588,-0.0978 0.46515,-0.1449 0.70373,-0.1441 0.3396,10e-4 0.67701,0.0998 0.96912,0.292 l 0.002,0.002 0.008,0.005 -6e-5,10e-4 c 4.80279,3.15734 9.0357,5.87454 13.62066,5.89069 2.12745,0.007 4.41163,-0.57471 6.93512,-2.13425 6.1e-4,-3.4e-4 10e-4,-7.6e-4 0.002,-10e-4 l -0.002,10e-4 c 8.1199,-5.02274 18.23135,-19.7771 26.97142,-38.48636 8.57087,-18.34729 17.81517,-36.35278 22.74546,-62.04624 l 0.002,0.001 c 0.0445,-0.091 0.0447,-0.19653 9.3e-4,-0.28633 l -0.006,-0.0129 -2.4e-4,-4.9e-4 c -8.4889,-24.63971 -23.11789,-47.04305 -41.54609,-66.31061 -18.32479,-19.15944 -43.52755,-34.3432 -69.11665,-49.60308 -0.0498,-0.0297 -0.1067,-0.0455 -0.1647,-0.0457 l -0.005,0.001 v -0.001 0.001 -0.001 0.001 z"
           id="path1553"
           inkscape:connector-curvature="0" />
      </g>
    </g>
    <g
       style="fill:#ffffff;fill-opacity:1;stroke-linejoin:miter"
       id="g1559" />
  </g>
  <g
     id="layer3"
     transform="matrix(0.04896496,0,0,0.05279736,-0.5807575,-18.477901)">
    <g
       id="g1570">
      <g
         style="fill:#cf7400;fill-opacity:1;stroke-linejoin:miter"
         id="g1564">
        <path
           d="m 367.8861,399.0586 v 10e-4 c -1.05938,-10e-4 -2.12038,0.0488 -3.1848,0.14395 -5.85596,0.52345 -14.25037,1.69129 -19.70362,4.12905 -7.53903,3.3702 -12.37244,8.83766 -16.78085,15.4709 -4.68403,7.0479 -5.29831,16.53607 -5.16123,25.5012 0.1796,11.7452 1.85773,23.88988 7.15464,34.1093 6.30349,12.16147 17.64169,22.5693 30.29766,27.8103 l 0.0115,0.002 -0.004,0.001 c 2.95251,1.22043 6.2326,2.02942 9.37158,2.02942 0.51343,0 1.02335,-0.0216 1.52768,-0.0667 0.9959,-0.089 1.9628,-0.2685 2.89096,-0.54992 4e-5,0 6e-5,-3e-5 9e-5,-3e-5 l -9e-5,0.001 c 10.22318,-3.10071 18.53806,-11.72699 25.39307,-20.51374 3.00055,-3.8461 5.70967,-7.92682 7.7998,-12.2655 0.51147,-1.06172 1.34659,-3.13125 1.58237,-3.71902 l -0.004,10e-4 c 0.0154,-0.0231 0.0277,-0.0477 0.0363,-0.074 0.0209,-0.0647 0.86287,-2.67209 1.17163,-3.97214 1.06311,-4.47641 1.41641,-9.16251 1.40044,-13.84521 -0.0498,-14.59818 -2.2408,-32.81238 -12.0679,-42.8292 -7.5801,-7.72644 -19.3416,-10.81652 -30.18328,-11.3287 -0.5145,-0.0243 -1.03182,-0.0362 -1.54832,-0.0362 v 0.001 z"
           id="path1562"
           inkscape:connector-curvature="0" />
      </g>
      <g
         style="fill:#cf7400;fill-opacity:1;stroke-linejoin:miter"
         id="g1568">
        <path
           d="m 386.6238,514.8486 v 9.5e-4 9.5e-4 10e-4 10e-4 9.5e-4 c -0.0697,-0.005 -0.13668,0.0219 -0.18715,0.0699 l -12.57471,11.95576 c -0.0628,0.0597 -0.0933,0.14574 -0.0822,0.2316 l 13.8902,107.5558 c 0.046,0.3563 -0.0382,0.71674 -0.23712,1.0157 l -15.7933,23.73375 3e-5,9.8e-4 c -0.25345,0.37987 -0.66761,0.62293 -1.12363,0.65857 l -1.2e-4,6e-5 c -0.0394,0.003 -0.0767,0.005 -0.116,0.005 -0.41495,0 -0.81326,-0.1735 -1.09638,-0.4816 l -21.80486,-23.7286 3e-5,9.5e-4 c -0.29917,-0.32655 -0.43821,-0.76805 -0.37947,-1.20635 l 14.39237,-107.3419 0.002,-0.0361 v -10e-4 c 0,-0.0788 -0.0342,-0.15366 -0.0938,-0.20524 l -13.40357,-11.6145 -0.10385,-0.0561 -0.003,-9.7e-4 c -0.0243,-0.007 -0.0492,-0.0103 -0.074,-0.0103 -0.0382,0 -0.0762,0.008 -0.11155,0.0239 -19.99169,9.0036 -39.59472,18.01209 -54.82312,34.57524 -15.40274,16.75277 -32.66555,45.903 -37.49472,66.23635 -0.0197,0.0829 -0.0306,0.16705 0.01,0.24105 l -0.003,9.5e-4 c 2.14935,15.37769 11.37561,35.01972 18.21448,49.89655 6.99179,15.20953 15.00229,27.29443 21.68277,31.0095 l -1.2e-4,0.001 c 6e-5,-0.001 8e-5,-9e-4 1.2e-4,-9e-4 1.71448,0.9534 3.31869,1.3348 4.85019,1.3348 4.29697,0 8.36777,-2.95787 12.98385,-6.3958 0.25962,-0.19335 0.57227,-0.2948 0.88956,-0.2948 0.12518,0 0.2504,0.0156 0.37424,0.0478 l -3e-5,0.001 c 0.43683,0.11246 0.79873,0.41806 0.98379,0.82975 l 6.5495,14.57019 c 0.085,0.18916 0.12964,0.39436 0.13089,0.60166 v -4e-5 l 1.21143,204.70644 c 2.7e-4,0.0464 0.0124,0.0912 0.0344,0.1307 l -0.003,10e-4 c 1.98572,6.62396 3.86832,12.4824 8.93597,15.6152 2.8038,1.73337 6.69809,2.6948 10.64185,2.6948 3.34198,0 6.5903,-0.6906 9.12558,-2.06196 5.43602,-2.94031 8.03662,-9.21214 10.79919,-16.2522 l -0.004,9.6e-4 c 0.0297,-0.0452 0.0465,-0.0983 0.046,-0.15446 L 361.5079,742.7316 v -3e-5 c -9.4e-4,-0.1192 0.0123,-0.23747 0.0397,-0.3537 0.0493,-0.20887 0.16474,-0.69983 0.21543,-0.91557 0.0977,-0.416 0.12595,-0.5365 0.22527,-0.9576 1.21815,-5.163 2.61055,-10.66315 4.36366,-12.22363 4e-4,-3.7e-4 7.6e-4,-6.7e-4 10e-4,-10e-4 l -10e-4,10e-4 c 0.37259,-0.3328 0.92085,-0.66186 1.62067,-0.66186 l 0.004,9.6e-4 c 0.0162,-9.6e-4 0.024,-9e-4 0.0513,6e-4 0.005,3.3e-4 0.01,4.5e-4 0.015,4.5e-4 0.004,0 0.009,-1.2e-4 0.0127,-3e-4 l 0.004,9.5e-4 c 0.62101,0.0236 1.11698,0.3049 1.46735,0.5921 l 1.2e-4,1.5e-4 c 1.96619,1.61218 3.7262,7.88925 5.27539,13.4621 0.0613,0.2204 0.20075,0.72185 0.26035,0.93555 v 6e-5 c 0.0341,0.12234 0.0525,0.24854 0.0546,0.37564 v 10e-5 l 2.76853,169.4964 c 0.001,0.061 0.0225,0.1192 0.0599,0.16576 l -0.004,9.7e-4 c 2.71844,5.67817 5.30624,10.85663 10.0108,13.99482 3.01071,2.0083 6.94398,3.20705 10.72284,3.20705 2.2605,0 4.42069,-0.4289 6.27579,-1.3242 4.93399,-2.3811 8.16185,-8.2127 11.62805,-14.76133 l -0.004,9.7e-4 c 0.0417,-0.0493 0.0663,-0.11218 0.066,-0.17968 L 415.7256,715.0629 c -3.8e-4,-0.0815 0.006,-0.1615 0.0186,-0.24186 l 3e-5,9.6e-4 3.25052,-20.33116 c 0.0797,-0.49814 0.40607,-0.92214 0.86728,-1.1264 l 0.0114,-0.005 3.7e-4,-2e-4 9.8e-4,10e-4 c 0.1893,-0.0827 0.38992,-0.123 0.59015,-0.123 0.2849,0 0.56836,0.0817 0.81396,0.2421 l 0.002,10e-4 0.007,0.004 -7e-5,10e-4 c 4.03932,2.6352 7.59916,4.90264 11.4464,4.90264 1.78515,0 3.7001,-0.49524 5.81298,-1.81124 5.2e-4,-3e-4 0.001,-6.5e-4 0.002,-9.5e-4 l -10e-4,9.5e-4 c 6.79865,-4.2385 15.2397,-16.6486 22.51834,-32.3733 7.13782,-15.4205 14.84166,-30.55606 18.90302,-52.1299 l 10e-4,9.7e-4 c 0.0371,-0.0766 0.0369,-0.1651 -1.6e-4,-0.24027 l -0.005,-0.0108 -1.8e-4,-3.7e-4 c -7.19568,-20.65014 -19.53678,-39.4056 -35.05667,-55.51873 -15.43262,-16.02257 -36.625,-28.68897 -58.14179,-41.41817 -0.0419,-0.0248 -0.0897,-0.0378 -0.1383,-0.0378 l -0.004,9.5e-4 v -9.5e-4 9.5e-4 -9.5e-4 9.5e-4 z"
           id="path1566"
           inkscape:connector-curvature="0" />
      </g>
    </g>
  </g>
</svg>
