<?xml version="1.0" encoding="utf-8"?>
<!-- Generator: Adobe Illustrator 21.1.0, SVG Export Plug-In . SVG Version: 6.00 Build 0)  -->
<svg version="1.1"
	 id="Capa_1" inkscape:version="0.92.2 (5c3e80d, 2017-08-06)" sodipodi:docname="ctr.svg" xmlns:cc="http://creativecommons.org/ns#" xmlns:dc="http://purl.org/dc/elements/1.1/" xmlns:inkscape="http://www.inkscape.org/namespaces/inkscape" xmlns:rdf="http://www.w3.org/1999/02/22-rdf-syntax-ns#" xmlns:sodipodi="http://sodipodi.sourceforge.net/DTD/sodipodi-0.dtd" xmlns:svg="http://www.w3.org/2000/svg"
	 xmlns="http://www.w3.org/2000/svg" xmlns:xlink="http://www.w3.org/1999/xlink" x="0px" y="0px" viewBox="0 0 34.1 34.1"
	 style="enable-background:new 0 0 34.1 34.1;" xml:space="preserve">
<style type="text/css">
	.st0{fill:#D07400;}
</style>
<sodipodi:namedview  bordercolor="#666666" borderopacity="1" gridtolerance="10" guidetolerance="10" id="namedview88" inkscape:current-layer="Capa_1" inkscape:cx="22.700001" inkscape:cy="22.700001" inkscape:pageopacity="0" inkscape:pageshadow="2" inkscape:window-height="1053" inkscape:window-maximized="1" inkscape:window-width="1920" inkscape:window-x="0" inkscape:window-y="27" inkscape:zoom="18.942731" objecttolerance="10" pagecolor="#ffffff" showgrid="false">
	</sodipodi:namedview>
<path class="st0" d="M30.9,27.1c-0.2-1.7-0.8-3.2-2.1-4.3c-0.7-0.6-1.4-1-2.2-1.5c-1.1-0.7-2.4-1.1-3.5-1.7c-0.9-0.4-1.7-1-2-2.1
	c0-0.2-0.1-0.4-0.1-0.5c1.9-1.8,2.6-4.6,2.7-5.6c0.2,0,0.4,0,0.5,0c0.7,0,1.1-0.4,1.1-0.9c0.1-0.7-0.3-1-0.9-1.1
	c-0.3-0.1-0.3-0.2-0.3-0.4c-0.1-1.5-0.6-2.8-1.5-4.1c-0.7-0.8-1.4-1.4-2.4-1.9c-0.2,1.1-0.4,2.2-0.7,3.1c-0.1,0.5-0.4,0.8-0.7,0.7
	c-0.3-0.1-0.5-0.5-0.4-0.9c0.2-0.9,0.4-2.1,0.6-3.1c0.1-0.5-0.1-0.7-0.4-0.9c-0.3-0.1-0.5-0.2-0.8-0.2c-0.7,0-1.4,0-2.1,0
	c-0.4,0-0.7,0.2-1,0.4c-0.1,0.1-0.1,0.2-0.1,0.4c0.3,1.2,0.5,2.4,0.7,3.5c0.1,0.5-0.1,0.9-0.5,0.9c-0.4,0-0.6-0.2-0.7-0.7
	c-0.2-0.9-0.4-1.8-0.5-2.7c-0.1-0.4-0.2-0.4-0.5-0.2c-2.1,1.3-3.3,3.2-3.5,5.6c0,0.4,0,0.5-0.4,0.5c-0.6,0-0.9,0.5-0.9,1s0.5,1,1,1
	c0.2,0,0.4,0,0.6,0c0,0.1,0.3,1.2,0.3,1.3c0.2,0.7,0.4,1.3,0.7,1.9c0.3,0.7,0.8,1.3,1.2,2c0.3,0.3,0.4,0.4,0.4,0.9
	c0,0.4-0.2,0.9-0.4,1.1c-0.4,0.5-0.9,0.8-1.5,1c-1.7,0.7-3.3,1.4-4.8,2.5c-1,0.7-1.9,1.5-2.5,2.7c-0.6,1.4-0.7,2.9-0.6,4.5
	c0,0.8,0.4,1,1,1.3c3.8,1.1,7.5,1.7,11.5,1.9c3.6,0.1,7.1-0.2,10.6-0.9c1.2-0.3,2.6-0.6,3.8-1c0.7-0.2,0.8-0.4,0.8-1
	C31,28.7,31,27.8,30.9,27.1z M19.8,29.8c-0.3,0.4-1.9,1.6-1.9,1.6s-0.1,0.1-0.3,0.1c-0.1,0-0.3-0.1-0.3-0.1s-1.5-1.3-1.9-1.6
	c-0.3-0.3-0.2-1-0.2-1s1.3-4.7,1.4-5.2c0.1-0.6,0.6-0.6,0.6-0.6h0.3h0.3c0,0,0.4,0,0.6,0.6C18.8,25.1,20.3,29,19.8,29.8z M16.1,19.5
	h2.6c0,0,0.6-0.1,0.4,0.6c-0.2,0.7-0.6,1.7-0.6,1.7c-0.1,0.2-0.4,0.4-0.6,0.4c-0.2,0-0.5,0-0.7,0c-0.2,0-0.4,0-0.6-0.1
	c-0.1-0.1-0.2-0.4-0.4-0.6c-0.2-0.9-0.5-1.5-0.5-1.5S15.5,19.5,16.1,19.5z M17.1,17.8c-4.3,0-5.5-4.7-5.7-6.4c3.9,0,7.8,0,11.7,0
	C22.7,13,21.3,17.8,17.1,17.8z"/>
</svg>
