<?xml version="1.0" encoding="UTF-8" standalone="no"?>
<!-- Generator: Adobe Illustrator 21.1.0, SVG Export Plug-In . SVG Version: 6.00 Build 0)  -->

<svg
   xmlns:dc="http://purl.org/dc/elements/1.1/"
   xmlns:cc="http://creativecommons.org/ns#"
   xmlns:rdf="http://www.w3.org/1999/02/22-rdf-syntax-ns#"
   xmlns:svg="http://www.w3.org/2000/svg"
   xmlns="http://www.w3.org/2000/svg"
   xmlns:sodipodi="http://sodipodi.sourceforge.net/DTD/sodipodi-0.dtd"
   xmlns:inkscape="http://www.inkscape.org/namespaces/inkscape"
   version="1.1"
   id="Capa_1"
   x="0px"
   y="0px"
   viewBox="0 0 42.5 42.5"
   style="enable-background:new 0 0 42.5 42.5;"
   xml:space="preserve"
   sodipodi:docname="emp.svg"
   inkscape:version="0.92.3 (2405546, 2018-03-11)"><metadata
   id="metadata23"><rdf:RDF><cc:Work
       rdf:about=""><dc:format>image/svg+xml</dc:format><dc:type
         rdf:resource="http://purl.org/dc/dcmitype/StillImage" /></cc:Work></rdf:RDF></metadata><defs
   id="defs21" /><sodipodi:namedview
   pagecolor="#ffffff"
   bordercolor="#666666"
   borderopacity="1"
   objecttolerance="10"
   gridtolerance="10"
   guidetolerance="10"
   inkscape:pageopacity="0"
   inkscape:pageshadow="2"
   inkscape:window-width="1920"
   inkscape:window-height="1053"
   id="namedview19"
   showgrid="false"
   inkscape:zoom="11.105882"
   inkscape:cx="6.6704683"
   inkscape:cy="22.063408"
   inkscape:window-x="0"
   inkscape:window-y="27"
   inkscape:window-maximized="1"
   inkscape:current-layer="g16" />
<style
   type="text/css"
   id="style2">
	.st0{fill:#D07400;}
	.st1{fill:#FFFFFF;}
</style>
<g
   id="g16">
	
	<g
   id="g14"
   style="fill:#d07400;fill-opacity:1;stroke:none;stroke-opacity:1"
   transform="matrix(1.2720506,0,0,1.2720506,-5.6785799,-6.5289391)">
		<polygon
   class="st1"
   points="30,33.5 30.1,33.6 30,33.6 "
   id="polygon6"
   style="fill:#d07400;fill-opacity:1;stroke:none;stroke-opacity:1" />
		<polygon
   class="st1"
   points=""
   id="polygon8"
   style="fill:#d07400;fill-opacity:1;stroke:none;stroke-opacity:1" />
		<path
   class="st1"
   d="m 35.2,26.2 c -1.2,-2 -3.3,-3 -5.4,-2.9 L 25.4,18.8 H 29 V 5.9 H 14 v 12.9 h 3.8 l -4.4,4.5 c -1.2,-0.1 -2.4,0.2 -3.5,0.9 -2.9,1.7 -3.8,5.5 -2,8.3 0.8,1.3 2.1,2.3 3.5,2.7 l -0.5,0.5 2.1,2.2 2.2,-2.2 -0.5,-0.5 c 0.6,-0.1 1.1,-0.4 1.6,-0.7 2.9,-1.7 3.8,-5.5 2,-8.3 -0.6,-1 -1.5,-1.8 -2.4,-2.3 l 4.4,-4.5 1.4,1.4 1.5,-1.5 4.4,4.5 c -0.2,0.1 -0.3,0.2 -0.5,0.3 -2.9,1.7 -3.8,5.5 -2,8.3 0.8,1.4 2.1,2.3 3.6,2.7 l -0.5,0.5 2.1,2.2 2.2,-2.2 -0.5,-0.5 c 0.5,-0.1 1,-0.4 1.5,-0.6 2.5,-1.7 3.4,-5.4 1.7,-8.3 z m -18.6,0.9 c 1.2,2 0.6,4.6 -1.4,5.9 -0.7,0.4 -1.5,0.6 -2.3,0.6 v 0 c -1.4,0 -2.7,-0.8 -3.5,-2 -1.2,-2 -0.6,-4.6 1.4,-5.9 1.1,-0.6 2.3,-0.8 3.4,-0.4 0.1,0 0.2,0 0.2,0.1 0.9,0.2 1.7,0.8 2.2,1.7 z m 5,-10.4 v 0 H 21.4 16.5 V 8 h 10.1 v 8.7 z M 32.2,33 c -0.7,0.4 -1.4,0.6 -2.1,0.6 H 30 c -1.4,0 -2.8,-0.7 -3.6,-2 -1.2,-2 -0.6,-4.6 1.4,-5.9 2,-1.2 4.6,-0.6 5.9,1.4 1.2,2 0.5,4.6 -1.5,5.9 z"
   id="path10"
   style="fill:#d07400;fill-opacity:1;stroke:none;stroke-opacity:1"
   inkscape:connector-curvature="0" />
		<path
   class="st1"
   d="m 14.4,25.3 v 0 l -0.2,-0.1 c 0.1,0.1 0.1,0.1 0.2,0.1 z"
   id="path12"
   style="fill:#d07400;fill-opacity:1;stroke:none;stroke-opacity:1"
   inkscape:connector-curvature="0" />
	</g>
</g>
</svg>