<?xml version="1.0" encoding="utf-8"?>
<!-- Generator: Adobe Illustrator 21.1.0, SVG Export Plug-In . SVG Version: 6.00 Build 0)  -->
<svg version="1.1"
	 id="Capa_1" inkscape:version="0.92.2 (5c3e80d, 2017-08-06)" sodipodi:docname="ctr.svg" xmlns:cc="http://creativecommons.org/ns#" xmlns:dc="http://purl.org/dc/elements/1.1/" xmlns:inkscape="http://www.inkscape.org/namespaces/inkscape" xmlns:rdf="http://www.w3.org/1999/02/22-rdf-syntax-ns#" xmlns:sodipodi="http://sodipodi.sourceforge.net/DTD/sodipodi-0.dtd" xmlns:svg="http://www.w3.org/2000/svg"
	 xmlns="http://www.w3.org/2000/svg" xmlns:xlink="http://www.w3.org/1999/xlink" x="0px" y="0px" viewBox="0 0 34.1 34.1"
	 style="enable-background:new 0 0 34.1 34.1;" xml:space="preserve">
<style type="text/css">
	.st0{fill:#D07400;}
</style>
<sodipodi:namedview  bordercolor="#666666" borderopacity="1" gridtolerance="10" guidetolerance="10" id="namedview88" inkscape:current-layer="Capa_1" inkscape:cx="22.700001" inkscape:cy="22.700001" inkscape:pageopacity="0" inkscape:pageshadow="2" inkscape:window-height="1053" inkscape:window-maximized="1" inkscape:window-width="1920" inkscape:window-x="0" inkscape:window-y="27" inkscape:zoom="18.942731" objecttolerance="10" pagecolor="#ffffff" showgrid="false">
	</sodipodi:namedview>
<g>
	<path class="st0" d="M25.6,16.4v10.2c0,1.7-1.4,3.1-3.1,3.1H7.6c-1.6,0-3-1.3-3.1-2.9V7.4C4.6,5.7,6,4.5,7.6,4.5h14.7
		c1.5,0,2.6,0.9,3,2.2l-2.1,2.1C23,7.7,22,7,20.9,7H9.2C7.9,7,6.8,8,6.7,9.3v15.5c0.1,1.3,1.2,2.4,2.5,2.4h11.7
		c1.4,0,2.5-1.1,2.5-2.5v-6.2L25.6,16.4z"/>
	<polygon class="st0" points="8.7,17.9 15,24.2 29.6,9.5 27.6,7.5 15,20 10.9,15.8 	"/>
</g>
</svg>
