<?xml version="1.0" encoding="utf-8"?>
<!-- Generator: Adobe Illustrator 21.1.0, SVG Export Plug-In . SVG Version: 6.00 Build 0)  -->
<svg version="1.1"
	 id="Capa_1" inkscape:version="0.92.2 (5c3e80d, 2017-08-06)" sodipodi:docname="ctr.svg" xmlns:cc="http://creativecommons.org/ns#" xmlns:dc="http://purl.org/dc/elements/1.1/" xmlns:inkscape="http://www.inkscape.org/namespaces/inkscape" xmlns:rdf="http://www.w3.org/1999/02/22-rdf-syntax-ns#" xmlns:sodipodi="http://sodipodi.sourceforge.net/DTD/sodipodi-0.dtd" xmlns:svg="http://www.w3.org/2000/svg"
	 xmlns="http://www.w3.org/2000/svg" xmlns:xlink="http://www.w3.org/1999/xlink" x="0px" y="0px" viewBox="0 0 34.1 34.1"
	 style="enable-background:new 0 0 34.1 34.1;" xml:space="preserve">
<style type="text/css">
	.st0{fill:#D07400;}
</style>
<sodipodi:namedview  bordercolor="#666666" borderopacity="1" gridtolerance="10" guidetolerance="10" id="namedview88" inkscape:current-layer="Capa_1" inkscape:cx="22.700001" inkscape:cy="22.700001" inkscape:pageopacity="0" inkscape:pageshadow="2" inkscape:window-height="1053" inkscape:window-maximized="1" inkscape:window-width="1920" inkscape:window-x="0" inkscape:window-y="27" inkscape:zoom="18.942731" objecttolerance="10" pagecolor="#ffffff" showgrid="false">
	</sodipodi:namedview>
<g>
	<path class="st0" d="M11.8,8.4c-4.8,2.9-6.4,9.2-3.4,14c1.7,2.9,4.7,4.6,7.7,4.9v5.5h2.1v-5.6c1.4-0.2,2.9-0.6,4.2-1.4
		c4.8-2.9,6.4-9.2,3.4-14C22.9,7,16.6,5.5,11.8,8.4z M20.9,23.5c-3.5,2.2-8.1,1-10.2-2.5c-2.2-3.5-1-8.1,2.5-10.2
		c3.5-2.2,8.1-1,10.2,2.5C25.6,16.8,24.5,21.4,20.9,23.5z"/>
	<ellipse transform="matrix(0.8545 -0.5194 0.5194 0.8545 -6.4323 11.3709)" class="st0" cx="17.1" cy="17.2" rx="1" ry="1"/>
	<rect x="16.1" y="1.3" class="st0" width="2.1" height="3.7"/>
	<rect x="29.1" y="16" class="st0" width="3.7" height="2.1"/>
	<rect x="1.3" y="16" class="st0" width="3.7" height="2.1"/>
</g>
</svg>
