<?xml version="1.0" encoding="utf-8"?>
<!-- Generator: Adobe Illustrator 21.1.0, SVG Export Plug-In . SVG Version: 6.00 Build 0)  -->
<svg version="1.1"
	 id="Capa_1" inkscape:version="0.92.2 (5c3e80d, 2017-08-06)" sodipodi:docname="ctr.svg" xmlns:cc="http://creativecommons.org/ns#" xmlns:dc="http://purl.org/dc/elements/1.1/" xmlns:inkscape="http://www.inkscape.org/namespaces/inkscape" xmlns:rdf="http://www.w3.org/1999/02/22-rdf-syntax-ns#" xmlns:sodipodi="http://sodipodi.sourceforge.net/DTD/sodipodi-0.dtd" xmlns:svg="http://www.w3.org/2000/svg"
	 xmlns="http://www.w3.org/2000/svg" xmlns:xlink="http://www.w3.org/1999/xlink" x="0px" y="0px" viewBox="0 0 34.1 34.1"
	 style="enable-background:new 0 0 34.1 34.1;" xml:space="preserve">
<style type="text/css">
	.st0{fill:#D07400;}
</style>
<sodipodi:namedview  bordercolor="#666666" borderopacity="1" gridtolerance="10" guidetolerance="10" id="namedview88" inkscape:current-layer="Capa_1" inkscape:cx="22.700001" inkscape:cy="22.700001" inkscape:pageopacity="0" inkscape:pageshadow="2" inkscape:window-height="1053" inkscape:window-maximized="1" inkscape:window-width="1920" inkscape:window-x="0" inkscape:window-y="27" inkscape:zoom="18.942731" objecttolerance="10" pagecolor="#ffffff" showgrid="false">
	</sodipodi:namedview>
<g>
	<circle class="st0" cx="28.1" cy="7.9" r="3.3"/>
	<polygon class="st0" points="21.5,10 25.8,14.3 16.9,23.2 10.4,16.7 5,22.2 2.9,20.1 11.5,11.4 15.8,15.8 	"/>
	<polygon class="st0" points="13.9,22.2 16.1,24.4 8.2,32.3 6,30.1 	"/>
	<path class="st0" d="M30.4,18.9l-3.1-3l-0.4-0.4l-2.1,2.2l1.2,1.2l-2.2,2.2l0,0c-0.3,0.3-0.5,0.7-0.5,1.2c0,0.9,0.8,1.6,1.6,1.6
		c0.5,0,0.9-0.2,1.2-0.6L30.4,18.9z"/>
	<path class="st0" d="M18.1,6.8l2.1-2.1c0.4-0.3,0.6-0.8,0.6-1.2c0-0.9-0.8-1.6-1.6-1.6c-0.5,0-1,0.2-1.2,0.6l-4.3,4.3l4.4,4.4
		l2.2-2.2l-1.5-1.5L18.1,6.8z"/>
</g>
</svg>
