<?xml version="1.0" encoding="UTF-8" standalone="no"?>
<svg
   xmlns:dc="http://purl.org/dc/elements/1.1/"
   xmlns:cc="http://creativecommons.org/ns#"
   xmlns:rdf="http://www.w3.org/1999/02/22-rdf-syntax-ns#"
   xmlns:svg="http://www.w3.org/2000/svg"
   xmlns="http://www.w3.org/2000/svg"
   xmlns:sodipodi="http://sodipodi.sourceforge.net/DTD/sodipodi-0.dtd"
   xmlns:inkscape="http://www.inkscape.org/namespaces/inkscape"
   version="1.0"
   width="1280.000000pt"
   height="1280.000000pt"
   viewBox="0 0 1280.000000 1280.000000"
   preserveAspectRatio="xMidYMid meet"
   id="svg10"
   sodipodi:docname="38673.svg"
   inkscape:version="1.0.2 (e86c870879, 2021-01-15, custom)">
  <defs
     id="defs14" />
  <sodipodi:namedview
     pagecolor="#ffffff"
     bordercolor="#666666"
     borderopacity="1"
     objecttolerance="10"
     gridtolerance="10"
     guidetolerance="10"
     inkscape:pageopacity="0"
     inkscape:pageshadow="2"
     inkscape:window-width="1366"
     inkscape:window-height="705"
     id="namedview12"
     showgrid="false"
     inkscape:zoom="0.31523438"
     inkscape:cx="242.67658"
     inkscape:cy="599.5539"
     inkscape:window-x="-8"
     inkscape:window-y="-8"
     inkscape:window-maximized="1"
     inkscape:current-layer="svg10" />
  <metadata
     id="metadata2">
Created by potrace 1.15, written by Peter Selinger 2001-2017
<rdf:RDF>
  <cc:Work
     rdf:about="">
    <dc:format>image/svg+xml</dc:format>
    <dc:type
       rdf:resource="http://purl.org/dc/dcmitype/StillImage" />
  </cc:Work>
</rdf:RDF>
</metadata>
  <g
     transform="translate(0.000000,1280.000000) scale(0.100000,-0.100000)"
     fill="#000000"
     stroke="none"
     id="g8"
     style="fill:#d07400;fill-opacity:1;stroke:#338000;stroke-opacity:1">
    <path
       d="M6115 12794 c-281 -20 -371 -28 -500 -45 -1615 -210 -3089 -1010 -4112 -2232 -788 -941 -1294 -2104 -1452 -3337 -37 -289 -46 -430 -46 -780 0 -510 39 -870 146 -1359 329 -1499 1203 -2865 2404 -3754 988 -732 2109 -1155 3360 -1269 183 -17 787 -17 970 0 678 62 1288 206 1890 447 1650 661 2916 1933 3570 3585 237 599 376 1193 437 1865 17 183 17 787 0 970 -94 1030 -396 1967 -910 2825 -1044 1739 -2857 2868 -4926 3066 -149 14 -715 27 -831 18z m650 -424 c1286 -87 2497 -573 3500 -1406 167 -139 560 -532 699 -699 318 -383 558 -751 776 -1190 139 -280 222 -475 313 -743 437 -1271 437 -2593 0 -3864 -204 -596 -510 -1176 -883 -1673 -172 -230 -308 -385 -544 -621 -457 -457 -902 -782 -1471 -1075 -875 -451 -1800 -679 -2755 -679 -1398 0 -2763 500 -3865 1416 -167 139 -560 532 -699 699 -318 383 -558 751 -776 1190 -139 280 -222 475 -313 743 -437 1271 -437 2593 0 3864 91 268 174 463 313 743 218 439 458 807 776 1190 139 167 532 560 699 699 927 770 2043 1249 3221 1381 301 34 718 44 1009 25z"
       id="path4"
       style="fill:#d07400;fill-opacity:1;stroke:#338000;stroke-opacity:1" />
    <path
       d="M4650 9450 l0 -1260 -1245 -2 -1245 -3 -3 -1773 -2 -1772 1248 0 1247 0 0 -1235 0 -1235 1775 0 1775 0 0 1235 0 1235 1250 0 1250 0 0 1775 0 1775 -1250 0 -1250 0 0 1260 0 1260 -1775 0 -1775 0 0 -1260z"
       id="path6"
       style="fill:#d07400;fill-opacity:1;stroke:#338000;stroke-opacity:1" />
  </g>
</svg>
